<svg width="64" height="64" viewBox="0 0 64 64" fill="none" xmlns="http://www.w3.org/2000/svg">
<path d="M27 7H26V8H27V7Z" fill="#351E15"/>
<path d="M28 7H27V8H28V7Z" fill="#351E15"/>
<path d="M29 7H28V8H29V7Z" fill="#351E15"/>
<path d="M27 8H26V9H27V8Z" fill="#351E15"/>
<path d="M28 8H27V9H28V8Z" fill="#CA9D45"/>
<path d="M29 8H28V9H29V8Z" fill="#CA9D45"/>
<path d="M30 8H29V9H30V8Z" fill="#351E15"/>
<path d="M27 9H26V10H27V9Z" fill="#351E15"/>
<path d="M28 9H27V10H28V9Z" fill="#351E15"/>
<path d="M29 9H28V10H29V9Z" fill="#CA9D45"/>
<path d="M30 9H29V10H30V9Z" fill="#CA9D45"/>
<path d="M31 9H30V10H31V9Z" fill="#351E15"/>
<path d="M28 10H27V11H28V10Z" fill="#351E15"/>
<path d="M29 10H28V11H29V10Z" fill="#805527"/>
<path d="M30 10H29V11H30V10Z" fill="#CA9D45"/>
<path d="M31 10H30V11H31V10Z" fill="#CA9D45"/>
<path d="M32 10H31V11H32V10Z" fill="#351E15"/>
<path d="M34 10H33V11H34V10Z" fill="#351E15"/>
<path d="M35 10H34V11H35V10Z" fill="#351E15"/>
<path d="M29 11H28V12H29V11Z" fill="#351E15"/>
<path d="M30 11H29V12H30V11Z" fill="#805527"/>
<path d="M31 11H30V12H31V11Z" fill="#CA9D45"/>
<path d="M32 11H31V12H32V11Z" fill="#351E15"/>
<path d="M33 11H32V12H33V11Z" fill="#351E15"/>
<path d="M34 11H33V12H34V11Z" fill="#CA9D45"/>
<path d="M35 11H34V12H35V11Z" fill="#351E15"/>
<path d="M41 11H40V12H41V11Z" fill="#351E15"/>
<path d="M42 11H41V12H42V11Z" fill="#351E15"/>
<path d="M43 11H42V12H43V11Z" fill="#351E15"/>
<path d="M44 11H43V12H44V11Z" fill="#351E15"/>
<path d="M45 11H44V12H45V11Z" fill="#351E15"/>
<path d="M29 12H28V13H29V12Z" fill="#351E15"/>
<path d="M30 12H29V13H30V12Z" fill="#805527"/>
<path d="M31 12H30V13H31V12Z" fill="#CA9D45"/>
<path d="M32 12H31V13H32V12Z" fill="#351E15"/>
<path d="M33 12H32V13H33V12Z" fill="#CA9D45"/>
<path d="M34 12H33V13H34V12Z" fill="#CA9D45"/>
<path d="M35 12H34V13H35V12Z" fill="#351E15"/>
<path d="M40 12H39V13H40V12Z" fill="#351E15"/>
<path d="M41 12H40V13H41V12Z" fill="#CA9D45"/>
<path d="M42 12H41V13H42V12Z" fill="#CA9D45"/>
<path d="M43 12H42V13H43V12Z" fill="#CA9D45"/>
<path d="M44 12H43V13H44V12Z" fill="#CA9D45"/>
<path d="M45 12H44V13H45V12Z" fill="#351E15"/>
<path d="M29 13H28V14H29V13Z" fill="#351E15"/>
<path d="M30 13H29V14H30V13Z" fill="#805527"/>
<path d="M31 13H30V14H31V13Z" fill="#CA9D45"/>
<path d="M32 13H31V14H32V13Z" fill="#CA9D45"/>
<path d="M33 13H32V14H33V13Z" fill="#805527"/>
<path d="M34 13H33V14H34V13Z" fill="#805527"/>
<path d="M35 13H34V14H35V13Z" fill="#351E15"/>
<path d="M39 13H38V14H39V13Z" fill="#351E15"/>
<path d="M40 13H39V14H40V13Z" fill="#CA9D45"/>
<path d="M41 13H40V14H41V13Z" fill="#CA9D45"/>
<path d="M42 13H41V14H42V13Z" fill="#805527"/>
<path d="M43 13H42V14H43V13Z" fill="#805527"/>
<path d="M44 13H43V14H44V13Z" fill="#351E15"/>
<path d="M19 14H18V15H19V14Z" fill="#351E15"/>
<path d="M20 14H19V15H20V14Z" fill="#351E15"/>
<path d="M29 14H28V15H29V14Z" fill="#351E15"/>
<path d="M30 14H29V15H30V14Z" fill="#805527"/>
<path d="M31 14H30V15H31V14Z" fill="#805527"/>
<path d="M32 14H31V15H32V14Z" fill="#805527"/>
<path d="M33 14H32V15H33V14Z" fill="#805527"/>
<path d="M34 14H33V15H34V14Z" fill="#351E15"/>
<path d="M38 14H37V15H38V14Z" fill="#351E15"/>
<path d="M39 14H38V15H39V14Z" fill="#DDB04D"/>
<path d="M40 14H39V15H40V14Z" fill="#805527"/>
<path d="M41 14H40V15H41V14Z" fill="#805527"/>
<path d="M42 14H41V15H42V14Z" fill="#351E15"/>
<path d="M43 14H42V15H43V14Z" fill="#351E15"/>
<path d="M19 15H18V16H19V15Z" fill="#351E15"/>
<path d="M20 15H19V16H20V15Z" fill="#CA9D45"/>
<path d="M21 15H20V16H21V15Z" fill="#351E15"/>
<path d="M29 15H28V16H29V15Z" fill="#351E15"/>
<path d="M30 15H29V16H30V15Z" fill="#805527"/>
<path d="M31 15H30V16H31V15Z" fill="#805527"/>
<path d="M32 15H31V16H32V15Z" fill="#805527"/>
<path d="M33 15H32V16H33V15Z" fill="#351E15"/>
<path d="M37 15H36V16H37V15Z" fill="#351E15"/>
<path d="M38 15H37V16H38V15Z" fill="#CA9D45"/>
<path d="M39 15H38V16H39V15Z" fill="#CA9D45"/>
<path d="M40 15H39V16H40V15Z" fill="#805527"/>
<path d="M41 15H40V16H41V15Z" fill="#351E15"/>
<path d="M19 16H18V17H19V16Z" fill="#351E15"/>
<path d="M20 16H19V17H20V16Z" fill="#CA9D45"/>
<path d="M21 16H20V17H21V16Z" fill="#CA9D45"/>
<path d="M22 16H21V17H22V16Z" fill="#351E15"/>
<path d="M23 16H22V17H23V16Z" fill="#351E15"/>
<path d="M29 16H28V17H29V16Z" fill="#351E15"/>
<path d="M30 16H29V17H30V16Z" fill="#805527"/>
<path d="M31 16H30V17H31V16Z" fill="#805527"/>
<path d="M32 16H31V17H32V16Z" fill="#805527"/>
<path d="M33 16H32V17H33V16Z" fill="#351E15"/>
<path d="M37 16H36V17H37V16Z" fill="#351E15"/>
<path d="M38 16H37V17H38V16Z" fill="#805527"/>
<path d="M39 16H38V17H39V16Z" fill="#805527"/>
<path d="M40 16H39V17H40V16Z" fill="#351E15"/>
<path d="M19 17H18V18H19V17Z" fill="#351E15"/>
<path d="M20 17H19V18H20V17Z" fill="#805527"/>
<path d="M21 17H20V18H21V17Z" fill="#CA9D45"/>
<path d="M22 17H21V18H22V17Z" fill="#CA9D45"/>
<path d="M23 17H22V18H23V17Z" fill="#CA9D45"/>
<path d="M24 17H23V18H24V17Z" fill="#351E15"/>
<path d="M25 17H24V18H25V17Z" fill="#351E15"/>
<path d="M29 17H28V18H29V17Z" fill="#351E15"/>
<path d="M30 17H29V18H30V17Z" fill="#805527"/>
<path d="M31 17H30V18H31V17Z" fill="#805527"/>
<path d="M32 17H31V18H32V17Z" fill="#805527"/>
<path d="M33 17H32V18H33V17Z" fill="#351E15"/>
<path d="M36 17H35V18H36V17Z" fill="#351E15"/>
<path d="M37 17H36V18H37V17Z" fill="#CA9D45"/>
<path d="M38 17H37V18H38V17Z" fill="#805527"/>
<path d="M39 17H38V18H39V17Z" fill="#351E15"/>
<path d="M19 18H18V19H19V18Z" fill="#351E15"/>
<path d="M20 18H19V19H20V18Z" fill="#351E15"/>
<path d="M21 18H20V19H21V18Z" fill="#351E15"/>
<path d="M22 18H21V19H22V18Z" fill="#805527"/>
<path d="M23 18H22V19H23V18Z" fill="#CA9D45"/>
<path d="M24 18H23V19H24V18Z" fill="#CA9D45"/>
<path d="M25 18H24V19H25V18Z" fill="#CA9D45"/>
<path d="M26 18H25V19H26V18Z" fill="#351E15"/>
<path d="M27 18H26V19H27V18Z" fill="#351E15"/>
<path d="M30 18H29V19H30V18Z" fill="#351E15"/>
<path d="M31 18H30V19H31V18Z" fill="#805527"/>
<path d="M32 18H31V19H32V18Z" fill="#805527"/>
<path d="M33 18H32V19H33V18Z" fill="#351E15"/>
<path d="M36 18H35V19H36V18Z" fill="#351E15"/>
<path d="M37 18H36V19H37V18Z" fill="#805527"/>
<path d="M38 18H37V19H38V18Z" fill="#805527"/>
<path d="M39 18H38V19H39V18Z" fill="#351E15"/>
<path d="M22 19H21V20H22V19Z" fill="#351E15"/>
<path d="M23 19H22V20H23V19Z" fill="#805527"/>
<path d="M24 19H23V20H24V19Z" fill="#CA9D45"/>
<path d="M25 19H24V20H25V19Z" fill="#CA9D45"/>
<path d="M26 19H25V20H26V19Z" fill="#CA9D45"/>
<path opacity="0.737255" d="M27 19H26V20H27V19Z" fill="#E5B750"/>
<path d="M28 19H27V20H28V19Z" fill="#351E15"/>
<path d="M30 19H29V20H30V19Z" fill="#351E15"/>
<path d="M31 19H30V20H31V19Z" fill="#805527"/>
<path d="M32 19H31V20H32V19Z" fill="#805527"/>
<path d="M33 19H32V20H33V19Z" fill="#351E15"/>
<path d="M34 19H33V20H34V19Z" fill="#351E15"/>
<path d="M35 19H34V20H35V19Z" fill="#351E15"/>
<path d="M36 19H35V20H36V19Z" fill="#CA9D45"/>
<path d="M37 19H36V20H37V19Z" fill="#805527"/>
<path d="M38 19H37V20H38V19Z" fill="#805527"/>
<path d="M39 19H38V20H39V19Z" fill="#351E15"/>
<path d="M40 19H39V20H40V19Z" fill="#351E15"/>
<path d="M23 20H22V21H23V20Z" fill="#351E15"/>
<path d="M24 20H23V21H24V20Z" fill="#805527"/>
<path d="M25 20H24V21H25V20Z" fill="#805527"/>
<path d="M26 20H25V21H26V20Z" fill="#805527"/>
<path d="M27 20H26V21H27V20Z" fill="#CA9D45"/>
<path d="M28 20H27V21H28V20Z" fill="#CA9D45"/>
<path d="M29 20H28V21H29V20Z" fill="#351E15"/>
<path d="M30 20H29V21H30V20Z" fill="#351E15"/>
<path d="M31 20H30V21H31V20Z" fill="#805527"/>
<path d="M32 20H31V21H32V20Z" fill="#805527"/>
<path d="M33 20H32V21H33V20Z" fill="#351E15"/>
<path d="M34 20H33V21H34V20Z" fill="#CA9D45"/>
<path d="M35 20H34V21H35V20Z" fill="#805527"/>
<path d="M36 20H35V21H36V20Z" fill="#805527"/>
<path d="M37 20H36V21H37V20Z" fill="#805527"/>
<path d="M38 20H37V21H38V20Z" fill="#805527"/>
<path d="M39 20H38V21H39V20Z" fill="#805527"/>
<path d="M40 20H39V21H40V20Z" fill="#351E15"/>
<path d="M21 21H20V22H21V21Z" fill="#351E15"/>
<path d="M22 21H21V22H22V21Z" fill="#351E15"/>
<path d="M24 21H23V22H24V21Z" fill="#351E15"/>
<path d="M25 21H24V22H25V21Z" fill="#351E15"/>
<path d="M26 21H25V22H26V21Z" fill="#805527"/>
<path d="M27 21H26V22H27V21Z" fill="#4F2719"/>
<path d="M28 21H27V22H28V21Z" fill="#CA9D45"/>
<path d="M29 21H28V22H29V21Z" fill="#CA9D45"/>
<path d="M30 21H29V22H30V21Z" fill="#351E15"/>
<path d="M31 21H30V22H31V21Z" fill="#4F2719"/>
<path d="M32 21H31V22H32V21Z" fill="#805527"/>
<path d="M33 21H32V22H33V21Z" fill="#805527"/>
<path d="M34 21H33V22H34V21Z" fill="#805527"/>
<path d="M35 21H34V22H35V21Z" fill="#4F2719"/>
<path d="M36 21H35V22H36V21Z" fill="#805527"/>
<path d="M37 21H36V22H37V21Z" fill="#351E15"/>
<path d="M38 21H37V22H38V21Z" fill="#805527"/>
<path d="M39 21H38V22H39V21Z" fill="#4F2719"/>
<path d="M40 21H39V22H40V21Z" fill="#351E15"/>
<path d="M41 21H40V22H41V21Z" fill="#351E15"/>
<path d="M21 22H20V23H21V22Z" fill="#351E15"/>
<path d="M22 22H21V23H22V22Z" fill="#CA9D45"/>
<path d="M23 22H22V23H23V22Z" fill="#351E15"/>
<path d="M26 22H25V23H26V22Z" fill="#351E15"/>
<path d="M27 22H26V23H27V22Z" fill="#805527"/>
<path d="M28 22H27V23H28V22Z" fill="#805527"/>
<path d="M29 22H28V23H29V22Z" fill="#805527"/>
<path d="M30 22H29V23H30V22Z" fill="#805527"/>
<path d="M31 22H30V23H31V22Z" fill="#805527"/>
<path d="M32 22H31V23H32V22Z" fill="#805527"/>
<path d="M33 22H32V23H33V22Z" fill="#805527"/>
<path d="M34 22H33V23H34V22Z" fill="#805527"/>
<path d="M35 22H34V23H35V22Z" fill="#805527"/>
<path d="M36 22H35V23H36V22Z" fill="#351E15"/>
<path d="M38 22H37V23H38V22Z" fill="#351E15"/>
<path d="M39 22H38V23H39V22Z" fill="#805527"/>
<path d="M40 22H39V23H40V22Z" fill="#805527"/>
<path d="M41 22H40V23H41V22Z" fill="#351E15"/>
<path d="M12 23H11V24H12V23Z" fill="#351E15"/>
<path d="M13 23H12V24H13V23Z" fill="#351E15"/>
<path d="M14 23H13V24H14V23Z" fill="#351E15"/>
<path d="M15 23H14V24H15V23Z" fill="#351E15"/>
<path d="M16 23H15V24H16V23Z" fill="#351E15"/>
<path d="M21 23H20V24H21V23Z" fill="#351E15"/>
<path d="M22 23H21V24H22V23Z" fill="#CA9D45"/>
<path d="M23 23H22V24H23V23Z" fill="#351E15"/>
<path d="M27 23H26V24H27V23Z" fill="#351E15"/>
<path d="M28 23H27V24H28V23Z" fill="#805527"/>
<path d="M29 23H28V24H29V23Z" fill="#4F2719"/>
<path d="M30 23H29V24H30V23Z" fill="#805527"/>
<path d="M31 23H30V24H31V23Z" fill="#4F2719"/>
<path d="M32 23H31V24H32V23Z" fill="#805527"/>
<path d="M33 23H32V24H33V23Z" fill="#4F2719"/>
<path d="M34 23H33V24H34V23Z" fill="#805527"/>
<path d="M35 23H34V24H35V23Z" fill="#4F2719"/>
<path d="M36 23H35V24H36V23Z" fill="#351E15"/>
<path d="M39 23H38V24H39V23Z" fill="#351E15"/>
<path d="M40 23H39V24H40V23Z" fill="#351E15"/>
<path d="M41 23H40V24H41V23Z" fill="#351E15"/>
<path d="M11 24H10V25H11V24Z" fill="#351E15"/>
<path d="M12 24H11V25H12V24Z" fill="#CA9D45"/>
<path d="M13 24H12V25H13V24Z" fill="#CA9D45"/>
<path d="M14 24H13V25H14V24Z" fill="#CA9D45"/>
<path d="M15 24H14V25H15V24Z" fill="#CA9D45"/>
<path d="M16 24H15V25H16V24Z" fill="#CA9D45"/>
<path d="M17 24H16V25H17V24Z" fill="#351E15"/>
<path d="M18 24H17V25H18V24Z" fill="#351E15"/>
<path d="M19 24H18V25H19V24Z" fill="#351E15"/>
<path d="M20 24H19V25H20V24Z" fill="#351E15"/>
<path d="M21 24H20V25H21V24Z" fill="#351E15"/>
<path d="M22 24H21V25H22V24Z" fill="#CA9D45"/>
<path d="M23 24H22V25H23V24Z" fill="#351E15"/>
<path d="M28 24H27V25H28V24Z" fill="#351E15"/>
<path d="M29 24H28V25H29V24Z" fill="#351E15"/>
<path d="M30 24H29V25H30V24Z" fill="#805527"/>
<path d="M31 24H30V25H31V24Z" fill="#805527"/>
<path d="M32 24H31V25H32V24Z" fill="#805527"/>
<path d="M33 24H32V25H33V24Z" fill="#805527"/>
<path d="M34 24H33V25H34V24Z" fill="#805527"/>
<path d="M35 24H34V25H35V24Z" fill="#351E15"/>
<path d="M10 25H9V26H10V25Z" fill="#351E15"/>
<path d="M11 25H10V26H11V25Z" fill="#CA9D45"/>
<path d="M12 25H11V26H12V25Z" fill="#CA9D45"/>
<path d="M13 25H12V26H13V25Z" fill="#351E15"/>
<path d="M14 25H13V26H14V25Z" fill="#351E15"/>
<path d="M15 25H14V26H15V25Z" fill="#4F2719"/>
<path d="M16 25H15V26H16V25Z" fill="#805527"/>
<path d="M17 25H16V26H17V25Z" fill="#CA9D45"/>
<path d="M18 25H17V26H18V25Z" fill="#CA9D45"/>
<path d="M19 25H18V26H19V25Z" fill="#CA9D45"/>
<path d="M20 25H19V26H20V25Z" fill="#CA9D45"/>
<path d="M21 25H20V26H21V25Z" fill="#351E15"/>
<path d="M22 25H21V26H22V25Z" fill="#CA9D45"/>
<path d="M23 25H22V26H23V25Z" fill="#CA9D45"/>
<path d="M24 25H23V26H24V25Z" fill="#351E15"/>
<path d="M29 25H28V26H29V25Z" fill="#351E15"/>
<path d="M30 25H29V26H30V25Z" fill="#805527"/>
<path d="M31 25H30V26H31V25Z" fill="#4F2719"/>
<path d="M32 25H31V26H32V25Z" fill="#805527"/>
<path d="M33 25H32V26H33V25Z" fill="#4F2719"/>
<path d="M34 25H33V26H34V25Z" fill="#805527"/>
<path d="M35 25H34V26H35V25Z" fill="#351E15"/>
<path d="M49 25H48V26H49V25Z" fill="#351E15"/>
<path d="M50 25H49V26H50V25Z" fill="#351E15"/>
<path d="M51 25H50V26H51V25Z" fill="#351E15"/>
<path d="M52 25H51V26H52V25Z" fill="#351E15"/>
<path d="M10 26H9V27H10V26Z" fill="#351E15"/>
<path d="M11 26H10V27H11V26Z" fill="#351E15"/>
<path d="M12 26H11V27H12V26Z" fill="#351E15"/>
<path d="M13 26H12V27H13V26Z" fill="#351E15"/>
<path d="M15 26H14V27H15V26Z" fill="#351E15"/>
<path d="M16 26H15V27H16V26Z" fill="#351E15"/>
<path d="M17 26H16V27H17V26Z" fill="#805527"/>
<path d="M18 26H17V27H18V26Z" fill="#805527"/>
<path d="M19 26H18V27H19V26Z" fill="#CA9D45"/>
<path d="M20 26H19V27H20V26Z" fill="#CA9D45"/>
<path d="M21 26H20V27H21V26Z" fill="#CA9D45"/>
<path d="M22 26H21V27H22V26Z" fill="#CA9D45"/>
<path d="M23 26H22V27H23V26Z" fill="#DDB04D"/>
<path d="M24 26H23V27H24V26Z" fill="#351E15"/>
<path d="M29 26H28V27H29V26Z" fill="#351E15"/>
<path d="M30 26H29V27H30V26Z" fill="#4F2719"/>
<path d="M31 26H30V27H31V26Z" fill="#805527"/>
<path d="M32 26H31V27H32V26Z" fill="#805527"/>
<path d="M33 26H32V27H33V26Z" fill="#805527"/>
<path d="M34 26H33V27H34V26Z" fill="#805527"/>
<path d="M35 26H34V27H35V26Z" fill="#351E15"/>
<path d="M45 26H44V27H45V26Z" fill="#351E15"/>
<path d="M46 26H45V27H46V26Z" fill="#351E15"/>
<path d="M47 26H46V27H47V26Z" fill="#351E15"/>
<path d="M48 26H47V27H48V26Z" fill="#351E15"/>
<path d="M49 26H48V27H49V26Z" fill="#351E15"/>
<path d="M50 26H49V27H50V26Z" fill="#CA9D45"/>
<path d="M51 26H50V27H51V26Z" fill="#CA9D45"/>
<path d="M52 26H51V27H52V26Z" fill="#351E15"/>
<path d="M17 27H16V28H17V27Z" fill="#351E15"/>
<path d="M18 27H17V28H18V27Z" fill="#351E15"/>
<path d="M19 27H18V28H19V27Z" fill="#4F2719"/>
<path d="M20 27H19V28H20V27Z" fill="#805527"/>
<path d="M21 27H20V28H21V27Z" fill="#805527"/>
<path d="M22 27H21V28H22V27Z" fill="#805527"/>
<path d="M23 27H22V28H23V27Z" fill="#CA9D45"/>
<path d="M24 27H23V28H24V27Z" fill="#351E15"/>
<path d="M29 27H28V28H29V27Z" fill="#351E15"/>
<path d="M30 27H29V28H30V27Z" fill="#805527"/>
<path d="M31 27H30V28H31V27Z" fill="#4F2719"/>
<path d="M32 27H31V28H32V27Z" fill="#805527"/>
<path d="M33 27H32V28H33V27Z" fill="#4F2719"/>
<path d="M34 27H33V28H34V27Z" fill="#805527"/>
<path d="M35 27H34V28H35V27Z" fill="#351E15"/>
<path d="M43 27H42V28H43V27Z" fill="#351E15"/>
<path d="M44 27H43V28H44V27Z" fill="#351E15"/>
<path d="M45 27H44V28H45V27Z" fill="#CA9D45"/>
<path d="M46 27H45V28H46V27Z" fill="#CA9D45"/>
<path d="M47 27H46V28H47V27Z" fill="#CA9D45"/>
<path d="M48 27H47V28H48V27Z" fill="#CA9D45"/>
<path d="M49 27H48V28H49V27Z" fill="#CA9D45"/>
<path d="M50 27H49V28H50V27Z" fill="#CA9D45"/>
<path d="M51 27H50V28H51V27Z" fill="#351E15"/>
<path d="M19 28H18V29H19V28Z" fill="#351E15"/>
<path d="M20 28H19V29H20V28Z" fill="#351E15"/>
<path d="M21 28H20V29H21V28Z" fill="#805527"/>
<path d="M22 28H21V29H22V28Z" fill="#805527"/>
<path d="M23 28H22V29H23V28Z" fill="#805527"/>
<path d="M24 28H23V29H24V28Z" fill="#CA9D45"/>
<path d="M25 28H24V29H25V28Z" fill="#351E15"/>
<path d="M26 28H25V29H26V28Z" fill="#351E15"/>
<path d="M29 28H28V29H29V28Z" fill="#351E15"/>
<path d="M30 28H29V29H30V28Z" fill="#805527"/>
<path d="M31 28H30V29H31V28Z" fill="#805527"/>
<path d="M32 28H31V29H32V28Z" fill="#805527"/>
<path d="M33 28H32V29H33V28Z" fill="#805527"/>
<path d="M34 28H33V29H34V28Z" fill="#805527"/>
<path d="M35 28H34V29H35V28Z" fill="#351E15"/>
<path d="M41 28H40V29H41V28Z" fill="#351E15"/>
<path d="M42 28H41V29H42V28Z" fill="#351E15"/>
<path d="M43 28H42V29H43V28Z" fill="#CA9D45"/>
<path d="M44 28H43V29H44V28Z" fill="#CA9D45"/>
<path d="M45 28H44V29H45V28Z" fill="#CA9D45"/>
<path d="M46 28H45V29H46V28Z" fill="#CA9D45"/>
<path d="M47 28H46V29H47V28Z" fill="#351E15"/>
<path d="M48 28H47V29H48V28Z" fill="#351E15"/>
<path d="M49 28H48V29H49V28Z" fill="#351E15"/>
<path d="M50 28H49V29H50V28Z" fill="#351E15"/>
<path d="M13 29H12V30H13V29Z" fill="#351E15"/>
<path d="M14 29H13V30H14V29Z" fill="#351E15"/>
<path d="M21 29H20V30H21V29Z" fill="#351E15"/>
<path d="M22 29H21V30H22V29Z" fill="#805527"/>
<path d="M23 29H22V30H23V29Z" fill="#4F2719"/>
<path d="M24 29H23V30H24V29Z" fill="#805527"/>
<path d="M25 29H24V30H25V29Z" fill="#CA9D45"/>
<path d="M26 29H25V30H26V29Z" fill="#CA9D45"/>
<path d="M27 29H26V30H27V29Z" fill="#351E15"/>
<path d="M29 29H28V30H29V29Z" fill="#351E15"/>
<path d="M30 29H29V30H30V29Z" fill="#805527"/>
<path d="M31 29H30V30H31V29Z" fill="#805527"/>
<path d="M32 29H31V30H32V29Z" fill="#805527"/>
<path d="M33 29H32V30H33V29Z" fill="#4F2719"/>
<path d="M34 29H33V30H34V29Z" fill="#805527"/>
<path d="M35 29H34V30H35V29Z" fill="#4F2719"/>
<path d="M36 29H35V30H36V29Z" fill="#351E15"/>
<path d="M39 29H38V30H39V29Z" fill="#351E15"/>
<path d="M40 29H39V30H40V29Z" fill="#351E15"/>
<path d="M41 29H40V30H41V29Z" fill="#CA9D45"/>
<path d="M42 29H41V30H42V29Z" fill="#CA9D45"/>
<path d="M43 29H42V30H43V29Z" fill="#805527"/>
<path d="M44 29H43V30H44V29Z" fill="#805527"/>
<path d="M45 29H44V30H45V29Z" fill="#4F2719"/>
<path d="M46 29H45V30H46V29Z" fill="#351E15"/>
<path d="M13 30H12V31H13V30Z" fill="#351E15"/>
<path d="M14 30H13V31H14V30Z" fill="#CA9D45"/>
<path d="M15 30H14V31H15V30Z" fill="#351E15"/>
<path d="M16 30H15V31H16V30Z" fill="#351E15"/>
<path d="M17 30H16V31H17V30Z" fill="#351E15"/>
<path d="M22 30H21V31H22V30Z" fill="#351E15"/>
<path d="M23 30H22V31H23V30Z" fill="#805527"/>
<path d="M24 30H23V31H24V30Z" fill="#805527"/>
<path d="M25 30H24V31H25V30Z" fill="#805527"/>
<path d="M26 30H25V31H26V30Z" fill="#805527"/>
<path d="M27 30H26V31H27V30Z" fill="#805527"/>
<path d="M28 30H27V31H28V30Z" fill="#351E15"/>
<path d="M29 30H28V31H29V30Z" fill="#805527"/>
<path d="M30 30H29V31H30V30Z" fill="#4F2719"/>
<path d="M31 30H30V31H31V30Z" fill="#805527"/>
<path d="M32 30H31V31H32V30Z" fill="#805527"/>
<path d="M33 30H32V31H33V30Z" fill="#805527"/>
<path d="M34 30H33V31H34V30Z" fill="#4F2719"/>
<path d="M35 30H34V31H35V30Z" fill="#805527"/>
<path d="M36 30H35V31H36V30Z" fill="#351E15"/>
<path d="M38 30H37V31H38V30Z" fill="#351E15"/>
<path d="M39 30H38V31H39V30Z" fill="#CA9D45"/>
<path d="M40 30H39V31H40V30Z" fill="#CA9D45"/>
<path d="M41 30H40V31H41V30Z" fill="#805527"/>
<path d="M42 30H41V31H42V30Z" fill="#805527"/>
<path d="M43 30H42V31H43V30Z" fill="#805527"/>
<path d="M44 30H43V31H44V30Z" fill="#351E15"/>
<path d="M45 30H44V31H45V30Z" fill="#351E15"/>
<path d="M13 31H12V32H13V31Z" fill="#351E15"/>
<path d="M14 31H13V32H14V31Z" fill="#CA9D45"/>
<path d="M15 31H14V32H15V31Z" fill="#CA9D45"/>
<path d="M16 31H15V32H16V31Z" fill="#CA9D45"/>
<path d="M17 31H16V32H17V31Z" fill="#CA9D45"/>
<path d="M18 31H17V32H18V31Z" fill="#351E15"/>
<path d="M23 31H22V32H23V31Z" fill="#351E15"/>
<path d="M24 31H23V32H24V31Z" fill="#805527"/>
<path d="M25 31H24V32H25V31Z" fill="#4F2719"/>
<path d="M26 31H25V32H26V31Z" fill="#805527"/>
<path d="M27 31H26V32H27V31Z" fill="#4F2719"/>
<path d="M28 31H27V32H28V31Z" fill="#805527"/>
<path d="M29 31H28V32H29V31Z" fill="#4F2719"/>
<path d="M30 31H29V32H30V31Z" fill="#805527"/>
<path d="M31 31H30V32H31V31Z" fill="#4F2719"/>
<path d="M32 31H31V32H32V31Z" fill="#805527"/>
<path d="M33 31H32V32H33V31Z" fill="#4F2719"/>
<path d="M34 31H33V32H34V31Z" fill="#805527"/>
<path d="M35 31H34V32H35V31Z" fill="#4F2719"/>
<path d="M36 31H35V32H36V31Z" fill="#351E15"/>
<path d="M37 31H36V32H37V31Z" fill="#351E15"/>
<path d="M38 31H37V32H38V31Z" fill="#CA9D45"/>
<path d="M39 31H38V32H39V31Z" fill="#CA9D45"/>
<path d="M40 31H39V32H40V31Z" fill="#805527"/>
<path d="M41 31H40V32H41V31Z" fill="#4F2719"/>
<path d="M42 31H41V32H42V31Z" fill="#805527"/>
<path d="M43 31H42V32H43V31Z" fill="#351E15"/>
<path d="M13 32H12V33H13V32Z" fill="#351E15"/>
<path d="M14 32H13V33H14V32Z" fill="#351E15"/>
<path d="M15 32H14V33H15V32Z" fill="#351E15"/>
<path d="M16 32H15V33H16V32Z" fill="#4F2719"/>
<path d="M17 32H16V33H17V32Z" fill="#805527"/>
<path d="M18 32H17V33H18V32Z" fill="#CA9D45"/>
<path d="M19 32H18V33H19V32Z" fill="#351E15"/>
<path d="M24 32H23V33H24V32Z" fill="#351E15"/>
<path d="M25 32H24V33H25V32Z" fill="#805527"/>
<path d="M26 32H25V33H26V32Z" fill="#805527"/>
<path d="M27 32H26V33H27V32Z" fill="#805527"/>
<path d="M28 32H27V33H28V32Z" fill="#4F2719"/>
<path d="M29 32H28V33H29V32Z" fill="#805527"/>
<path d="M30 32H29V33H30V32Z" fill="#805527"/>
<path d="M31 32H30V33H31V32Z" fill="#805527"/>
<path d="M32 32H31V33H32V32Z" fill="#4F2719"/>
<path d="M33 32H32V33H33V32Z" fill="#805527"/>
<path d="M34 32H33V33H34V32Z" fill="#805527"/>
<path d="M35 32H34V33H35V32Z" fill="#805527"/>
<path d="M36 32H35V33H36V32Z" fill="#351E15"/>
<path d="M37 32H36V33H37V32Z" fill="#DDB04D"/>
<path d="M38 32H37V33H38V32Z" fill="#CA9D45"/>
<path d="M39 32H38V33H39V32Z" fill="#805527"/>
<path d="M40 32H39V33H40V32Z" fill="#351E15"/>
<path d="M41 32H40V33H41V32Z" fill="#805527"/>
<path d="M42 32H41V33H42V32Z" fill="#805527"/>
<path d="M43 32H42V33H43V32Z" fill="#351E15"/>
<path d="M16 33H15V34H16V33Z" fill="#351E15"/>
<path d="M17 33H16V34H17V33Z" fill="#4F2719"/>
<path d="M18 33H17V34H18V33Z" fill="#CA9D45"/>
<path d="M19 33H18V34H19V33Z" fill="#CA9D45"/>
<path d="M20 33H19V34H20V33Z" fill="#351E15"/>
<path d="M25 33H24V34H25V33Z" fill="#351E15"/>
<path d="M26 33H25V34H26V33Z" fill="#805527"/>
<path d="M27 33H26V34H27V33Z" fill="#4F2719"/>
<path d="M28 33H27V34H28V33Z" fill="#805527"/>
<path d="M29 33H28V34H29V33Z" fill="#4F2719"/>
<path d="M30 33H29V34H30V33Z" fill="#805527"/>
<path d="M31 33H30V34H31V33Z" fill="#4F2719"/>
<path d="M32 33H31V34H32V33Z" fill="#805527"/>
<path d="M33 33H32V34H33V33Z" fill="#4F2719"/>
<path d="M34 33H33V34H34V33Z" fill="#805527"/>
<path d="M35 33H34V34H35V33Z" fill="#4F2719"/>
<path d="M36 33H35V34H36V33Z" fill="#CA9D45"/>
<path d="M37 33H36V34H37V33Z" fill="#805527"/>
<path d="M38 33H37V34H38V33Z" fill="#805527"/>
<path d="M39 33H38V34H39V33Z" fill="#351E15"/>
<path d="M41 33H40V34H41V33Z" fill="#351E15"/>
<path d="M42 33H41V34H42V33Z" fill="#805527"/>
<path d="M43 33H42V34H43V33Z" fill="#4F2719"/>
<path d="M44 33H43V34H44V33Z" fill="#351E15"/>
<path d="M16 34H15V35H16V34Z" fill="#351E15"/>
<path d="M17 34H16V35H17V34Z" fill="#805527"/>
<path d="M18 34H17V35H18V34Z" fill="#4F2719"/>
<path d="M19 34H18V35H19V34Z" fill="#CA9D45"/>
<path d="M20 34H19V35H20V34Z" fill="#CA9D45"/>
<path d="M21 34H20V35H21V34Z" fill="#351E15"/>
<path d="M25 34H24V35H25V34Z" fill="#351E15"/>
<path d="M26 34H25V35H26V34Z" fill="#4F2719"/>
<path d="M27 34H26V35H27V34Z" fill="#805527"/>
<path d="M28 34H27V35H28V34Z" fill="#4F2719"/>
<path d="M29 34H28V35H29V34Z" fill="#805527"/>
<path d="M30 34H29V35H30V34Z" fill="#4F2719"/>
<path d="M31 34H30V35H31V34Z" fill="#805527"/>
<path d="M32 34H31V35H32V34Z" fill="#4F2719"/>
<path d="M33 34H32V35H33V34Z" fill="#805527"/>
<path d="M34 34H33V35H34V34Z" fill="#4F2719"/>
<path d="M35 34H34V35H35V34Z" fill="#805527"/>
<path d="M36 34H35V35H36V34Z" fill="#4F2719"/>
<path d="M37 34H36V35H37V34Z" fill="#805527"/>
<path d="M38 34H37V35H38V34Z" fill="#351E15"/>
<path d="M42 34H41V35H42V34Z" fill="#351E15"/>
<path d="M43 34H42V35H43V34Z" fill="#351E15"/>
<path d="M44 34H43V35H44V34Z" fill="#351E15"/>
<path d="M51 34H50V35H51V34Z" fill="#351E15"/>
<path d="M52 34H51V35H52V34Z" fill="#351E15"/>
<path d="M53 34H52V35H53V34Z" fill="#351E15"/>
<path d="M54 34H53V35H54V34Z" fill="#351E15"/>
<path d="M17 35H16V36H17V35Z" fill="#351E15"/>
<path d="M18 35H17V36H18V35Z" fill="#805527"/>
<path d="M19 35H18V36H19V35Z" fill="#805527"/>
<path d="M20 35H19V36H20V35Z" fill="#CA9D45"/>
<path d="M21 35H20V36H21V35Z" fill="#CA9D45"/>
<path d="M22 35H21V36H22V35Z" fill="#351E15"/>
<path d="M26 35H25V36H26V35Z" fill="#351E15"/>
<path d="M27 35H26V36H27V35Z" fill="#4F2719"/>
<path d="M28 35H27V36H28V35Z" fill="#805527"/>
<path d="M29 35H28V36H29V35Z" fill="#4F2719"/>
<path d="M30 35H29V36H30V35Z" fill="#805527"/>
<path d="M31 35H30V36H31V35Z" fill="#4F2719"/>
<path d="M32 35H31V36H32V35Z" fill="#805527"/>
<path d="M33 35H32V36H33V35Z" fill="#4F2719"/>
<path d="M34 35H33V36H34V35Z" fill="#805527"/>
<path d="M35 35H34V36H35V35Z" fill="#4F2719"/>
<path d="M36 35H35V36H36V35Z" fill="#805527"/>
<path d="M37 35H36V36H37V35Z" fill="#4F2719"/>
<path d="M38 35H37V36H38V35Z" fill="#351E15"/>
<path d="M49 35H48V36H49V35Z" fill="#351E15"/>
<path d="M50 35H49V36H50V35Z" fill="#351E15"/>
<path d="M51 35H50V36H51V35Z" fill="#CA9D45"/>
<path d="M52 35H51V36H52V35Z" fill="#CA9D45"/>
<path d="M53 35H52V36H53V35Z" fill="#CA9D45"/>
<path d="M54 35H53V36H54V35Z" fill="#351E15"/>
<path d="M17 36H16V37H17V36Z" fill="#351E15"/>
<path d="M18 36H17V37H18V36Z" fill="#351E15"/>
<path d="M19 36H18V37H19V36Z" fill="#805527"/>
<path d="M20 36H19V37H20V36Z" fill="#4F2719"/>
<path d="M21 36H20V37H21V36Z" fill="#805527"/>
<path d="M22 36H21V37H22V36Z" fill="#351E15"/>
<path d="M23 36H22V37H23V36Z" fill="#351E15"/>
<path d="M24 36H23V37H24V36Z" fill="#351E15"/>
<path d="M25 36H24V37H25V36Z" fill="#351E15"/>
<path d="M26 36H25V37H26V36Z" fill="#351E15"/>
<path d="M27 36H26V37H27V36Z" fill="#351E15"/>
<path d="M28 36H27V37H28V36Z" fill="#4F2719"/>
<path d="M29 36H28V37H29V36Z" fill="#805527"/>
<path d="M30 36H29V37H30V36Z" fill="#4F2719"/>
<path d="M31 36H30V37H31V36Z" fill="#805527"/>
<path d="M32 36H31V37H32V36Z" fill="#4F2719"/>
<path d="M33 36H32V37H33V36Z" fill="#805527"/>
<path d="M34 36H33V37H34V36Z" fill="#4F2719"/>
<path d="M35 36H34V37H35V36Z" fill="#805527"/>
<path d="M36 36H35V37H36V36Z" fill="#4F2719"/>
<path d="M37 36H36V37H37V36Z" fill="#805527"/>
<path d="M38 36H37V37H38V36Z" fill="#351E15"/>
<path d="M48 36H47V37H48V36Z" fill="#351E15"/>
<path d="M49 36H48V37H49V36Z" fill="#CA9D45"/>
<path d="M50 36H49V37H50V36Z" fill="#CA9D45"/>
<path d="M51 36H50V37H51V36Z" fill="#805527"/>
<path d="M52 36H51V37H52V36Z" fill="#805527"/>
<path d="M53 36H52V37H53V36Z" fill="#351E15"/>
<path d="M16 37H15V38H16V37Z" fill="#351E15"/>
<path d="M17 37H16V38H17V37Z" fill="#CA9D45"/>
<path d="M18 37H17V38H18V37Z" fill="#CA9D45"/>
<path d="M19 37H18V38H19V37Z" fill="#805527"/>
<path d="M20 37H19V38H20V37Z" fill="#805527"/>
<path d="M21 37H20V38H21V37Z" fill="#805527"/>
<path d="M22 37H21V38H22V37Z" fill="#805527"/>
<path d="M23 37H22V38H23V37Z" fill="#805527"/>
<path d="M24 37H23V38H24V37Z" fill="#805527"/>
<path d="M25 37H24V38H25V37Z" fill="#805527"/>
<path d="M26 37H25V38H26V37Z" fill="#805527"/>
<path d="M27 37H26V38H27V37Z" fill="#805527"/>
<path d="M28 37H27V38H28V37Z" fill="#805527"/>
<path d="M29 37H28V38H29V37Z" fill="#4F2719"/>
<path d="M30 37H29V38H30V37Z" fill="#805527"/>
<path d="M31 37H30V38H31V37Z" fill="#4F2719"/>
<path d="M32 37H31V38H32V37Z" fill="#805527"/>
<path d="M33 37H32V38H33V37Z" fill="#4F2719"/>
<path d="M34 37H33V38H34V37Z" fill="#805527"/>
<path d="M35 37H34V38H35V37Z" fill="#4F2719"/>
<path d="M36 37H35V38H36V37Z" fill="#805527"/>
<path d="M37 37H36V38H37V37Z" fill="#351E15"/>
<path d="M38 37H37V38H38V37Z" fill="#351E15"/>
<path d="M47 37H46V38H47V37Z" fill="#351E15"/>
<path d="M48 37H47V38H48V37Z" fill="#DDB04D"/>
<path d="M49 37H48V38H49V37Z" fill="#805527"/>
<path d="M50 37H49V38H50V37Z" fill="#805527"/>
<path d="M51 37H50V38H51V37Z" fill="#351E15"/>
<path d="M52 37H51V38H52V37Z" fill="#351E15"/>
<path d="M15 38H14V39H15V38Z" fill="#351E15"/>
<path d="M16 38H15V39H16V38Z" fill="#DDB04D"/>
<path d="M17 38H16V39H17V38Z" fill="#805527"/>
<path d="M18 38H17V39H18V38Z" fill="#805527"/>
<path d="M19 38H18V39H19V38Z" fill="#805527"/>
<path d="M20 38H19V39H20V38Z" fill="#4F2719"/>
<path d="M21 38H20V39H21V38Z" fill="#805527"/>
<path d="M22 38H21V39H22V38Z" fill="#4F2719"/>
<path d="M23 38H22V39H23V38Z" fill="#805527"/>
<path d="M24 38H23V39H24V38Z" fill="#4F2719"/>
<path d="M25 38H24V39H25V38Z" fill="#805527"/>
<path d="M26 38H25V39H26V38Z" fill="#4F2719"/>
<path d="M27 38H26V39H27V38Z" fill="#805527"/>
<path d="M28 38H27V39H28V38Z" fill="#4F2719"/>
<path d="M29 38H28V39H29V38Z" fill="#805527"/>
<path d="M30 38H29V39H30V38Z" fill="#4F2719"/>
<path d="M31 38H30V39H31V38Z" fill="#805527"/>
<path d="M32 38H31V39H32V38Z" fill="#4F2719"/>
<path d="M33 38H32V39H33V38Z" fill="#805527"/>
<path d="M34 38H33V39H34V38Z" fill="#4F2719"/>
<path d="M35 38H34V39H35V38Z" fill="#805527"/>
<path d="M36 38H35V39H36V38Z" fill="#4F2719"/>
<path d="M37 38H36V39H37V38Z" fill="#805527"/>
<path d="M38 38H37V39H38V38Z" fill="#CA9D45"/>
<path d="M39 38H38V39H39V38Z" fill="#351E15"/>
<path d="M46 38H45V39H46V38Z" fill="#351E15"/>
<path d="M47 38H46V39H47V38Z" fill="#CA9D45"/>
<path d="M48 38H47V39H48V38Z" fill="#805527"/>
<path d="M49 38H48V39H49V38Z" fill="#805527"/>
<path d="M50 38H49V39H50V38Z" fill="#351E15"/>
<path d="M14 39H13V40H14V39Z" fill="#351E15"/>
<path d="M15 39H14V40H15V39Z" fill="#CA9D45"/>
<path d="M16 39H15V40H16V39Z" fill="#805527"/>
<path d="M17 39H16V40H17V39Z" fill="#4F2719"/>
<path d="M18 39H17V40H18V39Z" fill="#351E15"/>
<path d="M19 39H18V40H19V39Z" fill="#351E15"/>
<path d="M20 39H19V40H20V39Z" fill="#351E15"/>
<path d="M21 39H20V40H21V39Z" fill="#351E15"/>
<path d="M22 39H21V40H22V39Z" fill="#351E15"/>
<path d="M23 39H22V40H23V39Z" fill="#351E15"/>
<path d="M24 39H23V40H24V39Z" fill="#805527"/>
<path d="M25 39H24V40H25V39Z" fill="#4F2719"/>
<path d="M26 39H25V40H26V39Z" fill="#4F2719"/>
<path d="M27 39H26V40H27V39Z" fill="#4F2719"/>
<path d="M28 39H27V40H28V39Z" fill="#805527"/>
<path d="M29 39H28V40H29V39Z" fill="#4F2719"/>
<path d="M30 39H29V40H30V39Z" fill="#4F2719"/>
<path d="M31 39H30V40H31V39Z" fill="#4F2719"/>
<path d="M32 39H31V40H32V39Z" fill="#805527"/>
<path d="M33 39H32V40H33V39Z" fill="#4F2719"/>
<path d="M34 39H33V40H34V39Z" fill="#4F2719"/>
<path d="M35 39H34V40H35V39Z" fill="#4F2719"/>
<path d="M36 39H35V40H36V39Z" fill="#805527"/>
<path d="M37 39H36V40H37V39Z" fill="#4F2719"/>
<path d="M38 39H37V40H38V39Z" fill="#805527"/>
<path d="M39 39H38V40H39V39Z" fill="#CA9D45"/>
<path d="M40 39H39V40H40V39Z" fill="#351E15"/>
<path d="M41 39H40V40H41V39Z" fill="#351E15"/>
<path d="M45 39H44V40H45V39Z" fill="#351E15"/>
<path d="M46 39H45V40H46V39Z" fill="#CA9D45"/>
<path d="M47 39H46V40H47V39Z" fill="#805527"/>
<path d="M48 39H47V40H48V39Z" fill="#805527"/>
<path d="M49 39H48V40H49V39Z" fill="#351E15"/>
<path d="M14 40H13V41H14V40Z" fill="#351E15"/>
<path d="M15 40H14V41H15V40Z" fill="#CA9D45"/>
<path d="M16 40H15V41H16V40Z" fill="#351E15"/>
<path d="M17 40H16V41H17V40Z" fill="#351E15"/>
<path d="M24 40H23V41H24V40Z" fill="#351E15"/>
<path d="M25 40H24V41H25V40Z" fill="#351E15"/>
<path d="M26 40H25V41H26V40Z" fill="#351E15"/>
<path d="M27 40H26V41H27V40Z" fill="#351E15"/>
<path d="M28 40H27V41H28V40Z" fill="#4F2719"/>
<path d="M29 40H28V41H29V40Z" fill="#805527"/>
<path d="M30 40H29V41H30V40Z" fill="#4F2719"/>
<path d="M31 40H30V41H31V40Z" fill="#805527"/>
<path d="M32 40H31V41H32V40Z" fill="#4F2719"/>
<path d="M33 40H32V41H33V40Z" fill="#805527"/>
<path d="M34 40H33V41H34V40Z" fill="#4F2719"/>
<path d="M35 40H34V41H35V40Z" fill="#805527"/>
<path d="M36 40H35V41H36V40Z" fill="#4F2719"/>
<path d="M37 40H36V41H37V40Z" fill="#805527"/>
<path d="M38 40H37V41H38V40Z" fill="#4F2719"/>
<path d="M39 40H38V41H39V40Z" fill="#805527"/>
<path d="M40 40H39V41H40V40Z" fill="#805527"/>
<path d="M41 40H40V41H41V40Z" fill="#CA9D45"/>
<path d="M42 40H41V41H42V40Z" fill="#351E15"/>
<path d="M43 40H42V41H43V40Z" fill="#351E15"/>
<path d="M44 40H43V41H44V40Z" fill="#351E15"/>
<path d="M45 40H44V41H45V40Z" fill="#DDB04D"/>
<path d="M46 40H45V41H46V40Z" fill="#805527"/>
<path d="M47 40H46V41H47V40Z" fill="#805527"/>
<path d="M48 40H47V41H48V40Z" fill="#351E15"/>
<path d="M14 41H13V42H14V41Z" fill="#351E15"/>
<path d="M15 41H14V42H15V41Z" fill="#351E15"/>
<path d="M25 41H24V42H25V41Z" fill="#351E15"/>
<path d="M26 41H25V42H26V41Z" fill="#351E15"/>
<path d="M27 41H26V42H27V41Z" fill="#351E15"/>
<path d="M28 41H27V42H28V41Z" fill="#4F2719"/>
<path d="M29 41H28V42H29V41Z" fill="#4F2719"/>
<path d="M30 41H29V42H30V41Z" fill="#805527"/>
<path d="M31 41H30V42H31V41Z" fill="#4F2719"/>
<path d="M32 41H31V42H32V41Z" fill="#4F2719"/>
<path d="M33 41H32V42H33V41Z" fill="#4F2719"/>
<path d="M34 41H33V42H34V41Z" fill="#805527"/>
<path d="M35 41H34V42H35V41Z" fill="#4F2719"/>
<path d="M36 41H35V42H36V41Z" fill="#4F2719"/>
<path d="M37 41H36V42H37V41Z" fill="#351E15"/>
<path d="M38 41H37V42H38V41Z" fill="#351E15"/>
<path d="M39 41H38V42H39V41Z" fill="#4F2719"/>
<path d="M40 41H39V42H40V41Z" fill="#4F2719"/>
<path d="M41 41H40V42H41V41Z" fill="#805527"/>
<path d="M42 41H41V42H42V41Z" fill="#CA9D45"/>
<path d="M43 41H42V42H43V41Z" fill="#CA9D45"/>
<path d="M44 41H43V42H44V41Z" fill="#CA9D45"/>
<path d="M45 41H44V42H45V41Z" fill="#805527"/>
<path d="M46 41H45V42H46V41Z" fill="#805527"/>
<path d="M47 41H46V42H47V41Z" fill="#805527"/>
<path d="M48 41H47V42H48V41Z" fill="#351E15"/>
<path d="M23 42H22V43H23V42Z" fill="#351E15"/>
<path d="M24 42H23V43H24V42Z" fill="#351E15"/>
<path d="M25 42H24V43H25V42Z" fill="#CA9D45"/>
<path d="M26 42H25V43H26V42Z" fill="#CA9D45"/>
<path d="M27 42H26V43H27V42Z" fill="#805527"/>
<path d="M28 42H27V43H28V42Z" fill="#4F2719"/>
<path d="M29 42H28V43H29V42Z" fill="#805527"/>
<path d="M30 42H29V43H30V42Z" fill="#4F2719"/>
<path d="M31 42H30V43H31V42Z" fill="#805527"/>
<path d="M32 42H31V43H32V42Z" fill="#4F2719"/>
<path d="M33 42H32V43H33V42Z" fill="#805527"/>
<path d="M34 42H33V43H34V42Z" fill="#4F2719"/>
<path d="M35 42H34V43H35V42Z" fill="#805527"/>
<path d="M36 42H35V43H36V42Z" fill="#4F2719"/>
<path d="M37 42H36V43H37V42Z" fill="#351E15"/>
<path d="M39 42H38V43H39V42Z" fill="#351E15"/>
<path d="M40 42H39V43H40V42Z" fill="#4F2719"/>
<path d="M41 42H40V43H41V42Z" fill="#805527"/>
<path d="M42 42H41V43H42V42Z" fill="#4F2719"/>
<path d="M43 42H42V43H43V42Z" fill="#805527"/>
<path d="M44 42H43V43H44V42Z" fill="#351E15"/>
<path d="M45 42H44V43H45V42Z" fill="#805527"/>
<path d="M46 42H45V43H46V42Z" fill="#351E15"/>
<path d="M47 42H46V43H47V42Z" fill="#351E15"/>
<path d="M22 43H21V44H22V43Z" fill="#351E15"/>
<path d="M23 43H22V44H23V43Z" fill="#DDB04D"/>
<path d="M24 43H23V44H24V43Z" fill="#CA9D45"/>
<path d="M25 43H24V44H25V43Z" fill="#805527"/>
<path d="M26 43H25V44H26V43Z" fill="#4F2719"/>
<path d="M27 43H26V44H27V43Z" fill="#4F2719"/>
<path d="M28 43H27V44H28V43Z" fill="#4F2719"/>
<path d="M29 43H28V44H29V43Z" fill="#4F2719"/>
<path d="M30 43H29V44H30V43Z" fill="#4F2719"/>
<path d="M31 43H30V44H31V43Z" fill="#4F2719"/>
<path d="M32 43H31V44H32V43Z" fill="#4F2719"/>
<path d="M33 43H32V44H33V43Z" fill="#4F2719"/>
<path d="M34 43H33V44H34V43Z" fill="#4F2719"/>
<path d="M35 43H34V44H35V43Z" fill="#4F2719"/>
<path d="M36 43H35V44H36V43Z" fill="#4F2719"/>
<path d="M37 43H36V44H37V43Z" fill="#351E15"/>
<path d="M40 43H39V44H40V43Z" fill="#351E15"/>
<path d="M41 43H40V44H41V43Z" fill="#4F2719"/>
<path d="M42 43H41V44H42V43Z" fill="#805527"/>
<path d="M43 43H42V44H43V43Z" fill="#351E15"/>
<path d="M44 43H43V44H44V43Z" fill="#351E15"/>
<path d="M45 43H44V44H45V43Z" fill="#351E15"/>
<path d="M21 44H20V45H21V44Z" fill="#351E15"/>
<path d="M22 44H21V45H22V44Z" fill="#CA9D45"/>
<path d="M23 44H22V45H23V44Z" fill="#805527"/>
<path d="M24 44H23V45H24V44Z" fill="#805527"/>
<path d="M25 44H24V45H25V44Z" fill="#805527"/>
<path d="M26 44H25V45H26V44Z" fill="#4F2719"/>
<path d="M27 44H26V45H27V44Z" fill="#351E15"/>
<path d="M28 44H27V45H28V44Z" fill="#351E15"/>
<path d="M29 44H28V45H29V44Z" fill="#805527"/>
<path d="M30 44H29V45H30V44Z" fill="#4F2719"/>
<path d="M31 44H30V45H31V44Z" fill="#805527"/>
<path d="M32 44H31V45H32V44Z" fill="#4F2719"/>
<path d="M33 44H32V45H33V44Z" fill="#805527"/>
<path d="M34 44H33V45H34V44Z" fill="#4F2719"/>
<path d="M35 44H34V45H35V44Z" fill="#805527"/>
<path d="M36 44H35V45H36V44Z" fill="#4F2719"/>
<path d="M37 44H36V45H37V44Z" fill="#351E15"/>
<path d="M40 44H39V45H40V44Z" fill="#351E15"/>
<path d="M41 44H40V45H41V44Z" fill="#805527"/>
<path d="M42 44H41V45H42V44Z" fill="#805527"/>
<path d="M43 44H42V45H43V44Z" fill="#805527"/>
<path d="M44 44H43V45H44V44Z" fill="#351E15"/>
<path d="M20 45H19V46H20V45Z" fill="#351E15"/>
<path d="M21 45H20V46H21V45Z" fill="#DDB04D"/>
<path d="M22 45H21V46H22V45Z" fill="#CA9D45"/>
<path d="M23 45H22V46H23V45Z" fill="#351E15"/>
<path d="M24 45H23V46H24V45Z" fill="#351E15"/>
<path d="M25 45H24V46H25V45Z" fill="#351E15"/>
<path d="M26 45H25V46H26V45Z" fill="#351E15"/>
<path d="M28 45H27V46H28V45Z" fill="#351E15"/>
<path d="M29 45H28V46H29V45Z" fill="#4F2719"/>
<path d="M30 45H29V46H30V45Z" fill="#4F2719"/>
<path d="M31 45H30V46H31V45Z" fill="#4F2719"/>
<path d="M32 45H31V46H32V45Z" fill="#4F2719"/>
<path d="M33 45H32V46H33V45Z" fill="#4F2719"/>
<path d="M34 45H33V46H34V45Z" fill="#4F2719"/>
<path d="M35 45H34V46H35V45Z" fill="#4F2719"/>
<path d="M36 45H35V46H36V45Z" fill="#4F2719"/>
<path d="M37 45H36V46H37V45Z" fill="#351E15"/>
<path d="M41 45H40V46H41V45Z" fill="#351E15"/>
<path d="M42 45H41V46H42V45Z" fill="#4F2719"/>
<path d="M43 45H42V46H43V45Z" fill="#805527"/>
<path d="M44 45H43V46H44V45Z" fill="#351E15"/>
<path d="M20 46H19V47H20V46Z" fill="#351E15"/>
<path d="M21 46H20V47H21V46Z" fill="#351E15"/>
<path d="M22 46H21V47H22V46Z" fill="#351E15"/>
<path d="M28 46H27V47H28V46Z" fill="#351E15"/>
<path d="M29 46H28V47H29V46Z" fill="#805527"/>
<path d="M30 46H29V47H30V46Z" fill="#4F2719"/>
<path d="M31 46H30V47H31V46Z" fill="#805527"/>
<path d="M32 46H31V47H32V46Z" fill="#4F2719"/>
<path d="M33 46H32V47H33V46Z" fill="#805527"/>
<path d="M34 46H33V47H34V46Z" fill="#4F2719"/>
<path d="M35 46H34V47H35V46Z" fill="#805527"/>
<path d="M36 46H35V47H36V46Z" fill="#4F2719"/>
<path d="M37 46H36V47H37V46Z" fill="#351E15"/>
<path d="M42 46H41V47H42V46Z" fill="#351E15"/>
<path d="M43 46H42V47H43V46Z" fill="#805527"/>
<path d="M44 46H43V47H44V46Z" fill="#351E15"/>
<path d="M27 47H26V48H27V47Z" fill="#351E15"/>
<path d="M28 47H27V48H28V47Z" fill="#4F2719"/>
<path d="M29 47H28V48H29V47Z" fill="#4F2719"/>
<path d="M30 47H29V48H30V47Z" fill="#4F2719"/>
<path d="M31 47H30V48H31V47Z" fill="#4F2719"/>
<path d="M32 47H31V48H32V47Z" fill="#4F2719"/>
<path d="M33 47H32V48H33V47Z" fill="#4F2719"/>
<path d="M34 47H33V48H34V47Z" fill="#4F2719"/>
<path d="M35 47H34V48H35V47Z" fill="#4F2719"/>
<path d="M36 47H35V48H36V47Z" fill="#4F2719"/>
<path d="M37 47H36V48H37V47Z" fill="#4F2719"/>
<path d="M38 47H37V48H38V47Z" fill="#351E15"/>
<path d="M43 47H42V48H43V47Z" fill="#351E15"/>
<path d="M44 47H43V48H44V47Z" fill="#351E15"/>
<path d="M27 48H26V49H27V48Z" fill="#351E15"/>
<path d="M28 48H27V49H28V48Z" fill="#4F2719"/>
<path d="M29 48H28V49H29V48Z" fill="#805527"/>
<path d="M30 48H29V49H30V48Z" fill="#4F2719"/>
<path d="M31 48H30V49H31V48Z" fill="#805527"/>
<path d="M32 48H31V49H32V48Z" fill="#4F2719"/>
<path d="M33 48H32V49H33V48Z" fill="#805527"/>
<path d="M34 48H33V49H34V48Z" fill="#4F2719"/>
<path d="M35 48H34V49H35V48Z" fill="#805527"/>
<path d="M36 48H35V49H36V48Z" fill="#4F2719"/>
<path d="M37 48H36V49H37V48Z" fill="#805527"/>
<path d="M38 48H37V49H38V48Z" fill="#351E15"/>
<path d="M26 49H25V50H26V49Z" fill="#351E15"/>
<path d="M27 49H26V50H27V49Z" fill="#4F2719"/>
<path d="M28 49H27V50H28V49Z" fill="#4F2719"/>
<path d="M29 49H28V50H29V49Z" fill="#4F2719"/>
<path d="M30 49H29V50H30V49Z" fill="#4F2719"/>
<path d="M31 49H30V50H31V49Z" fill="#4F2719"/>
<path d="M32 49H31V50H32V49Z" fill="#4F2719"/>
<path d="M33 49H32V50H33V49Z" fill="#4F2719"/>
<path d="M34 49H33V50H34V49Z" fill="#4F2719"/>
<path d="M35 49H34V50H35V49Z" fill="#4F2719"/>
<path d="M36 49H35V50H36V49Z" fill="#4F2719"/>
<path d="M37 49H36V50H37V49Z" fill="#4F2719"/>
<path d="M38 49H37V50H38V49Z" fill="#4F2719"/>
<path d="M39 49H38V50H39V49Z" fill="#351E15"/>
<path d="M26 50H25V51H26V50Z" fill="#351E15"/>
<path d="M27 50H26V51H27V50Z" fill="#805527"/>
<path d="M28 50H27V51H28V50Z" fill="#4F2719"/>
<path d="M29 50H28V51H29V50Z" fill="#4F2719"/>
<path d="M30 50H29V51H30V50Z" fill="#4F2719"/>
<path d="M31 50H30V51H31V50Z" fill="#805527"/>
<path d="M32 50H31V51H32V50Z" fill="#4F2719"/>
<path d="M33 50H32V51H33V50Z" fill="#4F2719"/>
<path d="M34 50H33V51H34V50Z" fill="#4F2719"/>
<path d="M35 50H34V51H35V50Z" fill="#805527"/>
<path d="M36 50H35V51H36V50Z" fill="#4F2719"/>
<path d="M37 50H36V51H37V50Z" fill="#4F2719"/>
<path d="M38 50H37V51H38V50Z" fill="#4F2719"/>
<path d="M39 50H38V51H39V50Z" fill="#351E15"/>
<path d="M26 51H25V52H26V51Z" fill="#351E15"/>
<path d="M27 51H26V52H27V51Z" fill="#4F2719"/>
<path d="M28 51H27V52H28V51Z" fill="#4F2719"/>
<path d="M29 51H28V52H29V51Z" fill="#4F2719"/>
<path d="M30 51H29V52H30V51Z" fill="#4F2719"/>
<path d="M31 51H30V52H31V51Z" fill="#4F2719"/>
<path d="M32 51H31V52H32V51Z" fill="#4F2719"/>
<path d="M33 51H32V52H33V51Z" fill="#4F2719"/>
<path d="M34 51H33V52H34V51Z" fill="#4F2719"/>
<path d="M35 51H34V52H35V51Z" fill="#4F2719"/>
<path d="M36 51H35V52H36V51Z" fill="#4F2719"/>
<path d="M37 51H36V52H37V51Z" fill="#4F2719"/>
<path d="M38 51H37V52H38V51Z" fill="#4F2719"/>
<path d="M39 51H38V52H39V51Z" fill="#351E15"/>
<path d="M26 52H25V53H26V52Z" fill="#351E15"/>
<path d="M27 52H26V53H27V52Z" fill="#4F2719"/>
<path d="M28 52H27V53H28V52Z" fill="#4F2719"/>
<path d="M29 52H28V53H29V52Z" fill="#805527"/>
<path d="M30 52H29V53H30V52Z" fill="#4F2719"/>
<path d="M31 52H30V53H31V52Z" fill="#4F2719"/>
<path d="M32 52H31V53H32V52Z" fill="#4F2719"/>
<path d="M33 52H32V53H33V52Z" fill="#805527"/>
<path d="M34 52H33V53H34V52Z" fill="#4F2719"/>
<path d="M35 52H34V53H35V52Z" fill="#4F2719"/>
<path d="M36 52H35V53H36V52Z" fill="#4F2719"/>
<path d="M37 52H36V53H37V52Z" fill="#805527"/>
<path d="M38 52H37V53H38V52Z" fill="#4F2719"/>
<path d="M39 52H38V53H39V52Z" fill="#351E15"/>
<path d="M26 53H25V54H26V53Z" fill="#351E15"/>
<path d="M27 53H26V54H27V53Z" fill="#4F2719"/>
<path d="M28 53H27V54H28V53Z" fill="#4F2719"/>
<path d="M29 53H28V54H29V53Z" fill="#4F2719"/>
<path d="M30 53H29V54H30V53Z" fill="#4F2719"/>
<path d="M31 53H30V54H31V53Z" fill="#4F2719"/>
<path d="M32 53H31V54H32V53Z" fill="#4F2719"/>
<path d="M33 53H32V54H33V53Z" fill="#4F2719"/>
<path d="M34 53H33V54H34V53Z" fill="#4F2719"/>
<path d="M35 53H34V54H35V53Z" fill="#4F2719"/>
<path d="M36 53H35V54H36V53Z" fill="#4F2719"/>
<path d="M37 53H36V54H37V53Z" fill="#4F2719"/>
<path d="M38 53H37V54H38V53Z" fill="#4F2719"/>
<path d="M39 53H38V54H39V53Z" fill="#351E15"/>
<path d="M26 54H25V55H26V54Z" fill="#351E15"/>
<path d="M27 54H26V55H27V54Z" fill="#4F2719"/>
<path d="M28 54H27V55H28V54Z" fill="#4F2719"/>
<path d="M29 54H28V55H29V54Z" fill="#4F2719"/>
<path d="M30 54H29V55H30V54Z" fill="#4F2719"/>
<path d="M31 54H30V55H31V54Z" fill="#4F2719"/>
<path d="M32 54H31V55H32V54Z" fill="#4F2719"/>
<path d="M33 54H32V55H33V54Z" fill="#4F2719"/>
<path d="M34 54H33V55H34V54Z" fill="#4F2719"/>
<path d="M35 54H34V55H35V54Z" fill="#4F2719"/>
<path d="M36 54H35V55H36V54Z" fill="#4F2719"/>
<path d="M37 54H36V55H37V54Z" fill="#4F2719"/>
<path d="M38 54H37V55H38V54Z" fill="#4F2719"/>
<path d="M39 54H38V55H39V54Z" fill="#351E15"/>
<path d="M25 55H24V56H25V55Z" fill="#351E15"/>
<path d="M26 55H25V56H26V55Z" fill="#4F2719"/>
<path d="M27 55H26V56H27V55Z" fill="#4F2719"/>
<path d="M28 55H27V56H28V55Z" fill="#4F2719"/>
<path d="M29 55H28V56H29V55Z" fill="#4F2719"/>
<path d="M30 55H29V56H30V55Z" fill="#4F2719"/>
<path d="M31 55H30V56H31V55Z" fill="#4F2719"/>
<path d="M32 55H31V56H32V55Z" fill="#4F2719"/>
<path d="M33 55H32V56H33V55Z" fill="#4F2719"/>
<path d="M34 55H33V56H34V55Z" fill="#4F2719"/>
<path d="M35 55H34V56H35V55Z" fill="#4F2719"/>
<path d="M36 55H35V56H36V55Z" fill="#4F2719"/>
<path d="M37 55H36V56H37V55Z" fill="#4F2719"/>
<path d="M38 55H37V56H38V55Z" fill="#4F2719"/>
<path d="M39 55H38V56H39V55Z" fill="#4F2719"/>
<path d="M40 55H39V56H40V55Z" fill="#351E15"/>
<path d="M25 56H24V57H25V56Z" fill="#351E15"/>
<path d="M26 56H25V57H26V56Z" fill="#4F2719"/>
<path d="M27 56H26V57H27V56Z" fill="#4F2719"/>
<path d="M28 56H27V57H28V56Z" fill="#4F2719"/>
<path d="M29 56H28V57H29V56Z" fill="#4F2719"/>
<path d="M30 56H29V57H30V56Z" fill="#4F2719"/>
<path d="M31 56H30V57H31V56Z" fill="#4F2719"/>
<path d="M32 56H31V57H32V56Z" fill="#4F2719"/>
<path d="M33 56H32V57H33V56Z" fill="#805527"/>
<path d="M34 56H33V57H34V56Z" fill="#4F2719"/>
<path d="M35 56H34V57H35V56Z" fill="#4F2719"/>
<path d="M36 56H35V57H36V56Z" fill="#4F2719"/>
<path d="M37 56H36V57H37V56Z" fill="#4F2719"/>
<path d="M38 56H37V57H38V56Z" fill="#4F2719"/>
<path d="M39 56H38V57H39V56Z" fill="#4F2719"/>
<path d="M40 56H39V57H40V56Z" fill="#351E15"/>
<path d="M25 57H24V58H25V57Z" fill="#351E15"/>
<path d="M26 57H25V58H26V57Z" fill="#4F2719"/>
<path d="M27 57H26V58H27V57Z" fill="#4F2719"/>
<path d="M28 57H27V58H28V57Z" fill="#4F2719"/>
<path d="M29 57H28V58H29V57Z" fill="#4F2719"/>
<path d="M30 57H29V58H30V57Z" fill="#4F2719"/>
<path d="M31 57H30V58H31V57Z" fill="#4F2719"/>
<path d="M32 57H31V58H32V57Z" fill="#4F2719"/>
<path d="M33 57H32V58H33V57Z" fill="#4F2719"/>
<path d="M34 57H33V58H34V57Z" fill="#4F2719"/>
<path d="M35 57H34V58H35V57Z" fill="#4F2719"/>
<path d="M36 57H35V58H36V57Z" fill="#4F2719"/>
<path d="M37 57H36V58H37V57Z" fill="#4F2719"/>
<path d="M38 57H37V58H38V57Z" fill="#4F2719"/>
<path d="M39 57H38V58H39V57Z" fill="#4F2719"/>
<path d="M40 57H39V58H40V57Z" fill="#351E15"/>
<path d="M24 58H23V59H24V58Z" fill="#351E15"/>
<path d="M25 58H24V59H25V58Z" fill="#4F2719"/>
<path d="M26 58H25V59H26V58Z" fill="#4F2719"/>
<path d="M27 58H26V59H27V58Z" fill="#4F2719"/>
<path d="M28 58H27V59H28V58Z" fill="#4F2719"/>
<path d="M29 58H28V59H29V58Z" fill="#4F2719"/>
<path d="M30 58H29V59H30V58Z" fill="#4F2719"/>
<path d="M31 58H30V59H31V58Z" fill="#4F2719"/>
<path d="M32 58H31V59H32V58Z" fill="#4F2719"/>
<path d="M33 58H32V59H33V58Z" fill="#4F2719"/>
<path d="M34 58H33V59H34V58Z" fill="#4F2719"/>
<path d="M35 58H34V59H35V58Z" fill="#4F2719"/>
<path d="M36 58H35V59H36V58Z" fill="#4F2719"/>
<path d="M37 58H36V59H37V58Z" fill="#4F2719"/>
<path d="M38 58H37V59H38V58Z" fill="#4F2719"/>
<path d="M39 58H38V59H39V58Z" fill="#4F2719"/>
<path d="M40 58H39V59H40V58Z" fill="#4F2719"/>
<path d="M41 58H40V59H41V58Z" fill="#351E15"/>
<path d="M24 59H23V60H24V59Z" fill="#351E15"/>
<path d="M25 59H24V60H25V59Z" fill="#4F2719"/>
<path d="M26 59H25V60H26V59Z" fill="#4F2719"/>
<path d="M27 59H26V60H27V59Z" fill="#4F2719"/>
<path d="M28 59H27V60H28V59Z" fill="#4F2719"/>
<path d="M29 59H28V60H29V59Z" fill="#4F2719"/>
<path d="M30 59H29V60H30V59Z" fill="#4F2719"/>
<path d="M31 59H30V60H31V59Z" fill="#4F2719"/>
<path d="M32 59H31V60H32V59Z" fill="#4F2719"/>
<path d="M33 59H32V60H33V59Z" fill="#4F2719"/>
<path d="M34 59H33V60H34V59Z" fill="#4F2719"/>
<path d="M35 59H34V60H35V59Z" fill="#4F2719"/>
<path d="M36 59H35V60H36V59Z" fill="#4F2719"/>
<path d="M37 59H36V60H37V59Z" fill="#4F2719"/>
<path d="M38 59H37V60H38V59Z" fill="#4F2719"/>
<path d="M39 59H38V60H39V59Z" fill="#4F2719"/>
<path d="M40 59H39V60H40V59Z" fill="#4F2719"/>
<path d="M41 59H40V60H41V59Z" fill="#351E15"/>
<path d="M23 60H22V61H23V60Z" fill="#351E15"/>
<path d="M24 60H23V61H24V60Z" fill="#4F2719"/>
<path d="M25 60H24V61H25V60Z" fill="#4F2719"/>
<path d="M26 60H25V61H26V60Z" fill="#4F2719"/>
<path d="M27 60H26V61H27V60Z" fill="#4F2719"/>
<path d="M28 60H27V61H28V60Z" fill="#4F2719"/>
<path d="M29 60H28V61H29V60Z" fill="#4F2719"/>
<path d="M30 60H29V61H30V60Z" fill="#4F2719"/>
<path d="M31 60H30V61H31V60Z" fill="#4F2719"/>
<path d="M32 60H31V61H32V60Z" fill="#4F2719"/>
<path d="M33 60H32V61H33V60Z" fill="#4F2719"/>
<path d="M34 60H33V61H34V60Z" fill="#4F2719"/>
<path d="M35 60H34V61H35V60Z" fill="#4F2719"/>
<path d="M36 60H35V61H36V60Z" fill="#4F2719"/>
<path d="M37 60H36V61H37V60Z" fill="#4F2719"/>
<path d="M38 60H37V61H38V60Z" fill="#4F2719"/>
<path d="M39 60H38V61H39V60Z" fill="#4F2719"/>
<path d="M40 60H39V61H40V60Z" fill="#4F2719"/>
<path d="M41 60H40V61H41V60Z" fill="#4F2719"/>
<path d="M42 60H41V61H42V60Z" fill="#351E15"/>
<path d="M24 61H23V62H24V61Z" fill="#351E15"/>
<path d="M25 61H24V62H25V61Z" fill="#351E15"/>
<path d="M26 61H25V62H26V61Z" fill="#4F2719"/>
<path d="M27 61H26V62H27V61Z" fill="#4F2719"/>
<path d="M28 61H27V62H28V61Z" fill="#351E15"/>
<path d="M29 61H28V62H29V61Z" fill="#351E15"/>
<path d="M30 61H29V62H30V61Z" fill="#4F2719"/>
<path d="M31 61H30V62H31V61Z" fill="#4F2719"/>
<path d="M32 61H31V62H32V61Z" fill="#351E15"/>
<path d="M33 61H32V62H33V61Z" fill="#351E15"/>
<path d="M34 61H33V62H34V61Z" fill="#4F2719"/>
<path d="M35 61H34V62H35V61Z" fill="#4F2719"/>
<path d="M36 61H35V62H36V61Z" fill="#351E15"/>
<path d="M37 61H36V62H37V61Z" fill="#351E15"/>
<path d="M38 61H37V62H38V61Z" fill="#4F2719"/>
<path d="M39 61H38V62H39V61Z" fill="#4F2719"/>
<path d="M40 61H39V62H40V61Z" fill="#351E15"/>
<path d="M41 61H40V62H41V61Z" fill="#351E15"/>
<path d="M26 62H25V63H26V62Z" fill="#351E15"/>
<path d="M27 62H26V63H27V62Z" fill="#351E15"/>
<path d="M30 62H29V63H30V62Z" fill="#351E15"/>
<path d="M31 62H30V63H31V62Z" fill="#351E15"/>
<path d="M34 62H33V63H34V62Z" fill="#351E15"/>
<path d="M35 62H34V63H35V62Z" fill="#351E15"/>
<path d="M38 62H37V63H38V62Z" fill="#351E15"/>
<path d="M39 62H38V63H39V62Z" fill="#351E15"/>
</svg>
