<svg width="64" height="64" viewBox="0 0 64 64" fill="none" xmlns="http://www.w3.org/2000/svg">
<path d="M31 14H30V15H31V14Z" fill="#000539"/>
<path d="M32 14H31V15H32V14Z" fill="#000539"/>
<path d="M33 14H32V15H33V14Z" fill="#000539"/>
<path d="M34 14H33V15H34V14Z" fill="#000539"/>
<path d="M35 14H34V15H35V14Z" fill="#000539"/>
<path d="M36 14H35V15H36V14Z" fill="#000539"/>
<path d="M37 14H36V15H37V14Z" fill="#000539"/>
<path d="M38 14H37V15H38V14Z" fill="#000539"/>
<path d="M30 15H29V16H30V15Z" fill="#000539"/>
<path d="M31 15H30V16H31V15Z" fill="#1664AB"/>
<path d="M32 15H31V16H32V15Z" fill="#1664AB"/>
<path d="M33 15H32V16H33V15Z" fill="#1664AB"/>
<path d="M34 15H33V16H34V15Z" fill="#1664AB"/>
<path d="M35 15H34V16H35V15Z" fill="#1664AB"/>
<path d="M36 15H35V16H36V15Z" fill="#1664AB"/>
<path d="M37 15H36V16H37V15Z" fill="#1664AB"/>
<path d="M38 15H37V16H38V15Z" fill="#1664AB"/>
<path d="M39 15H38V16H39V15Z" fill="#000539"/>
<path d="M29 16H28V17H29V16Z" fill="#000539"/>
<path d="M30 16H29V17H30V16Z" fill="#1664AB"/>
<path d="M31 16H30V17H31V16Z" fill="#1664AB"/>
<path d="M32 16H31V17H32V16Z" fill="#1664AB"/>
<path d="M33 16H32V17H33V16Z" fill="#000A77"/>
<path d="M34 16H33V17H34V16Z" fill="#000A77"/>
<path d="M35 16H34V17H35V16Z" fill="#000A77"/>
<path d="M36 16H35V17H36V16Z" fill="#000A77"/>
<path d="M37 16H36V17H37V16Z" fill="#000A77"/>
<path d="M38 16H37V17H38V16Z" fill="#1664AB"/>
<path d="M39 16H38V17H39V16Z" fill="#1664AB"/>
<path d="M40 16H39V17H40V16Z" fill="#000539"/>
<path d="M28 17H27V18H28V17Z" fill="#000539"/>
<path d="M29 17H28V18H29V17Z" fill="#1664AB"/>
<path d="M30 17H29V18H30V17Z" fill="#1664AB"/>
<path d="M31 17H30V18H31V17Z" fill="#000A77"/>
<path d="M32 17H31V18H32V17Z" fill="#000A77"/>
<path d="M33 17H32V18H33V17Z" fill="#000A77"/>
<path d="M34 17H33V18H34V17Z" fill="#000A77"/>
<path d="M35 17H34V18H35V17Z" fill="#000754"/>
<path d="M36 17H35V18H36V17Z" fill="#000754"/>
<path d="M37 17H36V18H37V17Z" fill="#000A77"/>
<path d="M38 17H37V18H38V17Z" fill="#000A77"/>
<path d="M39 17H38V18H39V17Z" fill="#1664AB"/>
<path d="M40 17H39V18H40V17Z" fill="#1664AB"/>
<path d="M41 17H40V18H41V17Z" fill="#000539"/>
<path d="M28 18H27V19H28V18Z" fill="#000539"/>
<path d="M29 18H28V19H29V18Z" fill="#1664AB"/>
<path d="M30 18H29V19H30V18Z" fill="#000A77"/>
<path d="M31 18H30V19H31V18Z" fill="#000A77"/>
<path d="M32 18H31V19H32V18Z" fill="#000754"/>
<path d="M33 18H32V19H33V18Z" fill="#000754"/>
<path d="M34 18H33V19H34V18Z" fill="#000754"/>
<path d="M35 18H34V19H35V18Z" fill="#000754"/>
<path d="M36 18H35V19H36V18Z" fill="#000754"/>
<path d="M37 18H36V19H37V18Z" fill="#000754"/>
<path d="M38 18H37V19H38V18Z" fill="#000754"/>
<path d="M39 18H38V19H39V18Z" fill="#000A77"/>
<path d="M40 18H39V19H40V18Z" fill="#1664AB"/>
<path d="M41 18H40V19H41V18Z" fill="#000539"/>
<path d="M28 19H27V20H28V19Z" fill="#000539"/>
<path d="M29 19H28V20H29V19Z" fill="#000A77"/>
<path d="M30 19H29V20H30V19Z" fill="#000A77"/>
<path d="M31 19H30V20H31V19Z" fill="#000754"/>
<path d="M32 19H31V20H32V19Z" fill="#000754"/>
<path d="M33 19H32V20H33V19Z" fill="#000754"/>
<path d="M34 19H33V20H34V19Z" fill="#000754"/>
<path d="M35 19H34V20H35V19Z" fill="#000754"/>
<path d="M36 19H35V20H36V19Z" fill="#000754"/>
<path d="M37 19H36V20H37V19Z" fill="#000754"/>
<path d="M38 19H37V20H38V19Z" fill="#000754"/>
<path d="M39 19H38V20H39V19Z" fill="#000A77"/>
<path d="M40 19H39V20H40V19Z" fill="#000A77"/>
<path d="M41 19H40V20H41V19Z" fill="#000539"/>
<path d="M28 20H27V21H28V20Z" fill="#000539"/>
<path d="M29 20H28V21H29V20Z" fill="#000754"/>
<path d="M30 20H29V21H30V20Z" fill="#000754"/>
<path d="M31 20H30V21H31V20Z" fill="#000754"/>
<path d="M32 20H31V21H32V20Z" fill="#000754"/>
<path d="M33 20H32V21H33V20Z" fill="#000754"/>
<path d="M34 20H33V21H34V20Z" fill="#000754"/>
<path d="M35 20H34V21H35V20Z" fill="#000754"/>
<path d="M36 20H35V21H36V20Z" fill="#000754"/>
<path d="M37 20H36V21H37V20Z" fill="#000754"/>
<path d="M38 20H37V21H38V20Z" fill="#000754"/>
<path d="M39 20H38V21H39V20Z" fill="#000754"/>
<path d="M40 20H39V21H40V20Z" fill="#000A77"/>
<path d="M41 20H40V21H41V20Z" fill="#000539"/>
<path d="M28 21H27V22H28V21Z" fill="#000539"/>
<path d="M29 21H28V22H29V21Z" fill="#000754"/>
<path d="M30 21H29V22H30V21Z" fill="#000539"/>
<path d="M31 21H30V22H31V21Z" fill="#000539"/>
<path d="M32 21H31V22H32V21Z" fill="#000539"/>
<path d="M33 21H32V22H33V21Z" fill="#000539"/>
<path d="M34 21H33V22H34V21Z" fill="#000539"/>
<path d="M35 21H34V22H35V21Z" fill="#000539"/>
<path d="M36 21H35V22H36V21Z" fill="#000754"/>
<path d="M37 21H36V22H37V21Z" fill="#000754"/>
<path d="M38 21H37V22H38V21Z" fill="#000539"/>
<path d="M39 21H38V22H39V21Z" fill="#000754"/>
<path d="M40 21H39V22H40V21Z" fill="#000754"/>
<path d="M41 21H40V22H41V21Z" fill="#000539"/>
<path d="M29 22H28V23H29V22Z" fill="#000539"/>
<path d="M30 22H29V23H30V22Z" fill="#A37647"/>
<path d="M31 22H30V23H31V22Z" fill="#A37647"/>
<path d="M32 22H31V23H32V22Z" fill="#A37647"/>
<path d="M33 22H32V23H33V22Z" fill="#A37647"/>
<path d="M34 22H33V23H34V22Z" fill="#A37647"/>
<path d="M35 22H34V23H35V22Z" fill="#000539"/>
<path d="M36 22H35V23H36V22Z" fill="#000754"/>
<path d="M37 22H36V23H37V22Z" fill="#000754"/>
<path d="M38 22H37V23H38V22Z" fill="#000539"/>
<path d="M39 22H38V23H39V22Z" fill="#000539"/>
<path d="M40 22H39V23H40V22Z" fill="#000539"/>
<path d="M29 23H28V24H29V23Z" fill="#000539"/>
<path d="M30 23H29V24H30V23Z" fill="#A37647"/>
<path d="M31 23H30V24H31V23Z" fill="#A37647"/>
<path d="M32 23H31V24H32V23Z" fill="#A37647"/>
<path d="M33 23H32V24H33V23Z" fill="#A37647"/>
<path d="M34 23H33V24H34V23Z" fill="#A37647"/>
<path d="M35 23H34V24H35V23Z" fill="#000539"/>
<path d="M36 23H35V24H36V23Z" fill="#000539"/>
<path d="M37 23H36V24H37V23Z" fill="#000539"/>
<path d="M38 23H37V24H38V23Z" fill="#A37647"/>
<path d="M39 23H38V24H39V23Z" fill="#A37647"/>
<path d="M40 23H39V24H40V23Z" fill="#000539"/>
<path d="M29 24H28V25H29V24Z" fill="#000539"/>
<path d="M30 24H29V25H30V24Z" fill="#000539"/>
<path d="M31 24H30V25H31V24Z" fill="#FFE4C8"/>
<path d="M32 24H31V25H32V24Z" fill="#FBCFA0"/>
<path d="M33 24H32V25H33V24Z" fill="#FBCFA0"/>
<path d="M34 24H33V25H34V24Z" fill="#FBCFA0"/>
<path d="M35 24H34V25H35V24Z" fill="#A37647"/>
<path d="M36 24H35V25H36V24Z" fill="#A37647"/>
<path d="M37 24H36V25H37V24Z" fill="#A37647"/>
<path d="M38 24H37V25H38V24Z" fill="#FBCFA0"/>
<path d="M39 24H38V25H39V24Z" fill="#000539"/>
<path d="M40 24H39V25H40V24Z" fill="#000539"/>
<path d="M30 25H29V26H30V25Z" fill="#000539"/>
<path d="M31 25H30V26H31V25Z" fill="#000539"/>
<path d="M32 25H31V26H32V25Z" fill="#FFE4C8"/>
<path d="M33 25H32V26H33V25Z" fill="#FBCFA0"/>
<path d="M34 25H33V26H34V25Z" fill="#FBCFA0"/>
<path d="M35 25H34V26H35V25Z" fill="#FBCFA0"/>
<path d="M36 25H35V26H36V25Z" fill="#FBCFA0"/>
<path d="M37 25H36V26H37V25Z" fill="#FBCFA0"/>
<path d="M38 25H37V26H38V25Z" fill="#000539"/>
<path d="M39 25H38V26H39V25Z" fill="#000539"/>
<path d="M31 26H30V27H31V26Z" fill="#000539"/>
<path d="M32 26H31V27H32V26Z" fill="#000539"/>
<path d="M33 26H32V27H33V26Z" fill="#000539"/>
<path d="M34 26H33V27H34V26Z" fill="#000539"/>
<path d="M35 26H34V27H35V26Z" fill="#000539"/>
<path d="M36 26H35V27H36V26Z" fill="#000539"/>
<path d="M37 26H36V27H37V26Z" fill="#000539"/>
<path d="M38 26H37V27H38V26Z" fill="#000539"/>
<path d="M32 27H31V28H32V27Z" fill="#000539"/>
<path d="M33 27H32V28H33V27Z" fill="#000754"/>
<path d="M34 27H33V28H34V27Z" fill="#000754"/>
<path d="M35 27H34V28H35V27Z" fill="#000754"/>
<path d="M36 27H35V28H36V27Z" fill="#000754"/>
<path d="M37 27H36V28H37V27Z" fill="#000539"/>
<path d="M31 28H30V29H31V28Z" fill="#000539"/>
<path d="M32 28H31V29H32V28Z" fill="#000539"/>
<path d="M33 28H32V29H33V28Z" fill="#000A77"/>
<path d="M34 28H33V29H34V28Z" fill="#000A77"/>
<path d="M35 28H34V29H35V28Z" fill="#000A77"/>
<path d="M36 28H35V29H36V28Z" fill="#000A77"/>
<path d="M37 28H36V29H37V28Z" fill="#000539"/>
<path d="M31 29H30V30H31V29Z" fill="#000539"/>
<path d="M32 29H31V30H32V29Z" fill="#000A77"/>
<path d="M33 29H32V30H33V29Z" fill="#000A77"/>
<path d="M34 29H33V30H34V29Z" fill="#000A77"/>
<path d="M35 29H34V30H35V29Z" fill="#000A77"/>
<path d="M36 29H35V30H36V29Z" fill="#000A77"/>
<path d="M37 29H36V30H37V29Z" fill="#000539"/>
<path d="M38 29H37V30H38V29Z" fill="#000539"/>
<path d="M31 30H30V31H31V30Z" fill="#000539"/>
<path d="M32 30H31V31H32V30Z" fill="#4B53AB"/>
<path d="M33 30H32V31H33V30Z" fill="#4B53AB"/>
<path d="M34 30H33V31H34V30Z" fill="#000A77"/>
<path d="M35 30H34V31H35V30Z" fill="#000A77"/>
<path d="M36 30H35V31H36V30Z" fill="#000A77"/>
<path d="M37 30H36V31H37V30Z" fill="#000A77"/>
<path d="M38 30H37V31H38V30Z" fill="#000539"/>
<path d="M31 31H30V32H31V31Z" fill="#000539"/>
<path d="M32 31H31V32H32V31Z" fill="#000A77"/>
<path d="M33 31H32V32H33V31Z" fill="#000539"/>
<path d="M34 31H33V32H34V31Z" fill="#000A77"/>
<path d="M35 31H34V32H35V31Z" fill="#000A77"/>
<path d="M36 31H35V32H36V31Z" fill="#000A77"/>
<path d="M37 31H36V32H37V31Z" fill="#000A77"/>
<path d="M38 31H37V32H38V31Z" fill="#000539"/>
<path d="M31 32H30V33H31V32Z" fill="#000539"/>
<path d="M32 32H31V33H32V32Z" fill="#00074F"/>
<path d="M33 32H32V33H33V32Z" fill="#000539"/>
<path d="M34 32H33V33H34V32Z" fill="#00074F"/>
<path d="M35 32H34V33H35V32Z" fill="#00074F"/>
<path d="M36 32H35V33H36V32Z" fill="#00074F"/>
<path d="M37 32H36V33H37V32Z" fill="#00074F"/>
<path d="M38 32H37V33H38V32Z" fill="#000539"/>
<path d="M31 33H30V34H31V33Z" fill="#000539"/>
<path d="M32 33H31V34H32V33Z" fill="#00074F"/>
<path d="M33 33H32V34H33V33Z" fill="#000539"/>
<path d="M34 33H33V34H34V33Z" fill="#00074F"/>
<path d="M35 33H34V34H35V33Z" fill="#00074F"/>
<path d="M36 33H35V34H36V33Z" fill="#00074F"/>
<path d="M37 33H36V34H37V33Z" fill="#00074F"/>
<path d="M38 33H37V34H38V33Z" fill="#000539"/>
<path d="M31 34H30V35H31V34Z" fill="#000539"/>
<path d="M32 34H31V35H32V34Z" fill="#00074F"/>
<path d="M33 34H32V35H33V34Z" fill="#000539"/>
<path d="M34 34H33V35H34V34Z" fill="#C64500"/>
<path d="M35 34H34V35H35V34Z" fill="#C64500"/>
<path d="M36 34H35V35H36V34Z" fill="#C64500"/>
<path d="M37 34H36V35H37V34Z" fill="#C64500"/>
<path d="M38 34H37V35H38V34Z" fill="#000539"/>
<path d="M31 35H30V36H31V35Z" fill="#000539"/>
<path d="M32 35H31V36H32V35Z" fill="#00074F"/>
<path d="M33 35H32V36H33V35Z" fill="#000539"/>
<path d="M34 35H33V36H34V35Z" fill="#C64500"/>
<path d="M35 35H34V36H35V35Z" fill="#C64500"/>
<path d="M36 35H35V36H36V35Z" fill="#C64500"/>
<path d="M37 35H36V36H37V35Z" fill="#C64500"/>
<path d="M38 35H37V36H38V35Z" fill="#000539"/>
<path d="M31 36H30V37H31V36Z" fill="#000539"/>
<path d="M32 36H31V37H32V36Z" fill="#00074F"/>
<path d="M33 36H32V37H33V36Z" fill="#000539"/>
<path d="M34 36H33V37H34V36Z" fill="#C64500"/>
<path d="M35 36H34V37H35V36Z" fill="#C64500"/>
<path d="M36 36H35V37H36V36Z" fill="#C64500"/>
<path d="M37 36H36V37H37V36Z" fill="#C64500"/>
<path d="M38 36H37V37H38V36Z" fill="#000539"/>
<path d="M31 37H30V38H31V37Z" fill="#000539"/>
<path d="M32 37H31V38H32V37Z" fill="#000A77"/>
<path d="M33 37H32V38H33V37Z" fill="#000539"/>
<path d="M34 37H33V38H34V37Z" fill="#000A77"/>
<path d="M35 37H34V38H35V37Z" fill="#000A77"/>
<path d="M36 37H35V38H36V37Z" fill="#000A77"/>
<path d="M37 37H36V38H37V37Z" fill="#000A77"/>
<path d="M38 37H37V38H38V37Z" fill="#000539"/>
<path d="M31 38H30V39H31V38Z" fill="#000539"/>
<path d="M32 38H31V39H32V38Z" fill="#000A77"/>
<path d="M33 38H32V39H33V38Z" fill="#000539"/>
<path d="M34 38H33V39H34V38Z" fill="#000A77"/>
<path d="M35 38H34V39H35V38Z" fill="#000A77"/>
<path d="M36 38H35V39H36V38Z" fill="#000A77"/>
<path d="M37 38H36V39H37V38Z" fill="#000A77"/>
<path d="M38 38H37V39H38V38Z" fill="#000539"/>
<path d="M31 39H30V40H31V39Z" fill="#000539"/>
<path d="M32 39H31V40H32V39Z" fill="#000A77"/>
<path d="M33 39H32V40H33V39Z" fill="#000539"/>
<path d="M34 39H33V40H34V39Z" fill="#000A77"/>
<path d="M35 39H34V40H35V39Z" fill="#000A77"/>
<path d="M36 39H35V40H36V39Z" fill="#000A77"/>
<path d="M37 39H36V40H37V39Z" fill="#000A77"/>
<path d="M38 39H37V40H38V39Z" fill="#000539"/>
<path d="M31 40H30V41H31V40Z" fill="#000539"/>
<path d="M32 40H31V41H32V40Z" fill="#000A77"/>
<path d="M33 40H32V41H33V40Z" fill="#000539"/>
<path d="M34 40H33V41H34V40Z" fill="#000A77"/>
<path d="M35 40H34V41H35V40Z" fill="#000A77"/>
<path d="M36 40H35V41H36V40Z" fill="#000A77"/>
<path d="M37 40H36V41H37V40Z" fill="#000A77"/>
<path d="M38 40H37V41H38V40Z" fill="#000539"/>
<path d="M32 41H31V42H32V41Z" fill="#000539"/>
<path d="M33 41H32V42H33V41Z" fill="#000539"/>
<path d="M34 41H33V42H34V41Z" fill="#000539"/>
<path d="M35 41H34V42H35V41Z" fill="#000539"/>
<path d="M36 41H35V42H36V41Z" fill="#000539"/>
<path d="M37 41H36V42H37V41Z" fill="#000539"/>
<path d="M38 41H37V42H38V41Z" fill="#000539"/>
<path d="M25 42H24V43H25V42Z" fill="#0E0F1A"/>
<path d="M26 42H25V43H26V42Z" fill="#0E0F1A"/>
<path d="M27 42H26V43H27V42Z" fill="#0E0F1A"/>
<path d="M28 42H27V43H28V42Z" fill="#0E0F1A"/>
<path d="M29 42H28V43H29V42Z" fill="#0E0F1A"/>
<path d="M30 42H29V43H30V42Z" fill="#0E0F1A"/>
<path d="M31 42H30V43H31V42Z" fill="#0E0F1A"/>
<path d="M32 42H31V43H32V42Z" fill="#0E0F1A"/>
<path d="M33 42H32V43H33V42Z" fill="#0E0F1A"/>
<path d="M34 42H33V43H34V42Z" fill="#000539"/>
<path d="M35 42H34V43H35V42Z" fill="#A37647"/>
<path d="M36 42H35V43H36V42Z" fill="#A37647"/>
<path d="M37 42H36V43H37V42Z" fill="#000539"/>
<path d="M38 42H37V43H38V42Z" fill="#000539"/>
<path d="M39 42H38V43H39V42Z" fill="#0E0F1A"/>
<path d="M40 42H39V43H40V42Z" fill="#0E0F1A"/>
<path d="M25 43H24V44H25V43Z" fill="#0E0F1A"/>
<path d="M26 43H25V44H26V43Z" fill="#0E0F1A"/>
<path d="M27 43H26V44H27V43Z" fill="#0E0F1A"/>
<path d="M28 43H27V44H28V43Z" fill="#0E0F1A"/>
<path d="M29 43H28V44H29V43Z" fill="#0E0F1A"/>
<path d="M30 43H29V44H30V43Z" fill="#0E0F1A"/>
<path d="M31 43H30V44H31V43Z" fill="#0E0F1A"/>
<path d="M32 43H31V44H32V43Z" fill="#0E0F1A"/>
<path d="M33 43H32V44H33V43Z" fill="#0E0F1A"/>
<path d="M34 43H33V44H34V43Z" fill="#000539"/>
<path d="M35 43H34V44H35V43Z" fill="#FBCFA0"/>
<path d="M36 43H35V44H36V43Z" fill="#FBCFA0"/>
<path d="M37 43H36V44H37V43Z" fill="#000539"/>
<path d="M38 43H37V44H38V43Z" fill="#000539"/>
<path d="M39 43H38V44H39V43Z" fill="#0E0F1A"/>
<path d="M40 43H39V44H40V43Z" fill="#0E0F1A"/>
<path d="M32 44H31V45H32V44Z" fill="#000539"/>
<path d="M33 44H32V45H33V44Z" fill="#000754"/>
<path d="M34 44H33V45H34V44Z" fill="#000539"/>
<path d="M35 44H34V45H35V44Z" fill="#000539"/>
<path d="M36 44H35V45H36V44Z" fill="#000539"/>
<path d="M37 44H36V45H37V44Z" fill="#000539"/>
<path d="M32 45H31V46H32V45Z" fill="#000539"/>
<path d="M33 45H32V46H33V45Z" fill="#000754"/>
<path d="M34 45H33V46H34V45Z" fill="#0E0F1A"/>
<path d="M35 45H34V46H35V45Z" fill="#0E0F1A"/>
<path d="M36 45H35V46H36V45Z" fill="#000754"/>
<path d="M37 45H36V46H37V45Z" fill="#000539"/>
<path d="M32 46H31V47H32V46Z" fill="#000539"/>
<path d="M33 46H32V47H33V46Z" fill="#000A77"/>
<path d="M34 46H33V47H34V46Z" fill="#000A77"/>
<path d="M35 46H34V47H35V46Z" fill="#000A77"/>
<path d="M36 46H35V47H36V46Z" fill="#000A77"/>
<path d="M37 46H36V47H37V46Z" fill="#000539"/>
<path d="M32 47H31V48H32V47Z" fill="#000539"/>
<path d="M33 47H32V48H33V47Z" fill="#000539"/>
<path d="M34 47H33V48H34V47Z" fill="#000539"/>
<path d="M35 47H34V48H35V47Z" fill="#000539"/>
<path d="M36 47H35V48H36V47Z" fill="#000539"/>
<path d="M37 47H36V48H37V47Z" fill="#000539"/>
<path d="M32 48H31V49H32V48Z" fill="#000539"/>
<path d="M33 48H32V49H33V48Z" fill="#000642"/>
<path d="M34 48H33V49H34V48Z" fill="#000642"/>
<path d="M35 48H34V49H35V48Z" fill="#000642"/>
<path d="M36 48H35V49H36V48Z" fill="#000642"/>
<path d="M37 48H36V49H37V48Z" fill="#000539"/>
<path d="M29 49H28V50H29V49Z" fill="#000539"/>
<path d="M30 49H29V50H30V49Z" fill="#000539"/>
<path d="M31 49H30V50H31V49Z" fill="#000539"/>
<path d="M32 49H31V50H32V49Z" fill="#000539"/>
<path d="M33 49H32V50H33V49Z" fill="#00074F"/>
<path d="M34 49H33V50H34V49Z" fill="#00074F"/>
<path d="M35 49H34V50H35V49Z" fill="#00074F"/>
<path d="M36 49H35V50H36V49Z" fill="#00074F"/>
<path d="M37 49H36V50H37V49Z" fill="#000539"/>
<path d="M29 50H28V51H29V50Z" fill="#000539"/>
<path d="M30 50H29V51H30V50Z" fill="#00074F"/>
<path d="M31 50H30V51H31V50Z" fill="#00074F"/>
<path d="M32 50H31V51H32V50Z" fill="#00074F"/>
<path d="M33 50H32V51H33V50Z" fill="#00074F"/>
<path d="M34 50H33V51H34V50Z" fill="#00074F"/>
<path d="M35 50H34V51H35V50Z" fill="#00074F"/>
<path d="M36 50H35V51H36V50Z" fill="#00074F"/>
<path d="M37 50H36V51H37V50Z" fill="#000539"/>
<path d="M29 51H28V52H29V51Z" fill="#000539"/>
<path d="M30 51H29V52H30V51Z" fill="#000539"/>
<path d="M31 51H30V52H31V51Z" fill="#000539"/>
<path d="M32 51H31V52H32V51Z" fill="#000539"/>
<path d="M33 51H32V52H33V51Z" fill="#000539"/>
<path d="M34 51H33V52H34V51Z" fill="#000539"/>
<path d="M35 51H34V52H35V51Z" fill="#000539"/>
<path d="M36 51H35V52H36V51Z" fill="#000539"/>
<path d="M37 51H36V52H37V51Z" fill="#000539"/>
</svg>
