<svg width="64" height="64" viewBox="0 0 64 64" fill="none" xmlns="http://www.w3.org/2000/svg">
<path d="M32 2H31V3H32V2Z" fill="#122C1A"/>
<path d="M33 2H32V3H33V2Z" fill="#122C1A"/>
<path d="M31 3H30V4H31V3Z" fill="#122C1A"/>
<path d="M32 3H31V4H32V3Z" fill="#5ACF83"/>
<path d="M33 3H32V4H33V3Z" fill="#5ACF83"/>
<path d="M34 3H33V4H34V3Z" fill="#122C1A"/>
<path d="M31 4H30V5H31V4Z" fill="#122C1A"/>
<path d="M32 4H31V5H32V4Z" fill="#5ACF83"/>
<path d="M33 4H32V5H33V4Z" fill="#5ACF83"/>
<path d="M34 4H33V5H34V4Z" fill="#122C1A"/>
<path d="M30 5H29V6H30V5Z" fill="#122C1A"/>
<path d="M31 5H30V6H31V5Z" fill="#5ACF83"/>
<path d="M32 5H31V6H32V5Z" fill="#5ACF83"/>
<path d="M33 5H32V6H33V5Z" fill="#5ACF83"/>
<path d="M34 5H33V6H34V5Z" fill="#5ACF83"/>
<path d="M35 5H34V6H35V5Z" fill="#122C1A"/>
<path d="M30 6H29V7H30V6Z" fill="#122C1A"/>
<path d="M31 6H30V7H31V6Z" fill="#5ACF83"/>
<path d="M32 6H31V7H32V6Z" fill="#5ACF83"/>
<path d="M33 6H32V7H33V6Z" fill="#5ACF83"/>
<path d="M34 6H33V7H34V6Z" fill="#5ACF83"/>
<path d="M35 6H34V7H35V6Z" fill="#122C1A"/>
<path d="M29 7H28V8H29V7Z" fill="#122C1A"/>
<path d="M30 7H29V8H30V7Z" fill="#5ACF83"/>
<path d="M31 7H30V8H31V7Z" fill="#5ACF83"/>
<path d="M32 7H31V8H32V7Z" fill="#4EB472"/>
<path d="M33 7H32V8H33V7Z" fill="#4EB472"/>
<path d="M34 7H33V8H34V7Z" fill="#5ACF83"/>
<path d="M35 7H34V8H35V7Z" fill="#5ACF83"/>
<path d="M36 7H35V8H36V7Z" fill="#122C1A"/>
<path d="M29 8H28V9H29V8Z" fill="#122C1A"/>
<path d="M30 8H29V9H30V8Z" fill="#5ACF83"/>
<path d="M31 8H30V9H31V8Z" fill="#5ACF83"/>
<path d="M32 8H31V9H32V8Z" fill="#4EB472"/>
<path d="M33 8H32V9H33V8Z" fill="#4EB472"/>
<path d="M34 8H33V9H34V8Z" fill="#5ACF83"/>
<path d="M35 8H34V9H35V8Z" fill="#5ACF83"/>
<path d="M36 8H35V9H36V8Z" fill="#122C1A"/>
<path d="M28 9H27V10H28V9Z" fill="#122C1A"/>
<path d="M29 9H28V10H29V9Z" fill="#5ACF83"/>
<path d="M30 9H29V10H30V9Z" fill="#5ACF83"/>
<path d="M31 9H30V10H31V9Z" fill="#4EB472"/>
<path d="M32 9H31V10H32V9Z" fill="#4EB472"/>
<path d="M33 9H32V10H33V9Z" fill="#4EB472"/>
<path d="M34 9H33V10H34V9Z" fill="#4EB472"/>
<path d="M35 9H34V10H35V9Z" fill="#5ACF83"/>
<path d="M36 9H35V10H36V9Z" fill="#5ACF83"/>
<path d="M37 9H36V10H37V9Z" fill="#122C1A"/>
<path d="M28 10H27V11H28V10Z" fill="#122C1A"/>
<path d="M29 10H28V11H29V10Z" fill="#5ACF83"/>
<path d="M30 10H29V11H30V10Z" fill="#5ACF83"/>
<path d="M31 10H30V11H31V10Z" fill="#4EB472"/>
<path d="M32 10H31V11H32V10Z" fill="#4EB472"/>
<path d="M33 10H32V11H33V10Z" fill="#4EB472"/>
<path d="M34 10H33V11H34V10Z" fill="#4EB472"/>
<path d="M35 10H34V11H35V10Z" fill="#5ACF83"/>
<path d="M36 10H35V11H36V10Z" fill="#5ACF83"/>
<path d="M37 10H36V11H37V10Z" fill="#122C1A"/>
<path d="M27 11H26V12H27V11Z" fill="#122C1A"/>
<path d="M28 11H27V12H28V11Z" fill="#5ACF83"/>
<path d="M29 11H28V12H29V11Z" fill="#5ACF83"/>
<path d="M30 11H29V12H30V11Z" fill="#4EB472"/>
<path d="M31 11H30V12H31V11Z" fill="#4EB472"/>
<path d="M32 11H31V12H32V11Z" fill="#4EB472"/>
<path d="M33 11H32V12H33V11Z" fill="#4EB472"/>
<path d="M34 11H33V12H34V11Z" fill="#4EB472"/>
<path d="M35 11H34V12H35V11Z" fill="#4EB472"/>
<path d="M36 11H35V12H36V11Z" fill="#5ACF83"/>
<path d="M37 11H36V12H37V11Z" fill="#5ACF83"/>
<path d="M38 11H37V12H38V11Z" fill="#122C1A"/>
<path d="M27 12H26V13H27V12Z" fill="#122C1A"/>
<path d="M28 12H27V13H28V12Z" fill="#5ACF83"/>
<path d="M29 12H28V13H29V12Z" fill="#5ACF83"/>
<path d="M30 12H29V13H30V12Z" fill="#4EB472"/>
<path d="M31 12H30V13H31V12Z" fill="#4EB472"/>
<path d="M32 12H31V13H32V12Z" fill="#3DA361"/>
<path d="M33 12H32V13H33V12Z" fill="#3DA361"/>
<path d="M34 12H33V13H34V12Z" fill="#4EB472"/>
<path d="M35 12H34V13H35V12Z" fill="#4EB472"/>
<path d="M36 12H35V13H36V12Z" fill="#5ACF83"/>
<path d="M37 12H36V13H37V12Z" fill="#5ACF83"/>
<path d="M38 12H37V13H38V12Z" fill="#122C1A"/>
<path d="M26 13H25V14H26V13Z" fill="#122C1A"/>
<path d="M27 13H26V14H27V13Z" fill="#5ACF83"/>
<path d="M28 13H27V14H28V13Z" fill="#5ACF83"/>
<path d="M29 13H28V14H29V13Z" fill="#4EB472"/>
<path d="M30 13H29V14H30V13Z" fill="#4EB472"/>
<path d="M31 13H30V14H31V13Z" fill="#4EB472"/>
<path d="M32 13H31V14H32V13Z" fill="#3DA361"/>
<path d="M33 13H32V14H33V13Z" fill="#3DA361"/>
<path d="M34 13H33V14H34V13Z" fill="#4EB472"/>
<path d="M35 13H34V14H35V13Z" fill="#4EB472"/>
<path d="M36 13H35V14H36V13Z" fill="#4EB472"/>
<path d="M37 13H36V14H37V13Z" fill="#5ACF83"/>
<path d="M38 13H37V14H38V13Z" fill="#5ACF83"/>
<path d="M39 13H38V14H39V13Z" fill="#122C1A"/>
<path d="M26 14H25V15H26V14Z" fill="#122C1A"/>
<path d="M27 14H26V15H27V14Z" fill="#5ACF83"/>
<path d="M28 14H27V15H28V14Z" fill="#5ACF83"/>
<path d="M29 14H28V15H29V14Z" fill="#4EB472"/>
<path d="M30 14H29V15H30V14Z" fill="#4EB472"/>
<path d="M31 14H30V15H31V14Z" fill="#3DA361"/>
<path d="M32 14H31V15H32V14Z" fill="#3DA361"/>
<path d="M33 14H32V15H33V14Z" fill="#3DA361"/>
<path d="M34 14H33V15H34V14Z" fill="#3DA361"/>
<path d="M35 14H34V15H35V14Z" fill="#4EB472"/>
<path d="M36 14H35V15H36V14Z" fill="#4EB472"/>
<path d="M37 14H36V15H37V14Z" fill="#5ACF83"/>
<path d="M38 14H37V15H38V14Z" fill="#5ACF83"/>
<path d="M39 14H38V15H39V14Z" fill="#122C1A"/>
<path d="M25 15H24V16H25V15Z" fill="#122C1A"/>
<path d="M26 15H25V16H26V15Z" fill="#5ACF83"/>
<path d="M27 15H26V16H27V15Z" fill="#5ACF83"/>
<path d="M28 15H27V16H28V15Z" fill="#4EB472"/>
<path d="M29 15H28V16H29V15Z" fill="#4EB472"/>
<path d="M30 15H29V16H30V15Z" fill="#3DA361"/>
<path d="M31 15H30V16H31V15Z" fill="#3DA361"/>
<path d="M32 15H31V16H32V15Z" fill="#399158"/>
<path d="M33 15H32V16H33V15Z" fill="#399158"/>
<path d="M34 15H33V16H34V15Z" fill="#3DA361"/>
<path d="M35 15H34V16H35V15Z" fill="#3DA361"/>
<path d="M36 15H35V16H36V15Z" fill="#4EB472"/>
<path d="M37 15H36V16H37V15Z" fill="#4EB472"/>
<path d="M38 15H37V16H38V15Z" fill="#5ACF83"/>
<path d="M39 15H38V16H39V15Z" fill="#5ACF83"/>
<path d="M40 15H39V16H40V15Z" fill="#122C1A"/>
<path d="M25 16H24V17H25V16Z" fill="#122C1A"/>
<path d="M26 16H25V17H26V16Z" fill="#5ACF83"/>
<path d="M27 16H26V17H27V16Z" fill="#5ACF83"/>
<path d="M28 16H27V17H28V16Z" fill="#4EB472"/>
<path d="M29 16H28V17H29V16Z" fill="#4EB472"/>
<path d="M30 16H29V17H30V16Z" fill="#3DA361"/>
<path d="M31 16H30V17H31V16Z" fill="#3DA361"/>
<path d="M32 16H31V17H32V16Z" fill="#399158"/>
<path d="M33 16H32V17H33V16Z" fill="#399158"/>
<path d="M34 16H33V17H34V16Z" fill="#3DA361"/>
<path d="M35 16H34V17H35V16Z" fill="#3DA361"/>
<path d="M36 16H35V17H36V16Z" fill="#4EB472"/>
<path d="M37 16H36V17H37V16Z" fill="#4EB472"/>
<path d="M38 16H37V17H38V16Z" fill="#5ACF83"/>
<path d="M39 16H38V17H39V16Z" fill="#5ACF83"/>
<path d="M40 16H39V17H40V16Z" fill="#122C1A"/>
<path d="M14 17H13V18H14V17Z" fill="#122C1A"/>
<path d="M15 17H14V18H15V17Z" fill="#122C1A"/>
<path d="M16 17H15V18H16V17Z" fill="#122C1A"/>
<path d="M17 17H16V18H17V17Z" fill="#122C1A"/>
<path d="M18 17H17V18H18V17Z" fill="#122C1A"/>
<path d="M19 17H18V18H19V17Z" fill="#122C1A"/>
<path d="M20 17H19V18H20V17Z" fill="#122C1A"/>
<path d="M21 17H20V18H21V17Z" fill="#122C1A"/>
<path d="M22 17H21V18H22V17Z" fill="#122C1A"/>
<path d="M23 17H22V18H23V17Z" fill="#122C1A"/>
<path d="M24 17H23V18H24V17Z" fill="#122C1A"/>
<path d="M25 17H24V18H25V17Z" fill="#5ACF83"/>
<path d="M26 17H25V18H26V17Z" fill="#5ACF83"/>
<path d="M27 17H26V18H27V17Z" fill="#4EB472"/>
<path d="M28 17H27V18H28V17Z" fill="#4EB472"/>
<path d="M29 17H28V18H29V17Z" fill="#4EB472"/>
<path d="M30 17H29V18H30V17Z" fill="#3DA361"/>
<path d="M31 17H30V18H31V17Z" fill="#3DA361"/>
<path d="M32 17H31V18H32V17Z" fill="#399158"/>
<path d="M33 17H32V18H33V17Z" fill="#399158"/>
<path d="M34 17H33V18H34V17Z" fill="#3DA361"/>
<path d="M35 17H34V18H35V17Z" fill="#3DA361"/>
<path d="M36 17H35V18H36V17Z" fill="#4EB472"/>
<path d="M37 17H36V18H37V17Z" fill="#4EB472"/>
<path d="M38 17H37V18H38V17Z" fill="#4EB472"/>
<path d="M39 17H38V18H39V17Z" fill="#5ACF83"/>
<path d="M40 17H39V18H40V17Z" fill="#5ACF83"/>
<path d="M41 17H40V18H41V17Z" fill="#122C1A"/>
<path d="M42 17H41V18H42V17Z" fill="#122C1A"/>
<path d="M43 17H42V18H43V17Z" fill="#122C1A"/>
<path d="M44 17H43V18H44V17Z" fill="#122C1A"/>
<path d="M45 17H44V18H45V17Z" fill="#122C1A"/>
<path d="M46 17H45V18H46V17Z" fill="#122C1A"/>
<path d="M47 17H46V18H47V17Z" fill="#122C1A"/>
<path d="M48 17H47V18H48V17Z" fill="#122C1A"/>
<path d="M49 17H48V18H49V17Z" fill="#122C1A"/>
<path d="M50 17H49V18H50V17Z" fill="#122C1A"/>
<path d="M51 17H50V18H51V17Z" fill="#122C1A"/>
<path d="M15 18H14V19H15V18Z" fill="#122C1A"/>
<path d="M16 18H15V19H16V18Z" fill="#5ACF83"/>
<path d="M17 18H16V19H17V18Z" fill="#5ACF83"/>
<path d="M18 18H17V19H18V18Z" fill="#5ACF83"/>
<path d="M19 18H18V19H19V18Z" fill="#5ACF83"/>
<path d="M20 18H19V19H20V18Z" fill="#5ACF83"/>
<path d="M21 18H20V19H21V18Z" fill="#5ACF83"/>
<path d="M22 18H21V19H22V18Z" fill="#5ACF83"/>
<path d="M23 18H22V19H23V18Z" fill="#5ACF83"/>
<path d="M24 18H23V19H24V18Z" fill="#5ACF83"/>
<path d="M25 18H24V19H25V18Z" fill="#4EB472"/>
<path d="M26 18H25V19H26V18Z" fill="#4EB472"/>
<path d="M27 18H26V19H27V18Z" fill="#4EB472"/>
<path d="M28 18H27V19H28V18Z" fill="#3DA361"/>
<path d="M29 18H28V19H29V18Z" fill="#3DA361"/>
<path d="M30 18H29V19H30V18Z" fill="#3DA361"/>
<path d="M31 18H30V19H31V18Z" fill="#3DA361"/>
<path d="M32 18H31V19H32V18Z" fill="#399158"/>
<path d="M33 18H32V19H33V18Z" fill="#399158"/>
<path d="M34 18H33V19H34V18Z" fill="#3DA361"/>
<path d="M35 18H34V19H35V18Z" fill="#3DA361"/>
<path d="M36 18H35V19H36V18Z" fill="#3DA361"/>
<path d="M37 18H36V19H37V18Z" fill="#3DA361"/>
<path d="M38 18H37V19H38V18Z" fill="#4EB472"/>
<path d="M39 18H38V19H39V18Z" fill="#4EB472"/>
<path d="M40 18H39V19H40V18Z" fill="#4EB472"/>
<path d="M41 18H40V19H41V18Z" fill="#5ACF83"/>
<path d="M42 18H41V19H42V18Z" fill="#5ACF83"/>
<path d="M43 18H42V19H43V18Z" fill="#5ACF83"/>
<path d="M44 18H43V19H44V18Z" fill="#5ACF83"/>
<path d="M45 18H44V19H45V18Z" fill="#5ACF83"/>
<path d="M46 18H45V19H46V18Z" fill="#5ACF83"/>
<path d="M47 18H46V19H47V18Z" fill="#5ACF83"/>
<path d="M48 18H47V19H48V18Z" fill="#5ACF83"/>
<path d="M49 18H48V19H49V18Z" fill="#5ACF83"/>
<path d="M50 18H49V19H50V18Z" fill="#122C1A"/>
<path d="M16 19H15V20H16V19Z" fill="#122C1A"/>
<path d="M17 19H16V20H17V19Z" fill="#5ACF83"/>
<path d="M18 19H17V20H18V19Z" fill="#5ACF83"/>
<path d="M19 19H18V20H19V19Z" fill="#5ACF83"/>
<path d="M20 19H19V20H20V19Z" fill="#5ACF83"/>
<path d="M21 19H20V20H21V19Z" fill="#5ACF83"/>
<path d="M22 19H21V20H22V19Z" fill="#4EB472"/>
<path d="M23 19H22V20H23V19Z" fill="#4EB472"/>
<path d="M24 19H23V20H24V19Z" fill="#4EB472"/>
<path d="M25 19H24V20H25V19Z" fill="#4EB472"/>
<path d="M26 19H25V20H26V19Z" fill="#3DA361"/>
<path d="M27 19H26V20H27V19Z" fill="#3DA361"/>
<path d="M28 19H27V20H28V19Z" fill="#3DA361"/>
<path d="M29 19H28V20H29V19Z" fill="#3DA361"/>
<path d="M30 19H29V20H30V19Z" fill="#3DA361"/>
<path d="M31 19H30V20H31V19Z" fill="#399158"/>
<path d="M32 19H31V20H32V19Z" fill="#399158"/>
<path d="M33 19H32V20H33V19Z" fill="#399158"/>
<path d="M34 19H33V20H34V19Z" fill="#399158"/>
<path d="M35 19H34V20H35V19Z" fill="#3DA361"/>
<path d="M36 19H35V20H36V19Z" fill="#3DA361"/>
<path d="M37 19H36V20H37V19Z" fill="#3DA361"/>
<path d="M38 19H37V20H38V19Z" fill="#3DA361"/>
<path d="M39 19H38V20H39V19Z" fill="#3DA361"/>
<path d="M40 19H39V20H40V19Z" fill="#4EB472"/>
<path d="M41 19H40V20H41V19Z" fill="#4EB472"/>
<path d="M42 19H41V20H42V19Z" fill="#4EB472"/>
<path d="M43 19H42V20H43V19Z" fill="#4EB472"/>
<path d="M44 19H43V20H44V19Z" fill="#5ACF83"/>
<path d="M45 19H44V20H45V19Z" fill="#5ACF83"/>
<path d="M46 19H45V20H46V19Z" fill="#5ACF83"/>
<path d="M47 19H46V20H47V19Z" fill="#5ACF83"/>
<path d="M48 19H47V20H48V19Z" fill="#5ACF83"/>
<path d="M49 19H48V20H49V19Z" fill="#122C1A"/>
<path d="M17 20H16V21H17V20Z" fill="#122C1A"/>
<path d="M18 20H17V21H18V20Z" fill="#122C1A"/>
<path d="M19 20H18V21H19V20Z" fill="#5ACF83"/>
<path d="M20 20H19V21H20V20Z" fill="#4EB472"/>
<path d="M21 20H20V21H21V20Z" fill="#4EB472"/>
<path d="M22 20H21V21H22V20Z" fill="#4EB472"/>
<path d="M23 20H22V21H23V20Z" fill="#3DA361"/>
<path d="M24 20H23V21H24V20Z" fill="#3DA361"/>
<path d="M25 20H24V21H25V20Z" fill="#3DA361"/>
<path d="M26 20H25V21H26V20Z" fill="#3DA361"/>
<path d="M27 20H26V21H27V20Z" fill="#3DA361"/>
<path d="M28 20H27V21H28V20Z" fill="#3DA361"/>
<path d="M29 20H28V21H29V20Z" fill="#3DA361"/>
<path d="M30 20H29V21H30V20Z" fill="#3DA361"/>
<path d="M31 20H30V21H31V20Z" fill="#399158"/>
<path d="M32 20H31V21H32V20Z" fill="#399158"/>
<path d="M33 20H32V21H33V20Z" fill="#399158"/>
<path d="M34 20H33V21H34V20Z" fill="#399158"/>
<path d="M35 20H34V21H35V20Z" fill="#3DA361"/>
<path d="M36 20H35V21H36V20Z" fill="#3DA361"/>
<path d="M37 20H36V21H37V20Z" fill="#3DA361"/>
<path d="M38 20H37V21H38V20Z" fill="#3DA361"/>
<path d="M39 20H38V21H39V20Z" fill="#3DA361"/>
<path d="M40 20H39V21H40V20Z" fill="#3DA361"/>
<path d="M41 20H40V21H41V20Z" fill="#3DA361"/>
<path d="M42 20H41V21H42V20Z" fill="#3DA361"/>
<path d="M43 20H42V21H43V20Z" fill="#4EB472"/>
<path d="M44 20H43V21H44V20Z" fill="#4EB472"/>
<path d="M45 20H44V21H45V20Z" fill="#4EB472"/>
<path d="M46 20H45V21H46V20Z" fill="#5ACF83"/>
<path d="M47 20H46V21H47V20Z" fill="#122C1A"/>
<path d="M48 20H47V21H48V20Z" fill="#122C1A"/>
<path d="M19 21H18V22H19V21Z" fill="#122C1A"/>
<path d="M20 21H19V22H20V21Z" fill="#4EB472"/>
<path d="M21 21H20V22H21V21Z" fill="#4EB472"/>
<path d="M22 21H21V22H22V21Z" fill="#3DA361"/>
<path d="M23 21H22V22H23V21Z" fill="#3DA361"/>
<path d="M24 21H23V22H24V21Z" fill="#3DA361"/>
<path d="M25 21H24V22H25V21Z" fill="#3DA361"/>
<path d="M26 21H25V22H26V21Z" fill="#3DA361"/>
<path d="M27 21H26V22H27V21Z" fill="#3DA361"/>
<path d="M28 21H27V22H28V21Z" fill="#3DA361"/>
<path d="M29 21H28V22H29V21Z" fill="#3DA361"/>
<path d="M30 21H29V22H30V21Z" fill="#399158"/>
<path d="M31 21H30V22H31V21Z" fill="#399158"/>
<path d="M32 21H31V22H32V21Z" fill="#399158"/>
<path d="M33 21H32V22H33V21Z" fill="#399158"/>
<path d="M34 21H33V22H34V21Z" fill="#399158"/>
<path d="M35 21H34V22H35V21Z" fill="#399158"/>
<path d="M36 21H35V22H36V21Z" fill="#3DA361"/>
<path d="M37 21H36V22H37V21Z" fill="#3DA361"/>
<path d="M38 21H37V22H38V21Z" fill="#3DA361"/>
<path d="M39 21H38V22H39V21Z" fill="#3DA361"/>
<path d="M40 21H39V22H40V21Z" fill="#3DA361"/>
<path d="M41 21H40V22H41V21Z" fill="#3DA361"/>
<path d="M42 21H41V22H42V21Z" fill="#3DA361"/>
<path d="M43 21H42V22H43V21Z" fill="#3DA361"/>
<path d="M44 21H43V22H44V21Z" fill="#4EB472"/>
<path d="M45 21H44V22H45V21Z" fill="#4EB472"/>
<path d="M46 21H45V22H46V21Z" fill="#122C1A"/>
<path d="M20 22H19V23H20V22Z" fill="#122C1A"/>
<path d="M21 22H20V23H21V22Z" fill="#122C1A"/>
<path d="M22 22H21V23H22V22Z" fill="#3DA361"/>
<path d="M23 22H22V23H23V22Z" fill="#3DA361"/>
<path d="M24 22H23V23H24V22Z" fill="#399158"/>
<path d="M25 22H24V23H25V22Z" fill="#399158"/>
<path d="M26 22H25V23H26V22Z" fill="#399158"/>
<path d="M27 22H26V23H27V22Z" fill="#399158"/>
<path d="M28 22H27V23H28V22Z" fill="#3DA361"/>
<path d="M29 22H28V23H29V22Z" fill="#3DA361"/>
<path d="M30 22H29V23H30V22Z" fill="#399158"/>
<path d="M31 22H30V23H31V22Z" fill="#399158"/>
<path d="M32 22H31V23H32V22Z" fill="#399158"/>
<path d="M33 22H32V23H33V22Z" fill="#399158"/>
<path d="M34 22H33V23H34V22Z" fill="#399158"/>
<path d="M35 22H34V23H35V22Z" fill="#399158"/>
<path d="M36 22H35V23H36V22Z" fill="#3DA361"/>
<path d="M37 22H36V23H37V22Z" fill="#3DA361"/>
<path d="M38 22H37V23H38V22Z" fill="#399158"/>
<path d="M39 22H38V23H39V22Z" fill="#399158"/>
<path d="M40 22H39V23H40V22Z" fill="#399158"/>
<path d="M41 22H40V23H41V22Z" fill="#399158"/>
<path d="M42 22H41V23H42V22Z" fill="#3DA361"/>
<path d="M43 22H42V23H43V22Z" fill="#3DA361"/>
<path d="M44 22H43V23H44V22Z" fill="#122C1A"/>
<path d="M45 22H44V23H45V22Z" fill="#122C1A"/>
<path d="M21 23H20V24H21V23Z" fill="#122C1A"/>
<path d="M22 23H21V24H22V23Z" fill="#122C1A"/>
<path d="M23 23H22V24H23V23Z" fill="#3DA361"/>
<path d="M24 23H23V24H24V23Z" fill="#3DA361"/>
<path d="M25 23H24V24H25V23Z" fill="#399158"/>
<path d="M26 23H25V24H26V23Z" fill="#399158"/>
<path d="M27 23H26V24H27V23Z" fill="#399158"/>
<path d="M28 23H27V24H28V23Z" fill="#399158"/>
<path d="M29 23H28V24H29V23Z" fill="#399158"/>
<path d="M30 23H29V24H30V23Z" fill="#399158"/>
<path d="M31 23H30V24H31V23Z" fill="#399158"/>
<path d="M32 23H31V24H32V23Z" fill="#399158"/>
<path d="M33 23H32V24H33V23Z" fill="#399158"/>
<path d="M34 23H33V24H34V23Z" fill="#399158"/>
<path d="M35 23H34V24H35V23Z" fill="#399158"/>
<path d="M36 23H35V24H36V23Z" fill="#399158"/>
<path d="M37 23H36V24H37V23Z" fill="#399158"/>
<path d="M38 23H37V24H38V23Z" fill="#399158"/>
<path d="M39 23H38V24H39V23Z" fill="#399158"/>
<path d="M40 23H39V24H40V23Z" fill="#399158"/>
<path d="M41 23H40V24H41V23Z" fill="#3DA361"/>
<path d="M42 23H41V24H42V23Z" fill="#3DA361"/>
<path d="M43 23H42V24H43V23Z" fill="#122C1A"/>
<path d="M44 23H43V24H44V23Z" fill="#122C1A"/>
<path d="M20 24H19V25H20V24Z" fill="#122C1A"/>
<path d="M21 24H20V25H21V24Z" fill="#4EB472"/>
<path d="M22 24H21V25H22V24Z" fill="#4EB472"/>
<path d="M23 24H22V25H23V24Z" fill="#3DA361"/>
<path d="M24 24H23V25H24V24Z" fill="#3DA361"/>
<path d="M25 24H24V25H25V24Z" fill="#3DA361"/>
<path d="M26 24H25V25H26V24Z" fill="#399158"/>
<path d="M27 24H26V25H27V24Z" fill="#399158"/>
<path d="M28 24H27V25H28V24Z" fill="#399158"/>
<path d="M29 24H28V25H29V24Z" fill="#399158"/>
<path d="M30 24H29V25H30V24Z" fill="#399158"/>
<path d="M31 24H30V25H31V24Z" fill="#399158"/>
<path d="M32 24H31V25H32V24Z" fill="#399158"/>
<path d="M33 24H32V25H33V24Z" fill="#399158"/>
<path d="M34 24H33V25H34V24Z" fill="#399158"/>
<path d="M35 24H34V25H35V24Z" fill="#399158"/>
<path d="M36 24H35V25H36V24Z" fill="#399158"/>
<path d="M37 24H36V25H37V24Z" fill="#399158"/>
<path d="M38 24H37V25H38V24Z" fill="#399158"/>
<path d="M39 24H38V25H39V24Z" fill="#399158"/>
<path d="M40 24H39V25H40V24Z" fill="#3DA361"/>
<path d="M41 24H40V25H41V24Z" fill="#3DA361"/>
<path d="M42 24H41V25H42V24Z" fill="#3DA361"/>
<path d="M43 24H42V25H43V24Z" fill="#4EB472"/>
<path d="M44 24H43V25H44V24Z" fill="#4EB472"/>
<path d="M45 24H44V25H45V24Z" fill="#122C1A"/>
<path d="M13 25H12V26H13V25Z" fill="#122C1A"/>
<path d="M14 25H13V26H14V25Z" fill="#122C1A"/>
<path d="M15 25H14V26H15V25Z" fill="#122C1A"/>
<path d="M16 25H15V26H16V25Z" fill="#122C1A"/>
<path d="M17 25H16V26H17V25Z" fill="#122C1A"/>
<path d="M18 25H17V26H18V25Z" fill="#122C1A"/>
<path d="M19 25H18V26H19V25Z" fill="#122C1A"/>
<path d="M20 25H19V26H20V25Z" fill="#4EB472"/>
<path d="M21 25H20V26H21V25Z" fill="#4EB472"/>
<path d="M22 25H21V26H22V25Z" fill="#3DA361"/>
<path d="M23 25H22V26H23V25Z" fill="#3DA361"/>
<path d="M24 25H23V26H24V25Z" fill="#3DA361"/>
<path d="M25 25H24V26H25V25Z" fill="#3DA361"/>
<path d="M26 25H25V26H26V25Z" fill="#3DA361"/>
<path d="M27 25H26V26H27V25Z" fill="#3DA361"/>
<path d="M28 25H27V26H28V25Z" fill="#3DA361"/>
<path d="M29 25H28V26H29V25Z" fill="#399158"/>
<path d="M30 25H29V26H30V25Z" fill="#399158"/>
<path d="M31 25H30V26H31V25Z" fill="#399158"/>
<path d="M32 25H31V26H32V25Z" fill="#399158"/>
<path d="M33 25H32V26H33V25Z" fill="#399158"/>
<path d="M34 25H33V26H34V25Z" fill="#399158"/>
<path d="M35 25H34V26H35V25Z" fill="#399158"/>
<path d="M36 25H35V26H36V25Z" fill="#399158"/>
<path d="M37 25H36V26H37V25Z" fill="#3DA361"/>
<path d="M38 25H37V26H38V25Z" fill="#3DA361"/>
<path d="M39 25H38V26H39V25Z" fill="#3DA361"/>
<path d="M40 25H39V26H40V25Z" fill="#3DA361"/>
<path d="M41 25H40V26H41V25Z" fill="#3DA361"/>
<path d="M42 25H41V26H42V25Z" fill="#3DA361"/>
<path d="M43 25H42V26H43V25Z" fill="#3DA361"/>
<path d="M44 25H43V26H44V25Z" fill="#4EB472"/>
<path d="M45 25H44V26H45V25Z" fill="#4EB472"/>
<path d="M46 25H45V26H46V25Z" fill="#122C1A"/>
<path d="M47 25H46V26H47V25Z" fill="#122C1A"/>
<path d="M48 25H47V26H48V25Z" fill="#122C1A"/>
<path d="M49 25H48V26H49V25Z" fill="#122C1A"/>
<path d="M50 25H49V26H50V25Z" fill="#122C1A"/>
<path d="M51 25H50V26H51V25Z" fill="#122C1A"/>
<path d="M52 25H51V26H52V25Z" fill="#122C1A"/>
<path d="M14 26H13V27H14V26Z" fill="#122C1A"/>
<path d="M15 26H14V27H15V26Z" fill="#5ACF83"/>
<path d="M16 26H15V27H16V26Z" fill="#5ACF83"/>
<path d="M17 26H16V27H17V26Z" fill="#5ACF83"/>
<path d="M18 26H17V27H18V26Z" fill="#5ACF83"/>
<path d="M19 26H18V27H19V26Z" fill="#4EB472"/>
<path d="M20 26H19V27H20V26Z" fill="#4EB472"/>
<path d="M21 26H20V27H21V26Z" fill="#3DA361"/>
<path d="M22 26H21V27H22V26Z" fill="#3DA361"/>
<path d="M23 26H22V27H23V26Z" fill="#3DA361"/>
<path d="M24 26H23V27H24V26Z" fill="#3DA361"/>
<path d="M25 26H24V27H25V26Z" fill="#3DA361"/>
<path d="M26 26H25V27H26V26Z" fill="#3DA361"/>
<path d="M27 26H26V27H27V26Z" fill="#3DA361"/>
<path d="M28 26H27V27H28V26Z" fill="#3DA361"/>
<path d="M29 26H28V27H29V26Z" fill="#3DA361"/>
<path d="M30 26H29V27H30V26Z" fill="#399158"/>
<path d="M31 26H30V27H31V26Z" fill="#399158"/>
<path d="M32 26H31V27H32V26Z" fill="#399158"/>
<path d="M33 26H32V27H33V26Z" fill="#399158"/>
<path d="M34 26H33V27H34V26Z" fill="#399158"/>
<path d="M35 26H34V27H35V26Z" fill="#399158"/>
<path d="M36 26H35V27H36V26Z" fill="#3DA361"/>
<path d="M37 26H36V27H37V26Z" fill="#3DA361"/>
<path d="M38 26H37V27H38V26Z" fill="#3DA361"/>
<path d="M39 26H38V27H39V26Z" fill="#3DA361"/>
<path d="M40 26H39V27H40V26Z" fill="#3DA361"/>
<path d="M41 26H40V27H41V26Z" fill="#3DA361"/>
<path d="M42 26H41V27H42V26Z" fill="#3DA361"/>
<path d="M43 26H42V27H43V26Z" fill="#3DA361"/>
<path d="M44 26H43V27H44V26Z" fill="#3DA361"/>
<path d="M45 26H44V27H45V26Z" fill="#4EB472"/>
<path d="M46 26H45V27H46V26Z" fill="#4EB472"/>
<path d="M47 26H46V27H47V26Z" fill="#5ACF83"/>
<path d="M48 26H47V27H48V26Z" fill="#5ACF83"/>
<path d="M49 26H48V27H49V26Z" fill="#5ACF83"/>
<path d="M50 26H49V27H50V26Z" fill="#5ACF83"/>
<path d="M51 26H50V27H51V26Z" fill="#122C1A"/>
<path d="M14 27H13V28H14V27Z" fill="#122C1A"/>
<path d="M15 27H14V28H15V27Z" fill="#5ACF83"/>
<path d="M16 27H15V28H16V27Z" fill="#5ACF83"/>
<path d="M17 27H16V28H17V27Z" fill="#5ACF83"/>
<path d="M18 27H17V28H18V27Z" fill="#4EB472"/>
<path d="M19 27H18V28H19V27Z" fill="#4EB472"/>
<path d="M20 27H19V28H20V27Z" fill="#3DA361"/>
<path d="M21 27H20V28H21V27Z" fill="#3DA361"/>
<path d="M22 27H21V28H22V27Z" fill="#3DA361"/>
<path d="M23 27H22V28H23V27Z" fill="#3DA361"/>
<path d="M24 27H23V28H24V27Z" fill="#399158"/>
<path d="M25 27H24V28H25V27Z" fill="#399158"/>
<path d="M26 27H25V28H26V27Z" fill="#399158"/>
<path d="M27 27H26V28H27V27Z" fill="#399158"/>
<path d="M28 27H27V28H28V27Z" fill="#399158"/>
<path d="M29 27H28V28H29V27Z" fill="#399158"/>
<path d="M30 27H29V28H30V27Z" fill="#399158"/>
<path d="M31 27H30V28H31V27Z" fill="#399158"/>
<path d="M32 27H31V28H32V27Z" fill="#399158"/>
<path d="M33 27H32V28H33V27Z" fill="#399158"/>
<path d="M34 27H33V28H34V27Z" fill="#399158"/>
<path d="M35 27H34V28H35V27Z" fill="#399158"/>
<path d="M36 27H35V28H36V27Z" fill="#399158"/>
<path d="M37 27H36V28H37V27Z" fill="#399158"/>
<path d="M38 27H37V28H38V27Z" fill="#399158"/>
<path d="M39 27H38V28H39V27Z" fill="#399158"/>
<path d="M40 27H39V28H40V27Z" fill="#399158"/>
<path d="M41 27H40V28H41V27Z" fill="#399158"/>
<path d="M42 27H41V28H42V27Z" fill="#3DA361"/>
<path d="M43 27H42V28H43V27Z" fill="#3DA361"/>
<path d="M44 27H43V28H44V27Z" fill="#3DA361"/>
<path d="M45 27H44V28H45V27Z" fill="#3DA361"/>
<path d="M46 27H45V28H46V27Z" fill="#4EB472"/>
<path d="M47 27H46V28H47V27Z" fill="#4EB472"/>
<path d="M48 27H47V28H48V27Z" fill="#5ACF83"/>
<path d="M49 27H48V28H49V27Z" fill="#5ACF83"/>
<path d="M50 27H49V28H50V27Z" fill="#5ACF83"/>
<path d="M51 27H50V28H51V27Z" fill="#122C1A"/>
<path d="M15 28H14V29H15V28Z" fill="#122C1A"/>
<path d="M16 28H15V29H16V28Z" fill="#4EB472"/>
<path d="M17 28H16V29H17V28Z" fill="#4EB472"/>
<path d="M18 28H17V29H18V28Z" fill="#4EB472"/>
<path d="M19 28H18V29H19V28Z" fill="#3DA361"/>
<path d="M20 28H19V29H20V28Z" fill="#3DA361"/>
<path d="M21 28H20V29H21V28Z" fill="#3DA361"/>
<path d="M22 28H21V29H22V28Z" fill="#3DA361"/>
<path d="M23 28H22V29H23V28Z" fill="#3DA361"/>
<path d="M24 28H23V29H24V28Z" fill="#3DA361"/>
<path d="M25 28H24V29H25V28Z" fill="#3DA361"/>
<path d="M26 28H25V29H26V28Z" fill="#3DA361"/>
<path d="M27 28H26V29H27V28Z" fill="#3DA361"/>
<path d="M28 28H27V29H28V28Z" fill="#399158"/>
<path d="M29 28H28V29H29V28Z" fill="#399158"/>
<path d="M30 28H29V29H30V28Z" fill="#399158"/>
<path d="M31 28H30V29H31V28Z" fill="#399158"/>
<path d="M32 28H31V29H32V28Z" fill="#399158"/>
<path d="M33 28H32V29H33V28Z" fill="#399158"/>
<path d="M34 28H33V29H34V28Z" fill="#399158"/>
<path d="M35 28H34V29H35V28Z" fill="#399158"/>
<path d="M36 28H35V29H36V28Z" fill="#399158"/>
<path d="M37 28H36V29H37V28Z" fill="#399158"/>
<path d="M38 28H37V29H38V28Z" fill="#3DA361"/>
<path d="M39 28H38V29H39V28Z" fill="#3DA361"/>
<path d="M40 28H39V29H40V28Z" fill="#3DA361"/>
<path d="M41 28H40V29H41V28Z" fill="#3DA361"/>
<path d="M42 28H41V29H42V28Z" fill="#3DA361"/>
<path d="M43 28H42V29H43V28Z" fill="#3DA361"/>
<path d="M44 28H43V29H44V28Z" fill="#3DA361"/>
<path d="M45 28H44V29H45V28Z" fill="#3DA361"/>
<path d="M46 28H45V29H46V28Z" fill="#3DA361"/>
<path d="M47 28H46V29H47V28Z" fill="#4EB472"/>
<path d="M48 28H47V29H48V28Z" fill="#4EB472"/>
<path d="M49 28H48V29H49V28Z" fill="#4EB472"/>
<path d="M50 28H49V29H50V28Z" fill="#122C1A"/>
<path d="M16 29H15V30H16V29Z" fill="#122C1A"/>
<path d="M17 29H16V30H17V29Z" fill="#3DA361"/>
<path d="M18 29H17V30H18V29Z" fill="#3DA361"/>
<path d="M19 29H18V30H19V29Z" fill="#3DA361"/>
<path d="M20 29H19V30H20V29Z" fill="#399158"/>
<path d="M21 29H20V30H21V29Z" fill="#399158"/>
<path d="M22 29H21V30H22V29Z" fill="#399158"/>
<path d="M23 29H22V30H23V29Z" fill="#399158"/>
<path d="M24 29H23V30H24V29Z" fill="#399158"/>
<path d="M25 29H24V30H25V29Z" fill="#399158"/>
<path d="M26 29H25V30H26V29Z" fill="#399158"/>
<path d="M27 29H26V30H27V29Z" fill="#399158"/>
<path d="M28 29H27V30H28V29Z" fill="#399158"/>
<path d="M29 29H28V30H29V29Z" fill="#399158"/>
<path d="M30 29H29V30H30V29Z" fill="#399158"/>
<path d="M31 29H30V30H31V29Z" fill="#399158"/>
<path d="M32 29H31V30H32V29Z" fill="#399158"/>
<path d="M33 29H32V30H33V29Z" fill="#399158"/>
<path d="M34 29H33V30H34V29Z" fill="#399158"/>
<path d="M35 29H34V30H35V29Z" fill="#399158"/>
<path d="M36 29H35V30H36V29Z" fill="#399158"/>
<path d="M37 29H36V30H37V29Z" fill="#399158"/>
<path d="M38 29H37V30H38V29Z" fill="#399158"/>
<path d="M39 29H38V30H39V29Z" fill="#399158"/>
<path d="M40 29H39V30H40V29Z" fill="#399158"/>
<path d="M41 29H40V30H41V29Z" fill="#399158"/>
<path d="M42 29H41V30H42V29Z" fill="#399158"/>
<path d="M43 29H42V30H43V29Z" fill="#399158"/>
<path d="M44 29H43V30H44V29Z" fill="#399158"/>
<path d="M45 29H44V30H45V29Z" fill="#399158"/>
<path d="M46 29H45V30H46V29Z" fill="#3DA361"/>
<path d="M47 29H46V30H47V29Z" fill="#3DA361"/>
<path d="M48 29H47V30H48V29Z" fill="#3DA361"/>
<path d="M49 29H48V30H49V29Z" fill="#122C1A"/>
<path d="M17 30H16V31H17V30Z" fill="#122C1A"/>
<path d="M18 30H17V31H18V30Z" fill="#3DA361"/>
<path d="M19 30H18V31H19V30Z" fill="#3DA361"/>
<path d="M20 30H19V31H20V30Z" fill="#3DA361"/>
<path d="M21 30H20V31H21V30Z" fill="#399158"/>
<path d="M22 30H21V31H22V30Z" fill="#399158"/>
<path d="M23 30H22V31H23V30Z" fill="#399158"/>
<path d="M24 30H23V31H24V30Z" fill="#399158"/>
<path d="M25 30H24V31H25V30Z" fill="#399158"/>
<path d="M26 30H25V31H26V30Z" fill="#399158"/>
<path d="M27 30H26V31H27V30Z" fill="#399158"/>
<path d="M28 30H27V31H28V30Z" fill="#399158"/>
<path d="M29 30H28V31H29V30Z" fill="#399158"/>
<path d="M30 30H29V31H30V30Z" fill="#399158"/>
<path d="M31 30H30V31H31V30Z" fill="#399158"/>
<path d="M32 30H31V31H32V30Z" fill="#399158"/>
<path d="M33 30H32V31H33V30Z" fill="#399158"/>
<path d="M34 30H33V31H34V30Z" fill="#399158"/>
<path d="M35 30H34V31H35V30Z" fill="#399158"/>
<path d="M36 30H35V31H36V30Z" fill="#399158"/>
<path d="M37 30H36V31H37V30Z" fill="#399158"/>
<path d="M38 30H37V31H38V30Z" fill="#399158"/>
<path d="M39 30H38V31H39V30Z" fill="#399158"/>
<path d="M40 30H39V31H40V30Z" fill="#399158"/>
<path d="M41 30H40V31H41V30Z" fill="#399158"/>
<path d="M42 30H41V31H42V30Z" fill="#399158"/>
<path d="M43 30H42V31H43V30Z" fill="#399158"/>
<path d="M44 30H43V31H44V30Z" fill="#399158"/>
<path d="M45 30H44V31H45V30Z" fill="#3DA361"/>
<path d="M46 30H45V31H46V30Z" fill="#3DA361"/>
<path d="M47 30H46V31H47V30Z" fill="#3DA361"/>
<path d="M48 30H47V31H48V30Z" fill="#122C1A"/>
<path d="M18 31H17V32H18V31Z" fill="#122C1A"/>
<path d="M19 31H18V32H19V31Z" fill="#122C1A"/>
<path d="M20 31H19V32H20V31Z" fill="#3DA361"/>
<path d="M21 31H20V32H21V31Z" fill="#3DA361"/>
<path d="M22 31H21V32H22V31Z" fill="#399158"/>
<path d="M23 31H22V32H23V31Z" fill="#399158"/>
<path d="M24 31H23V32H24V31Z" fill="#399158"/>
<path d="M25 31H24V32H25V31Z" fill="#399158"/>
<path d="M26 31H25V32H26V31Z" fill="#399158"/>
<path d="M27 31H26V32H27V31Z" fill="#399158"/>
<path d="M28 31H27V32H28V31Z" fill="#399158"/>
<path d="M29 31H28V32H29V31Z" fill="#399158"/>
<path d="M30 31H29V32H30V31Z" fill="#399158"/>
<path d="M31 31H30V32H31V31Z" fill="#399158"/>
<path d="M32 31H31V32H32V31Z" fill="#398052"/>
<path d="M33 31H32V32H33V31Z" fill="#398052"/>
<path d="M34 31H33V32H34V31Z" fill="#399158"/>
<path d="M35 31H34V32H35V31Z" fill="#399158"/>
<path d="M36 31H35V32H36V31Z" fill="#399158"/>
<path d="M37 31H36V32H37V31Z" fill="#399158"/>
<path d="M38 31H37V32H38V31Z" fill="#399158"/>
<path d="M39 31H38V32H39V31Z" fill="#399158"/>
<path d="M40 31H39V32H40V31Z" fill="#399158"/>
<path d="M41 31H40V32H41V31Z" fill="#399158"/>
<path d="M42 31H41V32H42V31Z" fill="#399158"/>
<path d="M43 31H42V32H43V31Z" fill="#399158"/>
<path d="M44 31H43V32H44V31Z" fill="#3DA361"/>
<path d="M45 31H44V32H45V31Z" fill="#3DA361"/>
<path d="M46 31H45V32H46V31Z" fill="#122C1A"/>
<path d="M47 31H46V32H47V31Z" fill="#122C1A"/>
<path d="M17 32H16V33H17V32Z" fill="#122C1A"/>
<path d="M18 32H17V33H18V32Z" fill="#122C1A"/>
<path d="M19 32H18V33H19V32Z" fill="#4EB472"/>
<path d="M20 32H19V33H20V32Z" fill="#3DA361"/>
<path d="M21 32H20V33H21V32Z" fill="#3DA361"/>
<path d="M22 32H21V33H22V32Z" fill="#3DA361"/>
<path d="M23 32H22V33H23V32Z" fill="#3DA361"/>
<path d="M24 32H23V33H24V32Z" fill="#399158"/>
<path d="M25 32H24V33H25V32Z" fill="#399158"/>
<path d="M26 32H25V33H26V32Z" fill="#399158"/>
<path d="M27 32H26V33H27V32Z" fill="#399158"/>
<path d="M28 32H27V33H28V32Z" fill="#399158"/>
<path d="M29 32H28V33H29V32Z" fill="#399158"/>
<path d="M30 32H29V33H30V32Z" fill="#399158"/>
<path d="M31 32H30V33H31V32Z" fill="#398052"/>
<path d="M32 32H31V33H32V32Z" fill="#398052"/>
<path d="M33 32H32V33H33V32Z" fill="#398052"/>
<path d="M34 32H33V33H34V32Z" fill="#398052"/>
<path d="M35 32H34V33H35V32Z" fill="#399158"/>
<path d="M36 32H35V33H36V32Z" fill="#399158"/>
<path d="M37 32H36V33H37V32Z" fill="#399158"/>
<path d="M38 32H37V33H38V32Z" fill="#399158"/>
<path d="M39 32H38V33H39V32Z" fill="#399158"/>
<path d="M40 32H39V33H40V32Z" fill="#399158"/>
<path d="M41 32H40V33H41V32Z" fill="#399158"/>
<path d="M42 32H41V33H42V32Z" fill="#3DA361"/>
<path d="M43 32H42V33H43V32Z" fill="#3DA361"/>
<path d="M44 32H43V33H44V32Z" fill="#3DA361"/>
<path d="M45 32H44V33H45V32Z" fill="#3DA361"/>
<path d="M46 32H45V33H46V32Z" fill="#4EB472"/>
<path d="M47 32H46V33H47V32Z" fill="#122C1A"/>
<path d="M48 32H47V33H48V32Z" fill="#122C1A"/>
<path d="M14 33H13V34H14V33Z" fill="#122C1A"/>
<path d="M15 33H14V34H15V33Z" fill="#122C1A"/>
<path d="M16 33H15V34H16V33Z" fill="#122C1A"/>
<path d="M17 33H16V34H17V33Z" fill="#5ACF83"/>
<path d="M18 33H17V34H18V33Z" fill="#4EB472"/>
<path d="M19 33H18V34H19V33Z" fill="#4EB472"/>
<path d="M20 33H19V34H20V33Z" fill="#3DA361"/>
<path d="M21 33H20V34H21V33Z" fill="#3DA361"/>
<path d="M22 33H21V34H22V33Z" fill="#399158"/>
<path d="M23 33H22V34H23V33Z" fill="#399158"/>
<path d="M24 33H23V34H24V33Z" fill="#399158"/>
<path d="M25 33H24V34H25V33Z" fill="#399158"/>
<path d="M26 33H25V34H26V33Z" fill="#399158"/>
<path d="M27 33H26V34H27V33Z" fill="#399158"/>
<path d="M28 33H27V34H28V33Z" fill="#399158"/>
<path d="M29 33H28V34H29V33Z" fill="#398052"/>
<path d="M30 33H29V34H30V33Z" fill="#398052"/>
<path d="M31 33H30V34H31V33Z" fill="#398052"/>
<path d="M32 33H31V34H32V33Z" fill="#398052"/>
<path d="M33 33H32V34H33V33Z" fill="#398052"/>
<path d="M34 33H33V34H34V33Z" fill="#398052"/>
<path d="M35 33H34V34H35V33Z" fill="#398052"/>
<path d="M36 33H35V34H36V33Z" fill="#398052"/>
<path d="M37 33H36V34H37V33Z" fill="#399158"/>
<path d="M38 33H37V34H38V33Z" fill="#399158"/>
<path d="M39 33H38V34H39V33Z" fill="#399158"/>
<path d="M40 33H39V34H40V33Z" fill="#399158"/>
<path d="M41 33H40V34H41V33Z" fill="#399158"/>
<path d="M42 33H41V34H42V33Z" fill="#399158"/>
<path d="M43 33H42V34H43V33Z" fill="#399158"/>
<path d="M44 33H43V34H44V33Z" fill="#3DA361"/>
<path d="M45 33H44V34H45V33Z" fill="#3DA361"/>
<path d="M46 33H45V34H46V33Z" fill="#4EB472"/>
<path d="M47 33H46V34H47V33Z" fill="#4EB472"/>
<path d="M48 33H47V34H48V33Z" fill="#5ACF83"/>
<path d="M49 33H48V34H49V33Z" fill="#122C1A"/>
<path d="M50 33H49V34H50V33Z" fill="#122C1A"/>
<path d="M51 33H50V34H51V33Z" fill="#122C1A"/>
<path d="M12 34H11V35H12V34Z" fill="#122C1A"/>
<path d="M13 34H12V35H13V34Z" fill="#122C1A"/>
<path d="M14 34H13V35H14V34Z" fill="#5ACF83"/>
<path d="M15 34H14V35H15V34Z" fill="#5ACF83"/>
<path d="M16 34H15V35H16V34Z" fill="#5ACF83"/>
<path d="M17 34H16V35H17V34Z" fill="#4EB472"/>
<path d="M18 34H17V35H18V34Z" fill="#4EB472"/>
<path d="M19 34H18V35H19V34Z" fill="#3DA361"/>
<path d="M20 34H19V35H20V34Z" fill="#399158"/>
<path d="M21 34H20V35H21V34Z" fill="#399158"/>
<path d="M22 34H21V35H22V34Z" fill="#399158"/>
<path d="M23 34H22V35H23V34Z" fill="#399158"/>
<path d="M24 34H23V35H24V34Z" fill="#399158"/>
<path d="M25 34H24V35H25V34Z" fill="#399158"/>
<path d="M26 34H25V35H26V34Z" fill="#399158"/>
<path d="M27 34H26V35H27V34Z" fill="#398052"/>
<path d="M28 34H27V35H28V34Z" fill="#398052"/>
<path d="M29 34H28V35H29V34Z" fill="#398052"/>
<path d="M30 34H29V35H30V34Z" fill="#398052"/>
<path d="M31 34H30V35H31V34Z" fill="#398052"/>
<path d="M32 34H31V35H32V34Z" fill="#398052"/>
<path d="M33 34H32V35H33V34Z" fill="#398052"/>
<path d="M34 34H33V35H34V34Z" fill="#398052"/>
<path d="M35 34H34V35H35V34Z" fill="#398052"/>
<path d="M36 34H35V35H36V34Z" fill="#398052"/>
<path d="M37 34H36V35H37V34Z" fill="#398052"/>
<path d="M38 34H37V35H38V34Z" fill="#398052"/>
<path d="M39 34H38V35H39V34Z" fill="#399158"/>
<path d="M40 34H39V35H40V34Z" fill="#399158"/>
<path d="M41 34H40V35H41V34Z" fill="#399158"/>
<path d="M42 34H41V35H42V34Z" fill="#399158"/>
<path d="M43 34H42V35H43V34Z" fill="#399158"/>
<path d="M44 34H43V35H44V34Z" fill="#399158"/>
<path d="M45 34H44V35H45V34Z" fill="#399158"/>
<path d="M46 34H45V35H46V34Z" fill="#3DA361"/>
<path d="M47 34H46V35H47V34Z" fill="#4EB472"/>
<path d="M48 34H47V35H48V34Z" fill="#4EB472"/>
<path d="M49 34H48V35H49V34Z" fill="#5ACF83"/>
<path d="M50 34H49V35H50V34Z" fill="#5ACF83"/>
<path d="M51 34H50V35H51V34Z" fill="#5ACF83"/>
<path d="M52 34H51V35H52V34Z" fill="#122C1A"/>
<path d="M53 34H52V35H53V34Z" fill="#122C1A"/>
<path d="M9 35H8V36H9V35Z" fill="#122C1A"/>
<path d="M10 35H9V36H10V35Z" fill="#122C1A"/>
<path d="M11 35H10V36H11V35Z" fill="#122C1A"/>
<path d="M12 35H11V36H12V35Z" fill="#122C1A"/>
<path d="M13 35H12V36H13V35Z" fill="#5ACF83"/>
<path d="M14 35H13V36H14V35Z" fill="#5ACF83"/>
<path d="M15 35H14V36H15V35Z" fill="#4EB472"/>
<path d="M16 35H15V36H16V35Z" fill="#4EB472"/>
<path d="M17 35H16V36H17V35Z" fill="#4EB472"/>
<path d="M18 35H17V36H18V35Z" fill="#399158"/>
<path d="M19 35H18V36H19V35Z" fill="#399158"/>
<path d="M20 35H19V36H20V35Z" fill="#399158"/>
<path d="M21 35H20V36H21V35Z" fill="#399158"/>
<path d="M22 35H21V36H22V35Z" fill="#399158"/>
<path d="M23 35H22V36H23V35Z" fill="#399158"/>
<path d="M24 35H23V36H24V35Z" fill="#399158"/>
<path d="M25 35H24V36H25V35Z" fill="#398052"/>
<path d="M26 35H25V36H26V35Z" fill="#398052"/>
<path d="M27 35H26V36H27V35Z" fill="#398052"/>
<path d="M28 35H27V36H28V35Z" fill="#398052"/>
<path d="M29 35H28V36H29V35Z" fill="#398052"/>
<path d="M30 35H29V36H30V35Z" fill="#398052"/>
<path d="M31 35H30V36H31V35Z" fill="#398052"/>
<path d="M32 35H31V36H32V35Z" fill="#398052"/>
<path d="M33 35H32V36H33V35Z" fill="#398052"/>
<path d="M34 35H33V36H34V35Z" fill="#398052"/>
<path d="M35 35H34V36H35V35Z" fill="#398052"/>
<path d="M36 35H35V36H36V35Z" fill="#398052"/>
<path d="M37 35H36V36H37V35Z" fill="#398052"/>
<path d="M38 35H37V36H38V35Z" fill="#398052"/>
<path d="M39 35H38V36H39V35Z" fill="#398052"/>
<path d="M40 35H39V36H40V35Z" fill="#398052"/>
<path d="M41 35H40V36H41V35Z" fill="#399158"/>
<path d="M42 35H41V36H42V35Z" fill="#399158"/>
<path d="M43 35H42V36H43V35Z" fill="#399158"/>
<path d="M44 35H43V36H44V35Z" fill="#399158"/>
<path d="M45 35H44V36H45V35Z" fill="#399158"/>
<path d="M46 35H45V36H46V35Z" fill="#399158"/>
<path d="M47 35H46V36H47V35Z" fill="#399158"/>
<path d="M48 35H47V36H48V35Z" fill="#4EB472"/>
<path d="M49 35H48V36H49V35Z" fill="#4EB472"/>
<path d="M50 35H49V36H50V35Z" fill="#4EB472"/>
<path d="M51 35H50V36H51V35Z" fill="#5ACF83"/>
<path d="M52 35H51V36H52V35Z" fill="#5ACF83"/>
<path d="M53 35H52V36H53V35Z" fill="#122C1A"/>
<path d="M54 35H53V36H54V35Z" fill="#122C1A"/>
<path d="M55 35H54V36H55V35Z" fill="#122C1A"/>
<path d="M56 35H55V36H56V35Z" fill="#122C1A"/>
<path d="M10 36H9V37H10V36Z" fill="#122C1A"/>
<path d="M11 36H10V37H11V36Z" fill="#122C1A"/>
<path d="M12 36H11V37H12V36Z" fill="#5ACF83"/>
<path d="M13 36H12V37H13V36Z" fill="#5ACF83"/>
<path d="M14 36H13V37H14V36Z" fill="#4EB472"/>
<path d="M15 36H14V37H15V36Z" fill="#4EB472"/>
<path d="M16 36H15V37H16V36Z" fill="#3DA361"/>
<path d="M17 36H16V37H17V36Z" fill="#399158"/>
<path d="M18 36H17V37H18V36Z" fill="#399158"/>
<path d="M19 36H18V37H19V36Z" fill="#399158"/>
<path d="M20 36H19V37H20V36Z" fill="#399158"/>
<path d="M21 36H20V37H21V36Z" fill="#399158"/>
<path d="M22 36H21V37H22V36Z" fill="#399158"/>
<path d="M23 36H22V37H23V36Z" fill="#399158"/>
<path d="M24 36H23V37H24V36Z" fill="#399158"/>
<path d="M25 36H24V37H25V36Z" fill="#399158"/>
<path d="M26 36H25V37H26V36Z" fill="#399158"/>
<path d="M27 36H26V37H27V36Z" fill="#399158"/>
<path d="M28 36H27V37H28V36Z" fill="#399158"/>
<path d="M29 36H28V37H29V36Z" fill="#2F6942"/>
<path d="M30 36H29V37H30V36Z" fill="#398052"/>
<path d="M31 36H30V37H31V36Z" fill="#2F6942"/>
<path d="M32 36H31V37H32V36Z" fill="#398052"/>
<path d="M33 36H32V37H33V36Z" fill="#2F6942"/>
<path d="M34 36H33V37H34V36Z" fill="#398052"/>
<path d="M35 36H34V37H35V36Z" fill="#2F6942"/>
<path d="M36 36H35V37H36V36Z" fill="#398052"/>
<path d="M37 36H36V37H37V36Z" fill="#399158"/>
<path d="M38 36H37V37H38V36Z" fill="#399158"/>
<path d="M39 36H38V37H39V36Z" fill="#399158"/>
<path d="M40 36H39V37H40V36Z" fill="#399158"/>
<path d="M41 36H40V37H41V36Z" fill="#399158"/>
<path d="M42 36H41V37H42V36Z" fill="#399158"/>
<path d="M43 36H42V37H43V36Z" fill="#399158"/>
<path d="M44 36H43V37H44V36Z" fill="#399158"/>
<path d="M45 36H44V37H45V36Z" fill="#399158"/>
<path d="M46 36H45V37H46V36Z" fill="#399158"/>
<path d="M47 36H46V37H47V36Z" fill="#399158"/>
<path d="M48 36H47V37H48V36Z" fill="#399158"/>
<path d="M49 36H48V37H49V36Z" fill="#3DA361"/>
<path d="M50 36H49V37H50V36Z" fill="#4EB472"/>
<path d="M51 36H50V37H51V36Z" fill="#4EB472"/>
<path d="M52 36H51V37H52V36Z" fill="#5ACF83"/>
<path d="M53 36H52V37H53V36Z" fill="#5ACF83"/>
<path d="M54 36H53V37H54V36Z" fill="#122C1A"/>
<path d="M55 36H54V37H55V36Z" fill="#122C1A"/>
<path d="M11 37H10V38H11V37Z" fill="#122C1A"/>
<path d="M12 37H11V38H12V37Z" fill="#122C1A"/>
<path d="M13 37H12V38H13V37Z" fill="#122C1A"/>
<path d="M14 37H13V38H14V37Z" fill="#3DA361"/>
<path d="M15 37H14V38H15V37Z" fill="#3DA361"/>
<path d="M16 37H15V38H16V37Z" fill="#3DA361"/>
<path d="M17 37H16V38H17V37Z" fill="#3DA361"/>
<path d="M18 37H17V38H18V37Z" fill="#3DA361"/>
<path d="M19 37H18V38H19V37Z" fill="#399158"/>
<path d="M20 37H19V38H20V37Z" fill="#399158"/>
<path d="M21 37H20V38H21V37Z" fill="#399158"/>
<path d="M22 37H21V38H22V37Z" fill="#399158"/>
<path d="M23 37H22V38H23V37Z" fill="#399158"/>
<path d="M24 37H23V38H24V37Z" fill="#398052"/>
<path d="M25 37H24V38H25V37Z" fill="#398052"/>
<path d="M26 37H25V38H26V37Z" fill="#398052"/>
<path d="M27 37H26V38H27V37Z" fill="#398052"/>
<path d="M28 37H27V38H28V37Z" fill="#398052"/>
<path d="M29 37H28V38H29V37Z" fill="#398052"/>
<path d="M30 37H29V38H30V37Z" fill="#398052"/>
<path d="M31 37H30V38H31V37Z" fill="#398052"/>
<path d="M32 37H31V38H32V37Z" fill="#398052"/>
<path d="M33 37H32V38H33V37Z" fill="#398052"/>
<path d="M34 37H33V38H34V37Z" fill="#398052"/>
<path d="M35 37H34V38H35V37Z" fill="#398052"/>
<path d="M36 37H35V38H36V37Z" fill="#398052"/>
<path d="M37 37H36V38H37V37Z" fill="#398052"/>
<path d="M38 37H37V38H38V37Z" fill="#398052"/>
<path d="M39 37H38V38H39V37Z" fill="#398052"/>
<path d="M40 37H39V38H40V37Z" fill="#398052"/>
<path d="M41 37H40V38H41V37Z" fill="#398052"/>
<path d="M42 37H41V38H42V37Z" fill="#399158"/>
<path d="M43 37H42V38H43V37Z" fill="#399158"/>
<path d="M44 37H43V38H44V37Z" fill="#399158"/>
<path d="M45 37H44V38H45V37Z" fill="#399158"/>
<path d="M46 37H45V38H46V37Z" fill="#399158"/>
<path d="M47 37H46V38H47V37Z" fill="#3DA361"/>
<path d="M48 37H47V38H48V37Z" fill="#3DA361"/>
<path d="M49 37H48V38H49V37Z" fill="#3DA361"/>
<path d="M50 37H49V38H50V37Z" fill="#3DA361"/>
<path d="M51 37H50V38H51V37Z" fill="#3DA361"/>
<path d="M52 37H51V38H52V37Z" fill="#122C1A"/>
<path d="M53 37H52V38H53V37Z" fill="#122C1A"/>
<path d="M54 37H53V38H54V37Z" fill="#122C1A"/>
<path d="M13 38H12V39H13V38Z" fill="#122C1A"/>
<path d="M14 38H13V39H14V38Z" fill="#122C1A"/>
<path d="M15 38H14V39H15V38Z" fill="#122C1A"/>
<path d="M16 38H15V39H16V38Z" fill="#3DA361"/>
<path d="M17 38H16V39H17V38Z" fill="#3DA361"/>
<path d="M18 38H17V39H18V38Z" fill="#399158"/>
<path d="M19 38H18V39H19V38Z" fill="#399158"/>
<path d="M20 38H19V39H20V38Z" fill="#399158"/>
<path d="M21 38H20V39H21V38Z" fill="#399158"/>
<path d="M22 38H21V39H22V38Z" fill="#398052"/>
<path d="M23 38H22V39H23V38Z" fill="#2F6942"/>
<path d="M24 38H23V39H24V38Z" fill="#398052"/>
<path d="M25 38H24V39H25V38Z" fill="#2F6942"/>
<path d="M26 38H25V39H26V38Z" fill="#398052"/>
<path d="M27 38H26V39H27V38Z" fill="#2F6942"/>
<path d="M28 38H27V39H28V38Z" fill="#398052"/>
<path d="M29 38H28V39H29V38Z" fill="#2F6942"/>
<path d="M30 38H29V39H30V38Z" fill="#398052"/>
<path d="M31 38H30V39H31V38Z" fill="#2F6942"/>
<path d="M32 38H31V39H32V38Z" fill="#398052"/>
<path d="M33 38H32V39H33V38Z" fill="#2F6942"/>
<path d="M34 38H33V39H34V38Z" fill="#398052"/>
<path d="M35 38H34V39H35V38Z" fill="#2F6942"/>
<path d="M36 38H35V39H36V38Z" fill="#398052"/>
<path d="M37 38H36V39H37V38Z" fill="#2F6942"/>
<path d="M38 38H37V39H38V38Z" fill="#398052"/>
<path d="M39 38H38V39H39V38Z" fill="#2F6942"/>
<path d="M40 38H39V39H40V38Z" fill="#398052"/>
<path d="M41 38H40V39H41V38Z" fill="#2F6942"/>
<path d="M42 38H41V39H42V38Z" fill="#398052"/>
<path d="M43 38H42V39H43V38Z" fill="#2F6942"/>
<path d="M44 38H43V39H44V38Z" fill="#399158"/>
<path d="M45 38H44V39H45V38Z" fill="#399158"/>
<path d="M46 38H45V39H46V38Z" fill="#399158"/>
<path d="M47 38H46V39H47V38Z" fill="#399158"/>
<path d="M48 38H47V39H48V38Z" fill="#3DA361"/>
<path d="M49 38H48V39H49V38Z" fill="#3DA361"/>
<path d="M50 38H49V39H50V38Z" fill="#122C1A"/>
<path d="M51 38H50V39H51V38Z" fill="#122C1A"/>
<path d="M52 38H51V39H52V38Z" fill="#122C1A"/>
<path d="M16 39H15V40H16V39Z" fill="#122C1A"/>
<path d="M17 39H16V40H17V39Z" fill="#122C1A"/>
<path d="M18 39H17V40H18V39Z" fill="#399158"/>
<path d="M19 39H18V40H19V39Z" fill="#398052"/>
<path d="M20 39H19V40H20V39Z" fill="#2F6942"/>
<path d="M21 39H20V40H21V39Z" fill="#398052"/>
<path d="M22 39H21V40H22V39Z" fill="#398052"/>
<path d="M23 39H22V40H23V39Z" fill="#398052"/>
<path d="M24 39H23V40H24V39Z" fill="#2F6942"/>
<path d="M25 39H24V40H25V39Z" fill="#398052"/>
<path d="M26 39H25V40H26V39Z" fill="#398052"/>
<path d="M27 39H26V40H27V39Z" fill="#398052"/>
<path d="M28 39H27V40H28V39Z" fill="#2F6942"/>
<path d="M29 39H28V40H29V39Z" fill="#398052"/>
<path d="M30 39H29V40H30V39Z" fill="#398052"/>
<path d="M31 39H30V40H31V39Z" fill="#398052"/>
<path d="M32 39H31V40H32V39Z" fill="#2F6942"/>
<path d="M33 39H32V40H33V39Z" fill="#398052"/>
<path d="M34 39H33V40H34V39Z" fill="#398052"/>
<path d="M35 39H34V40H35V39Z" fill="#398052"/>
<path d="M36 39H35V40H36V39Z" fill="#2F6942"/>
<path d="M37 39H36V40H37V39Z" fill="#398052"/>
<path d="M38 39H37V40H38V39Z" fill="#398052"/>
<path d="M39 39H38V40H39V39Z" fill="#398052"/>
<path d="M40 39H39V40H40V39Z" fill="#2F6942"/>
<path d="M41 39H40V40H41V39Z" fill="#398052"/>
<path d="M42 39H41V40H42V39Z" fill="#398052"/>
<path d="M43 39H42V40H43V39Z" fill="#398052"/>
<path d="M44 39H43V40H44V39Z" fill="#2F6942"/>
<path d="M45 39H44V40H45V39Z" fill="#398052"/>
<path d="M46 39H45V40H46V39Z" fill="#398052"/>
<path d="M47 39H46V40H47V39Z" fill="#399158"/>
<path d="M48 39H47V40H48V39Z" fill="#122C1A"/>
<path d="M49 39H48V40H49V39Z" fill="#122C1A"/>
<path d="M17 40H16V41H17V40Z" fill="#122C1A"/>
<path d="M18 40H17V41H18V40Z" fill="#122C1A"/>
<path d="M19 40H18V41H19V40Z" fill="#399158"/>
<path d="M20 40H19V41H20V40Z" fill="#398052"/>
<path d="M21 40H20V41H21V40Z" fill="#2F6942"/>
<path d="M22 40H21V41H22V40Z" fill="#398052"/>
<path d="M23 40H22V41H23V40Z" fill="#2F6942"/>
<path d="M24 40H23V41H24V40Z" fill="#398052"/>
<path d="M25 40H24V41H25V40Z" fill="#2F6942"/>
<path d="M26 40H25V41H26V40Z" fill="#398052"/>
<path d="M27 40H26V41H27V40Z" fill="#2F6942"/>
<path d="M28 40H27V41H28V40Z" fill="#398052"/>
<path d="M29 40H28V41H29V40Z" fill="#2F6942"/>
<path d="M30 40H29V41H30V40Z" fill="#398052"/>
<path d="M31 40H30V41H31V40Z" fill="#2F6942"/>
<path d="M32 40H31V41H32V40Z" fill="#398052"/>
<path d="M33 40H32V41H33V40Z" fill="#2F6942"/>
<path d="M34 40H33V41H34V40Z" fill="#398052"/>
<path d="M35 40H34V41H35V40Z" fill="#2F6942"/>
<path d="M36 40H35V41H36V40Z" fill="#398052"/>
<path d="M37 40H36V41H37V40Z" fill="#2F6942"/>
<path d="M38 40H37V41H38V40Z" fill="#398052"/>
<path d="M39 40H38V41H39V40Z" fill="#2F6942"/>
<path d="M40 40H39V41H40V40Z" fill="#398052"/>
<path d="M41 40H40V41H41V40Z" fill="#2F6942"/>
<path d="M42 40H41V41H42V40Z" fill="#398052"/>
<path d="M43 40H42V41H43V40Z" fill="#2F6942"/>
<path d="M44 40H43V41H44V40Z" fill="#398052"/>
<path d="M45 40H44V41H45V40Z" fill="#2F6942"/>
<path d="M46 40H45V41H46V40Z" fill="#399158"/>
<path d="M47 40H46V41H47V40Z" fill="#122C1A"/>
<path d="M48 40H47V41H48V40Z" fill="#122C1A"/>
<path d="M16 41H15V42H16V41Z" fill="#122C1A"/>
<path d="M17 41H16V42H17V41Z" fill="#122C1A"/>
<path d="M18 41H17V42H18V41Z" fill="#399158"/>
<path d="M19 41H18V42H19V41Z" fill="#399158"/>
<path d="M20 41H19V42H20V41Z" fill="#399158"/>
<path d="M21 41H20V42H21V41Z" fill="#398052"/>
<path d="M22 41H21V42H22V41Z" fill="#2F6942"/>
<path d="M23 41H22V42H23V41Z" fill="#398052"/>
<path d="M24 41H23V42H24V41Z" fill="#2F6942"/>
<path d="M25 41H24V42H25V41Z" fill="#398052"/>
<path d="M26 41H25V42H26V41Z" fill="#2F6942"/>
<path d="M27 41H26V42H27V41Z" fill="#398052"/>
<path d="M28 41H27V42H28V41Z" fill="#2F6942"/>
<path d="M29 41H28V42H29V41Z" fill="#398052"/>
<path d="M30 41H29V42H30V41Z" fill="#2F6942"/>
<path d="M31 41H30V42H31V41Z" fill="#398052"/>
<path d="M32 41H31V42H32V41Z" fill="#2F6942"/>
<path d="M33 41H32V42H33V41Z" fill="#398052"/>
<path d="M34 41H33V42H34V41Z" fill="#2F6942"/>
<path d="M35 41H34V42H35V41Z" fill="#398052"/>
<path d="M36 41H35V42H36V41Z" fill="#2F6942"/>
<path d="M37 41H36V42H37V41Z" fill="#398052"/>
<path d="M38 41H37V42H38V41Z" fill="#2F6942"/>
<path d="M39 41H38V42H39V41Z" fill="#398052"/>
<path d="M40 41H39V42H40V41Z" fill="#2F6942"/>
<path d="M41 41H40V42H41V41Z" fill="#398052"/>
<path d="M42 41H41V42H42V41Z" fill="#2F6942"/>
<path d="M43 41H42V42H43V41Z" fill="#398052"/>
<path d="M44 41H43V42H44V41Z" fill="#2F6942"/>
<path d="M45 41H44V42H45V41Z" fill="#399158"/>
<path d="M46 41H45V42H46V41Z" fill="#399158"/>
<path d="M47 41H46V42H47V41Z" fill="#399158"/>
<path d="M48 41H47V42H48V41Z" fill="#122C1A"/>
<path d="M49 41H48V42H49V41Z" fill="#122C1A"/>
<path d="M15 42H14V43H15V42Z" fill="#122C1A"/>
<path d="M16 42H15V43H16V42Z" fill="#399158"/>
<path d="M17 42H16V43H17V42Z" fill="#399158"/>
<path d="M18 42H17V43H18V42Z" fill="#399158"/>
<path d="M19 42H18V43H19V42Z" fill="#2F6942"/>
<path d="M20 42H19V43H20V42Z" fill="#398052"/>
<path d="M21 42H20V43H21V42Z" fill="#2F6942"/>
<path d="M22 42H21V43H22V42Z" fill="#398052"/>
<path d="M23 42H22V43H23V42Z" fill="#2F6942"/>
<path d="M24 42H23V43H24V42Z" fill="#398052"/>
<path d="M25 42H24V43H25V42Z" fill="#2F6942"/>
<path d="M26 42H25V43H26V42Z" fill="#398052"/>
<path d="M27 42H26V43H27V42Z" fill="#2F6942"/>
<path d="M28 42H27V43H28V42Z" fill="#398052"/>
<path d="M29 42H28V43H29V42Z" fill="#2F6942"/>
<path d="M30 42H29V43H30V42Z" fill="#398052"/>
<path d="M31 42H30V43H31V42Z" fill="#2F6942"/>
<path d="M32 42H31V43H32V42Z" fill="#398052"/>
<path d="M33 42H32V43H33V42Z" fill="#2F6942"/>
<path d="M34 42H33V43H34V42Z" fill="#398052"/>
<path d="M35 42H34V43H35V42Z" fill="#2F6942"/>
<path d="M36 42H35V43H36V42Z" fill="#398052"/>
<path d="M37 42H36V43H37V42Z" fill="#2F6942"/>
<path d="M38 42H37V43H38V42Z" fill="#398052"/>
<path d="M39 42H38V43H39V42Z" fill="#2F6942"/>
<path d="M40 42H39V43H40V42Z" fill="#398052"/>
<path d="M41 42H40V43H41V42Z" fill="#2F6942"/>
<path d="M42 42H41V43H42V42Z" fill="#398052"/>
<path d="M43 42H42V43H43V42Z" fill="#2F6942"/>
<path d="M44 42H43V43H44V42Z" fill="#398052"/>
<path d="M45 42H44V43H45V42Z" fill="#2F6942"/>
<path d="M46 42H45V43H46V42Z" fill="#398052"/>
<path d="M47 42H46V43H47V42Z" fill="#399158"/>
<path d="M48 42H47V43H48V42Z" fill="#399158"/>
<path d="M49 42H48V43H49V42Z" fill="#399158"/>
<path d="M50 42H49V43H50V42Z" fill="#122C1A"/>
<path d="M13 43H12V44H13V43Z" fill="#122C1A"/>
<path d="M14 43H13V44H14V43Z" fill="#122C1A"/>
<path d="M15 43H14V44H15V43Z" fill="#399158"/>
<path d="M16 43H15V44H16V43Z" fill="#399158"/>
<path d="M17 43H16V44H17V43Z" fill="#398052"/>
<path d="M18 43H17V44H18V43Z" fill="#2F6942"/>
<path d="M19 43H18V44H19V43Z" fill="#398052"/>
<path d="M20 43H19V44H20V43Z" fill="#2F6942"/>
<path d="M21 43H20V44H21V43Z" fill="#398052"/>
<path d="M22 43H21V44H22V43Z" fill="#2F6942"/>
<path d="M23 43H22V44H23V43Z" fill="#398052"/>
<path d="M24 43H23V44H24V43Z" fill="#2F6942"/>
<path d="M25 43H24V44H25V43Z" fill="#398052"/>
<path d="M26 43H25V44H26V43Z" fill="#2F6942"/>
<path d="M27 43H26V44H27V43Z" fill="#398052"/>
<path d="M28 43H27V44H28V43Z" fill="#2F6942"/>
<path d="M29 43H28V44H29V43Z" fill="#398052"/>
<path d="M30 43H29V44H30V43Z" fill="#2F6942"/>
<path d="M31 43H30V44H31V43Z" fill="#398052"/>
<path d="M32 43H31V44H32V43Z" fill="#2F6942"/>
<path d="M33 43H32V44H33V43Z" fill="#398052"/>
<path d="M34 43H33V44H34V43Z" fill="#2F6942"/>
<path d="M35 43H34V44H35V43Z" fill="#398052"/>
<path d="M36 43H35V44H36V43Z" fill="#2F6942"/>
<path d="M37 43H36V44H37V43Z" fill="#398052"/>
<path d="M38 43H37V44H38V43Z" fill="#2F6942"/>
<path d="M39 43H38V44H39V43Z" fill="#398052"/>
<path d="M40 43H39V44H40V43Z" fill="#2F6942"/>
<path d="M41 43H40V44H41V43Z" fill="#398052"/>
<path d="M42 43H41V44H42V43Z" fill="#2F6942"/>
<path d="M43 43H42V44H43V43Z" fill="#398052"/>
<path d="M44 43H43V44H44V43Z" fill="#2F6942"/>
<path d="M45 43H44V44H45V43Z" fill="#398052"/>
<path d="M46 43H45V44H46V43Z" fill="#2F6942"/>
<path d="M47 43H46V44H47V43Z" fill="#398052"/>
<path d="M48 43H47V44H48V43Z" fill="#2F6942"/>
<path d="M49 43H48V44H49V43Z" fill="#399158"/>
<path d="M50 43H49V44H50V43Z" fill="#399158"/>
<path d="M51 43H50V44H51V43Z" fill="#122C1A"/>
<path d="M52 43H51V44H52V43Z" fill="#122C1A"/>
<path d="M11 44H10V45H11V44Z" fill="#122C1A"/>
<path d="M12 44H11V45H12V44Z" fill="#122C1A"/>
<path d="M13 44H12V45H13V44Z" fill="#2F6942"/>
<path d="M14 44H13V45H14V44Z" fill="#2F6942"/>
<path d="M15 44H14V45H15V44Z" fill="#2F6942"/>
<path d="M16 44H15V45H16V44Z" fill="#2F6942"/>
<path d="M17 44H16V45H17V44Z" fill="#2F6942"/>
<path d="M18 44H17V45H18V44Z" fill="#2F6942"/>
<path d="M19 44H18V45H19V44Z" fill="#2F6942"/>
<path d="M20 44H19V45H20V44Z" fill="#2F6942"/>
<path d="M21 44H20V45H21V44Z" fill="#2F6942"/>
<path d="M22 44H21V45H22V44Z" fill="#2F6942"/>
<path d="M23 44H22V45H23V44Z" fill="#2F6942"/>
<path d="M24 44H23V45H24V44Z" fill="#2F6942"/>
<path d="M25 44H24V45H25V44Z" fill="#2F6942"/>
<path d="M26 44H25V45H26V44Z" fill="#2F6942"/>
<path d="M27 44H26V45H27V44Z" fill="#2F6942"/>
<path d="M28 44H27V45H28V44Z" fill="#2F6942"/>
<path d="M29 44H28V45H29V44Z" fill="#2F6942"/>
<path d="M30 44H29V45H30V44Z" fill="#2F6942"/>
<path d="M31 44H30V45H31V44Z" fill="#2F6942"/>
<path d="M32 44H31V45H32V44Z" fill="#2F6942"/>
<path d="M33 44H32V45H33V44Z" fill="#2F6942"/>
<path d="M34 44H33V45H34V44Z" fill="#2F6942"/>
<path d="M35 44H34V45H35V44Z" fill="#2F6942"/>
<path d="M36 44H35V45H36V44Z" fill="#2F6942"/>
<path d="M37 44H36V45H37V44Z" fill="#2F6942"/>
<path d="M38 44H37V45H38V44Z" fill="#2F6942"/>
<path d="M39 44H38V45H39V44Z" fill="#2F6942"/>
<path d="M40 44H39V45H40V44Z" fill="#2F6942"/>
<path d="M41 44H40V45H41V44Z" fill="#2F6942"/>
<path d="M42 44H41V45H42V44Z" fill="#2F6942"/>
<path d="M43 44H42V45H43V44Z" fill="#2F6942"/>
<path d="M44 44H43V45H44V44Z" fill="#2F6942"/>
<path d="M45 44H44V45H45V44Z" fill="#2F6942"/>
<path d="M46 44H45V45H46V44Z" fill="#2F6942"/>
<path d="M47 44H46V45H47V44Z" fill="#2F6942"/>
<path d="M48 44H47V45H48V44Z" fill="#2F6942"/>
<path d="M49 44H48V45H49V44Z" fill="#2F6942"/>
<path d="M50 44H49V45H50V44Z" fill="#2F6942"/>
<path d="M51 44H50V45H51V44Z" fill="#2F6942"/>
<path d="M52 44H51V45H52V44Z" fill="#2F6942"/>
<path d="M53 44H52V45H53V44Z" fill="#122C1A"/>
<path d="M54 44H53V45H54V44Z" fill="#122C1A"/>
<path d="M8 45H7V46H8V45Z" fill="#122C1A"/>
<path d="M9 45H8V46H9V45Z" fill="#122C1A"/>
<path d="M10 45H9V46H10V45Z" fill="#122C1A"/>
<path d="M11 45H10V46H11V45Z" fill="#398052"/>
<path d="M12 45H11V46H12V45Z" fill="#2F6942"/>
<path d="M13 45H12V46H13V45Z" fill="#398052"/>
<path d="M14 45H13V46H14V45Z" fill="#2F6942"/>
<path d="M15 45H14V46H15V45Z" fill="#398052"/>
<path d="M16 45H15V46H16V45Z" fill="#2F6942"/>
<path d="M17 45H16V46H17V45Z" fill="#398052"/>
<path d="M18 45H17V46H18V45Z" fill="#2F6942"/>
<path d="M19 45H18V46H19V45Z" fill="#398052"/>
<path d="M20 45H19V46H20V45Z" fill="#2F6942"/>
<path d="M21 45H20V46H21V45Z" fill="#398052"/>
<path d="M22 45H21V46H22V45Z" fill="#2F6942"/>
<path d="M23 45H22V46H23V45Z" fill="#398052"/>
<path d="M24 45H23V46H24V45Z" fill="#2F6942"/>
<path d="M25 45H24V46H25V45Z" fill="#398052"/>
<path d="M26 45H25V46H26V45Z" fill="#2F6942"/>
<path d="M27 45H26V46H27V45Z" fill="#398052"/>
<path d="M28 45H27V46H28V45Z" fill="#2F6942"/>
<path d="M29 45H28V46H29V45Z" fill="#398052"/>
<path d="M30 45H29V46H30V45Z" fill="#2F6942"/>
<path d="M31 45H30V46H31V45Z" fill="#398052"/>
<path d="M32 45H31V46H32V45Z" fill="#2F6942"/>
<path d="M33 45H32V46H33V45Z" fill="#398052"/>
<path d="M34 45H33V46H34V45Z" fill="#2F6942"/>
<path d="M35 45H34V46H35V45Z" fill="#398052"/>
<path d="M36 45H35V46H36V45Z" fill="#2F6942"/>
<path d="M37 45H36V46H37V45Z" fill="#398052"/>
<path d="M38 45H37V46H38V45Z" fill="#2F6942"/>
<path d="M39 45H38V46H39V45Z" fill="#398052"/>
<path d="M40 45H39V46H40V45Z" fill="#2F6942"/>
<path d="M41 45H40V46H41V45Z" fill="#398052"/>
<path d="M42 45H41V46H42V45Z" fill="#2F6942"/>
<path d="M43 45H42V46H43V45Z" fill="#398052"/>
<path d="M44 45H43V46H44V45Z" fill="#2F6942"/>
<path d="M45 45H44V46H45V45Z" fill="#398052"/>
<path d="M46 45H45V46H46V45Z" fill="#2F6942"/>
<path d="M47 45H46V46H47V45Z" fill="#398052"/>
<path d="M48 45H47V46H48V45Z" fill="#2F6942"/>
<path d="M49 45H48V46H49V45Z" fill="#398052"/>
<path d="M50 45H49V46H50V45Z" fill="#2F6942"/>
<path d="M51 45H50V46H51V45Z" fill="#398052"/>
<path d="M52 45H51V46H52V45Z" fill="#2F6942"/>
<path d="M53 45H52V46H53V45Z" fill="#398052"/>
<path d="M54 45H53V46H54V45Z" fill="#2F6942"/>
<path d="M55 45H54V46H55V45Z" fill="#122C1A"/>
<path d="M56 45H55V46H56V45Z" fill="#122C1A"/>
<path d="M57 45H56V46H57V45Z" fill="#122C1A"/>
<path d="M7 46H6V47H7V46Z" fill="#122C1A"/>
<path d="M8 46H7V47H8V46Z" fill="#183508"/>
<path d="M9 46H8V47H9V46Z" fill="#2F6942"/>
<path d="M10 46H9V47H10V46Z" fill="#2F6942"/>
<path d="M11 46H10V47H11V46Z" fill="#2F6942"/>
<path d="M12 46H11V47H12V46Z" fill="#2F6942"/>
<path d="M13 46H12V47H13V46Z" fill="#2F6942"/>
<path d="M14 46H13V47H14V46Z" fill="#2F6942"/>
<path d="M15 46H14V47H15V46Z" fill="#2F6942"/>
<path d="M16 46H15V47H16V46Z" fill="#2F6942"/>
<path d="M17 46H16V47H17V46Z" fill="#2F6942"/>
<path d="M18 46H17V47H18V46Z" fill="#2F6942"/>
<path d="M19 46H18V47H19V46Z" fill="#2F6942"/>
<path d="M20 46H19V47H20V46Z" fill="#2F6942"/>
<path d="M21 46H20V47H21V46Z" fill="#2F6942"/>
<path d="M22 46H21V47H22V46Z" fill="#2F6942"/>
<path d="M23 46H22V47H23V46Z" fill="#2F6942"/>
<path d="M24 46H23V47H24V46Z" fill="#2F6942"/>
<path d="M25 46H24V47H25V46Z" fill="#2F6942"/>
<path d="M26 46H25V47H26V46Z" fill="#2F6942"/>
<path d="M27 46H26V47H27V46Z" fill="#2F6942"/>
<path d="M28 46H27V47H28V46Z" fill="#2F6942"/>
<path d="M29 46H28V47H29V46Z" fill="#2F6942"/>
<path d="M30 46H29V47H30V46Z" fill="#2F6942"/>
<path d="M31 46H30V47H31V46Z" fill="#2F6942"/>
<path d="M32 46H31V47H32V46Z" fill="#2F6942"/>
<path d="M33 46H32V47H33V46Z" fill="#2F6942"/>
<path d="M34 46H33V47H34V46Z" fill="#2F6942"/>
<path d="M35 46H34V47H35V46Z" fill="#2F6942"/>
<path d="M36 46H35V47H36V46Z" fill="#2F6942"/>
<path d="M37 46H36V47H37V46Z" fill="#2F6942"/>
<path d="M38 46H37V47H38V46Z" fill="#2F6942"/>
<path d="M39 46H38V47H39V46Z" fill="#2F6942"/>
<path d="M40 46H39V47H40V46Z" fill="#2F6942"/>
<path d="M41 46H40V47H41V46Z" fill="#2F6942"/>
<path d="M42 46H41V47H42V46Z" fill="#2F6942"/>
<path d="M43 46H42V47H43V46Z" fill="#2F6942"/>
<path d="M44 46H43V47H44V46Z" fill="#2F6942"/>
<path d="M45 46H44V47H45V46Z" fill="#2F6942"/>
<path d="M46 46H45V47H46V46Z" fill="#2F6942"/>
<path d="M47 46H46V47H47V46Z" fill="#2F6942"/>
<path d="M48 46H47V47H48V46Z" fill="#2F6942"/>
<path d="M49 46H48V47H49V46Z" fill="#2F6942"/>
<path d="M50 46H49V47H50V46Z" fill="#2F6942"/>
<path d="M51 46H50V47H51V46Z" fill="#2F6942"/>
<path d="M52 46H51V47H52V46Z" fill="#2F6942"/>
<path d="M53 46H52V47H53V46Z" fill="#2F6942"/>
<path d="M54 46H53V47H54V46Z" fill="#2F6942"/>
<path d="M55 46H54V47H55V46Z" fill="#2F6942"/>
<path d="M56 46H55V47H56V46Z" fill="#2F6942"/>
<path d="M57 46H56V47H57V46Z" fill="#183508"/>
<path d="M58 46H57V47H58V46Z" fill="#122C1A"/>
<path d="M7 47H6V48H7V47Z" fill="#122C1A"/>
<path d="M8 47H7V48H8V47Z" fill="#2F6942"/>
<path d="M9 47H8V48H9V47Z" fill="#398052"/>
<path d="M10 47H9V48H10V47Z" fill="#2F6942"/>
<path d="M11 47H10V48H11V47Z" fill="#2F6942"/>
<path d="M12 47H11V48H12V47Z" fill="#2F6942"/>
<path d="M13 47H12V48H13V47Z" fill="#398052"/>
<path d="M14 47H13V48H14V47Z" fill="#2F6942"/>
<path d="M15 47H14V48H15V47Z" fill="#2F6942"/>
<path d="M16 47H15V48H16V47Z" fill="#2F6942"/>
<path d="M17 47H16V48H17V47Z" fill="#398052"/>
<path d="M18 47H17V48H18V47Z" fill="#2F6942"/>
<path d="M19 47H18V48H19V47Z" fill="#2F6942"/>
<path d="M20 47H19V48H20V47Z" fill="#2F6942"/>
<path d="M21 47H20V48H21V47Z" fill="#398052"/>
<path d="M22 47H21V48H22V47Z" fill="#2F6942"/>
<path d="M23 47H22V48H23V47Z" fill="#2F6942"/>
<path d="M24 47H23V48H24V47Z" fill="#2F6942"/>
<path d="M25 47H24V48H25V47Z" fill="#398052"/>
<path d="M26 47H25V48H26V47Z" fill="#2F6942"/>
<path d="M27 47H26V48H27V47Z" fill="#2F6942"/>
<path d="M28 47H27V48H28V47Z" fill="#2F6942"/>
<path d="M29 47H28V48H29V47Z" fill="#398052"/>
<path d="M30 47H29V48H30V47Z" fill="#2F6942"/>
<path d="M31 47H30V48H31V47Z" fill="#2F6942"/>
<path d="M32 47H31V48H32V47Z" fill="#2F6942"/>
<path d="M33 47H32V48H33V47Z" fill="#398052"/>
<path d="M34 47H33V48H34V47Z" fill="#2F6942"/>
<path d="M35 47H34V48H35V47Z" fill="#2F6942"/>
<path d="M36 47H35V48H36V47Z" fill="#2F6942"/>
<path d="M37 47H36V48H37V47Z" fill="#398052"/>
<path d="M38 47H37V48H38V47Z" fill="#2F6942"/>
<path d="M39 47H38V48H39V47Z" fill="#2F6942"/>
<path d="M40 47H39V48H40V47Z" fill="#2F6942"/>
<path d="M41 47H40V48H41V47Z" fill="#398052"/>
<path d="M42 47H41V48H42V47Z" fill="#2F6942"/>
<path d="M43 47H42V48H43V47Z" fill="#2F6942"/>
<path d="M44 47H43V48H44V47Z" fill="#2F6942"/>
<path d="M45 47H44V48H45V47Z" fill="#398052"/>
<path d="M46 47H45V48H46V47Z" fill="#2F6942"/>
<path d="M47 47H46V48H47V47Z" fill="#2F6942"/>
<path d="M48 47H47V48H48V47Z" fill="#2F6942"/>
<path d="M49 47H48V48H49V47Z" fill="#398052"/>
<path d="M50 47H49V48H50V47Z" fill="#2F6942"/>
<path d="M51 47H50V48H51V47Z" fill="#2F6942"/>
<path d="M52 47H51V48H52V47Z" fill="#2F6942"/>
<path d="M53 47H52V48H53V47Z" fill="#398052"/>
<path d="M54 47H53V48H54V47Z" fill="#2F6942"/>
<path d="M55 47H54V48H55V47Z" fill="#2F6942"/>
<path d="M56 47H55V48H56V47Z" fill="#2F6942"/>
<path d="M57 47H56V48H57V47Z" fill="#398052"/>
<path d="M58 47H57V48H58V47Z" fill="#122C1A"/>
<path d="M6 48H5V49H6V48Z" fill="#183508"/>
<path d="M7 48H6V49H7V48Z" fill="#122C1A"/>
<path d="M8 48H7V49H8V48Z" fill="#122C1A"/>
<path d="M9 48H8V49H9V48Z" fill="#122C1A"/>
<path d="M10 48H9V49H10V48Z" fill="#122C1A"/>
<path d="M11 48H10V49H11V48Z" fill="#122C1A"/>
<path d="M12 48H11V49H12V48Z" fill="#122C1A"/>
<path d="M13 48H12V49H13V48Z" fill="#122C1A"/>
<path d="M14 48H13V49H14V48Z" fill="#122C1A"/>
<path d="M15 48H14V49H15V48Z" fill="#122C1A"/>
<path d="M16 48H15V49H16V48Z" fill="#122C1A"/>
<path d="M17 48H16V49H17V48Z" fill="#122C1A"/>
<path d="M18 48H17V49H18V48Z" fill="#122C1A"/>
<path d="M19 48H18V49H19V48Z" fill="#2F6942"/>
<path d="M20 48H19V49H20V48Z" fill="#2F6942"/>
<path d="M21 48H20V49H21V48Z" fill="#2F6942"/>
<path d="M22 48H21V49H22V48Z" fill="#2F6942"/>
<path d="M23 48H22V49H23V48Z" fill="#2F6942"/>
<path d="M24 48H23V49H24V48Z" fill="#2F6942"/>
<path d="M25 48H24V49H25V48Z" fill="#2F6942"/>
<path d="M26 48H25V49H26V48Z" fill="#2F6942"/>
<path d="M27 48H26V49H27V48Z" fill="#2F6942"/>
<path d="M28 48H27V49H28V48Z" fill="#2F6942"/>
<path d="M29 48H28V49H29V48Z" fill="#2F6942"/>
<path d="M30 48H29V49H30V48Z" fill="#2F6942"/>
<path d="M31 48H30V49H31V48Z" fill="#2F6942"/>
<path d="M32 48H31V49H32V48Z" fill="#2F6942"/>
<path d="M33 48H32V49H33V48Z" fill="#2F6942"/>
<path d="M34 48H33V49H34V48Z" fill="#2F6942"/>
<path d="M35 48H34V49H35V48Z" fill="#2F6942"/>
<path d="M36 48H35V49H36V48Z" fill="#2F6942"/>
<path d="M37 48H36V49H37V48Z" fill="#2F6942"/>
<path d="M38 48H37V49H38V48Z" fill="#2F6942"/>
<path d="M39 48H38V49H39V48Z" fill="#2F6942"/>
<path d="M40 48H39V49H40V48Z" fill="#2F6942"/>
<path d="M41 48H40V49H41V48Z" fill="#2F6942"/>
<path d="M42 48H41V49H42V48Z" fill="#2F6942"/>
<path d="M43 48H42V49H43V48Z" fill="#2F6942"/>
<path d="M44 48H43V49H44V48Z" fill="#2F6942"/>
<path d="M45 48H44V49H45V48Z" fill="#2F6942"/>
<path d="M46 48H45V49H46V48Z" fill="#2F6942"/>
<path d="M47 48H46V49H47V48Z" fill="#122C1A"/>
<path d="M48 48H47V49H48V48Z" fill="#122C1A"/>
<path d="M49 48H48V49H49V48Z" fill="#122C1A"/>
<path d="M50 48H49V49H50V48Z" fill="#122C1A"/>
<path d="M51 48H50V49H51V48Z" fill="#122C1A"/>
<path d="M52 48H51V49H52V48Z" fill="#122C1A"/>
<path d="M53 48H52V49H53V48Z" fill="#122C1A"/>
<path d="M54 48H53V49H54V48Z" fill="#122C1A"/>
<path d="M55 48H54V49H55V48Z" fill="#122C1A"/>
<path d="M56 48H55V49H56V48Z" fill="#122C1A"/>
<path d="M57 48H56V49H57V48Z" fill="#122C1A"/>
<path d="M58 48H57V49H58V48Z" fill="#122C1A"/>
<path d="M59 48H58V49H59V48Z" fill="#183508"/>
<path d="M17 49H16V50H17V49Z" fill="#122C1A"/>
<path d="M18 49H17V50H18V49Z" fill="#2F6942"/>
<path d="M19 49H18V50H19V49Z" fill="#2F6942"/>
<path d="M20 49H19V50H20V49Z" fill="#2F6942"/>
<path d="M21 49H20V50H21V49Z" fill="#2F6942"/>
<path d="M22 49H21V50H22V49Z" fill="#2F6942"/>
<path d="M23 49H22V50H23V49Z" fill="#2F6942"/>
<path d="M24 49H23V50H24V49Z" fill="#2F6942"/>
<path d="M25 49H24V50H25V49Z" fill="#2F6942"/>
<path d="M26 49H25V50H26V49Z" fill="#2F6942"/>
<path d="M27 49H26V50H27V49Z" fill="#2F6942"/>
<path d="M28 49H27V50H28V49Z" fill="#2F6942"/>
<path d="M29 49H28V50H29V49Z" fill="#2F6942"/>
<path d="M30 49H29V50H30V49Z" fill="#2F6942"/>
<path d="M31 49H30V50H31V49Z" fill="#2F6942"/>
<path d="M32 49H31V50H32V49Z" fill="#2F6942"/>
<path d="M33 49H32V50H33V49Z" fill="#2F6942"/>
<path d="M34 49H33V50H34V49Z" fill="#2F6942"/>
<path d="M35 49H34V50H35V49Z" fill="#2F6942"/>
<path d="M36 49H35V50H36V49Z" fill="#2F6942"/>
<path d="M37 49H36V50H37V49Z" fill="#2F6942"/>
<path d="M38 49H37V50H38V49Z" fill="#2F6942"/>
<path d="M39 49H38V50H39V49Z" fill="#2F6942"/>
<path d="M40 49H39V50H40V49Z" fill="#2F6942"/>
<path d="M41 49H40V50H41V49Z" fill="#2F6942"/>
<path d="M42 49H41V50H42V49Z" fill="#2F6942"/>
<path d="M43 49H42V50H43V49Z" fill="#2F6942"/>
<path d="M44 49H43V50H44V49Z" fill="#2F6942"/>
<path d="M45 49H44V50H45V49Z" fill="#2F6942"/>
<path d="M46 49H45V50H46V49Z" fill="#2F6942"/>
<path d="M47 49H46V50H47V49Z" fill="#2F6942"/>
<path d="M48 49H47V50H48V49Z" fill="#122C1A"/>
<path d="M16 50H15V51H16V50Z" fill="#122C1A"/>
<path d="M17 50H16V51H17V50Z" fill="#2F6942"/>
<path d="M18 50H17V51H18V50Z" fill="#2F6942"/>
<path d="M19 50H18V51H19V50Z" fill="#2F6942"/>
<path d="M20 50H19V51H20V50Z" fill="#2F6942"/>
<path d="M21 50H20V51H21V50Z" fill="#2F6942"/>
<path d="M22 50H21V51H22V50Z" fill="#2F6942"/>
<path d="M23 50H22V51H23V50Z" fill="#2F6942"/>
<path d="M24 50H23V51H24V50Z" fill="#2F6942"/>
<path d="M25 50H24V51H25V50Z" fill="#2F6942"/>
<path d="M26 50H25V51H26V50Z" fill="#2F6942"/>
<path d="M27 50H26V51H27V50Z" fill="#2F6942"/>
<path d="M28 50H27V51H28V50Z" fill="#2F6942"/>
<path d="M29 50H28V51H29V50Z" fill="#2F6942"/>
<path d="M30 50H29V51H30V50Z" fill="#2F6942"/>
<path d="M31 50H30V51H31V50Z" fill="#2F6942"/>
<path d="M32 50H31V51H32V50Z" fill="#2F6942"/>
<path d="M33 50H32V51H33V50Z" fill="#2F6942"/>
<path d="M34 50H33V51H34V50Z" fill="#2F6942"/>
<path d="M35 50H34V51H35V50Z" fill="#2F6942"/>
<path d="M36 50H35V51H36V50Z" fill="#2F6942"/>
<path d="M37 50H36V51H37V50Z" fill="#2F6942"/>
<path d="M38 50H37V51H38V50Z" fill="#2F6942"/>
<path d="M39 50H38V51H39V50Z" fill="#2F6942"/>
<path d="M40 50H39V51H40V50Z" fill="#2F6942"/>
<path d="M41 50H40V51H41V50Z" fill="#2F6942"/>
<path d="M42 50H41V51H42V50Z" fill="#2F6942"/>
<path d="M43 50H42V51H43V50Z" fill="#2F6942"/>
<path d="M44 50H43V51H44V50Z" fill="#2F6942"/>
<path d="M45 50H44V51H45V50Z" fill="#2F6942"/>
<path d="M46 50H45V51H46V50Z" fill="#2F6942"/>
<path d="M47 50H46V51H47V50Z" fill="#2F6942"/>
<path d="M48 50H47V51H48V50Z" fill="#2F6942"/>
<path d="M49 50H48V51H49V50Z" fill="#122C1A"/>
<path d="M15 51H14V52H15V51Z" fill="#122C1A"/>
<path d="M16 51H15V52H16V51Z" fill="#2F6942"/>
<path d="M17 51H16V52H17V51Z" fill="#2F6942"/>
<path d="M18 51H17V52H18V51Z" fill="#2F6942"/>
<path d="M19 51H18V52H19V51Z" fill="#2F6942"/>
<path d="M20 51H19V52H20V51Z" fill="#2F6942"/>
<path d="M21 51H20V52H21V51Z" fill="#2F6942"/>
<path d="M22 51H21V52H22V51Z" fill="#2F6942"/>
<path d="M23 51H22V52H23V51Z" fill="#2F6942"/>
<path d="M24 51H23V52H24V51Z" fill="#2F6942"/>
<path d="M25 51H24V52H25V51Z" fill="#2F6942"/>
<path d="M26 51H25V52H26V51Z" fill="#2F6942"/>
<path d="M27 51H26V52H27V51Z" fill="#2F6942"/>
<path d="M28 51H27V52H28V51Z" fill="#2F6942"/>
<path d="M29 51H28V52H29V51Z" fill="#2F6942"/>
<path d="M30 51H29V52H30V51Z" fill="#2F6942"/>
<path d="M31 51H30V52H31V51Z" fill="#2F6942"/>
<path d="M32 51H31V52H32V51Z" fill="#2F6942"/>
<path d="M33 51H32V52H33V51Z" fill="#2F6942"/>
<path d="M34 51H33V52H34V51Z" fill="#2F6942"/>
<path d="M35 51H34V52H35V51Z" fill="#2F6942"/>
<path d="M36 51H35V52H36V51Z" fill="#2F6942"/>
<path d="M37 51H36V52H37V51Z" fill="#2F6942"/>
<path d="M38 51H37V52H38V51Z" fill="#2F6942"/>
<path d="M39 51H38V52H39V51Z" fill="#2F6942"/>
<path d="M40 51H39V52H40V51Z" fill="#2F6942"/>
<path d="M41 51H40V52H41V51Z" fill="#2F6942"/>
<path d="M42 51H41V52H42V51Z" fill="#2F6942"/>
<path d="M43 51H42V52H43V51Z" fill="#2F6942"/>
<path d="M44 51H43V52H44V51Z" fill="#2F6942"/>
<path d="M45 51H44V52H45V51Z" fill="#2F6942"/>
<path d="M46 51H45V52H46V51Z" fill="#2F6942"/>
<path d="M47 51H46V52H47V51Z" fill="#2F6942"/>
<path d="M48 51H47V52H48V51Z" fill="#2F6942"/>
<path d="M49 51H48V52H49V51Z" fill="#2F6942"/>
<path d="M50 51H49V52H50V51Z" fill="#122C1A"/>
<path d="M14 52H13V53H14V52Z" fill="#122C1A"/>
<path d="M15 52H14V53H15V52Z" fill="#2F6942"/>
<path d="M16 52H15V53H16V52Z" fill="#2F6942"/>
<path d="M17 52H16V53H17V52Z" fill="#2F6942"/>
<path d="M18 52H17V53H18V52Z" fill="#2F6942"/>
<path d="M19 52H18V53H19V52Z" fill="#2F6942"/>
<path d="M20 52H19V53H20V52Z" fill="#2F6942"/>
<path d="M21 52H20V53H21V52Z" fill="#2F6942"/>
<path d="M22 52H21V53H22V52Z" fill="#2F6942"/>
<path d="M23 52H22V53H23V52Z" fill="#122C1A"/>
<path d="M24 52H23V53H24V52Z" fill="#122C1A"/>
<path d="M25 52H24V53H25V52Z" fill="#2F6942"/>
<path d="M26 52H25V53H26V52Z" fill="#2F6942"/>
<path d="M27 52H26V53H27V52Z" fill="#2F6942"/>
<path d="M28 52H27V53H28V52Z" fill="#2F6942"/>
<path d="M29 52H28V53H29V52Z" fill="#2F6942"/>
<path d="M30 52H29V53H30V52Z" fill="#2F6942"/>
<path d="M31 52H30V53H31V52Z" fill="#2F6942"/>
<path d="M32 52H31V53H32V52Z" fill="#2F6942"/>
<path d="M33 52H32V53H33V52Z" fill="#2F6942"/>
<path d="M34 52H33V53H34V52Z" fill="#2F6942"/>
<path d="M35 52H34V53H35V52Z" fill="#2F6942"/>
<path d="M36 52H35V53H36V52Z" fill="#2F6942"/>
<path d="M37 52H36V53H37V52Z" fill="#2F6942"/>
<path d="M38 52H37V53H38V52Z" fill="#2F6942"/>
<path d="M39 52H38V53H39V52Z" fill="#2F6942"/>
<path d="M40 52H39V53H40V52Z" fill="#2F6942"/>
<path d="M41 52H40V53H41V52Z" fill="#122C1A"/>
<path d="M42 52H41V53H42V52Z" fill="#122C1A"/>
<path d="M43 52H42V53H43V52Z" fill="#2F6942"/>
<path d="M44 52H43V53H44V52Z" fill="#2F6942"/>
<path d="M45 52H44V53H45V52Z" fill="#2F6942"/>
<path d="M46 52H45V53H46V52Z" fill="#2F6942"/>
<path d="M47 52H46V53H47V52Z" fill="#2F6942"/>
<path d="M48 52H47V53H48V52Z" fill="#2F6942"/>
<path d="M49 52H48V53H49V52Z" fill="#2F6942"/>
<path d="M50 52H49V53H50V52Z" fill="#2F6942"/>
<path d="M51 52H50V53H51V52Z" fill="#122C1A"/>
<path d="M13 53H12V54H13V53Z" fill="#122C1A"/>
<path d="M14 53H13V54H14V53Z" fill="#2F6942"/>
<path d="M15 53H14V54H15V53Z" fill="#2F6942"/>
<path d="M16 53H15V54H16V53Z" fill="#2F6942"/>
<path d="M17 53H16V54H17V53Z" fill="#2F6942"/>
<path d="M18 53H17V54H18V53Z" fill="#2F6942"/>
<path d="M19 53H18V54H19V53Z" fill="#2F6942"/>
<path d="M20 53H19V54H20V53Z" fill="#2F6942"/>
<path d="M21 53H20V54H21V53Z" fill="#122C1A"/>
<path d="M22 53H21V54H22V53Z" fill="#122C1A"/>
<path d="M25 53H24V54H25V53Z" fill="#122C1A"/>
<path d="M26 53H25V54H26V53Z" fill="#2F6942"/>
<path d="M27 53H26V54H27V53Z" fill="#2F6942"/>
<path d="M28 53H27V54H28V53Z" fill="#2F6942"/>
<path d="M29 53H28V54H29V53Z" fill="#2F6942"/>
<path d="M30 53H29V54H30V53Z" fill="#2F6942"/>
<path d="M31 53H30V54H31V53Z" fill="#2F6942"/>
<path d="M32 53H31V54H32V53Z" fill="#2F6942"/>
<path d="M33 53H32V54H33V53Z" fill="#2F6942"/>
<path d="M34 53H33V54H34V53Z" fill="#2F6942"/>
<path d="M35 53H34V54H35V53Z" fill="#2F6942"/>
<path d="M36 53H35V54H36V53Z" fill="#2F6942"/>
<path d="M37 53H36V54H37V53Z" fill="#2F6942"/>
<path d="M38 53H37V54H38V53Z" fill="#2F6942"/>
<path d="M39 53H38V54H39V53Z" fill="#2F6942"/>
<path d="M40 53H39V54H40V53Z" fill="#122C1A"/>
<path d="M43 53H42V54H43V53Z" fill="#122C1A"/>
<path d="M44 53H43V54H44V53Z" fill="#122C1A"/>
<path d="M45 53H44V54H45V53Z" fill="#2F6942"/>
<path d="M46 53H45V54H46V53Z" fill="#2F6942"/>
<path d="M47 53H46V54H47V53Z" fill="#2F6942"/>
<path d="M48 53H47V54H48V53Z" fill="#2F6942"/>
<path d="M49 53H48V54H49V53Z" fill="#2F6942"/>
<path d="M50 53H49V54H50V53Z" fill="#2F6942"/>
<path d="M51 53H50V54H51V53Z" fill="#2F6942"/>
<path d="M52 53H51V54H52V53Z" fill="#122C1A"/>
<path d="M13 54H12V55H13V54Z" fill="#122C1A"/>
<path d="M14 54H13V55H14V54Z" fill="#2F6942"/>
<path d="M15 54H14V55H15V54Z" fill="#2F6942"/>
<path d="M16 54H15V55H16V54Z" fill="#2F6942"/>
<path d="M17 54H16V55H17V54Z" fill="#2F6942"/>
<path d="M18 54H17V55H18V54Z" fill="#122C1A"/>
<path d="M19 54H18V55H19V54Z" fill="#122C1A"/>
<path d="M20 54H19V55H20V54Z" fill="#122C1A"/>
<path d="M26 54H25V55H26V54Z" fill="#122C1A"/>
<path d="M27 54H26V55H27V54Z" fill="#2F6942"/>
<path d="M28 54H27V55H28V54Z" fill="#2F6942"/>
<path d="M29 54H28V55H29V54Z" fill="#4B4329"/>
<path d="M30 54H29V55H30V54Z" fill="#4B4329"/>
<path d="M31 54H30V55H31V54Z" fill="#2F6942"/>
<path d="M32 54H31V55H32V54Z" fill="#2F6942"/>
<path d="M33 54H32V55H33V54Z" fill="#2F6942"/>
<path d="M34 54H33V55H34V54Z" fill="#2F6942"/>
<path d="M35 54H34V55H35V54Z" fill="#4B4329"/>
<path d="M36 54H35V55H36V54Z" fill="#4B4329"/>
<path d="M37 54H36V55H37V54Z" fill="#2F6942"/>
<path d="M38 54H37V55H38V54Z" fill="#2F6942"/>
<path d="M39 54H38V55H39V54Z" fill="#122C1A"/>
<path d="M45 54H44V55H45V54Z" fill="#122C1A"/>
<path d="M46 54H45V55H46V54Z" fill="#122C1A"/>
<path d="M47 54H46V55H47V54Z" fill="#122C1A"/>
<path d="M48 54H47V55H48V54Z" fill="#2F6942"/>
<path d="M49 54H48V55H49V54Z" fill="#2F6942"/>
<path d="M50 54H49V55H50V54Z" fill="#2F6942"/>
<path d="M51 54H50V55H51V54Z" fill="#2F6942"/>
<path d="M52 54H51V55H52V54Z" fill="#122C1A"/>
<path d="M13 55H12V56H13V55Z" fill="#122C1A"/>
<path d="M14 55H13V56H14V55Z" fill="#122C1A"/>
<path d="M15 55H14V56H15V55Z" fill="#122C1A"/>
<path d="M16 55H15V56H16V55Z" fill="#122C1A"/>
<path d="M17 55H16V56H17V55Z" fill="#122C1A"/>
<path d="M27 55H26V56H27V55Z" fill="#122C1A"/>
<path d="M28 55H27V56H28V55Z" fill="#4B4329"/>
<path d="M29 55H28V56H29V55Z" fill="#4B4329"/>
<path d="M30 55H29V56H30V55Z" fill="#4B4329"/>
<path d="M31 55H30V56H31V55Z" fill="#4B4329"/>
<path d="M32 55H31V56H32V55Z" fill="#2F6942"/>
<path d="M33 55H32V56H33V55Z" fill="#2F6942"/>
<path d="M34 55H33V56H34V55Z" fill="#4B4329"/>
<path d="M35 55H34V56H35V55Z" fill="#4B4329"/>
<path d="M36 55H35V56H36V55Z" fill="#4B4329"/>
<path d="M37 55H36V56H37V55Z" fill="#4B4329"/>
<path d="M38 55H37V56H38V55Z" fill="#122C1A"/>
<path d="M48 55H47V56H48V55Z" fill="#122C1A"/>
<path d="M49 55H48V56H49V55Z" fill="#122C1A"/>
<path d="M50 55H49V56H50V55Z" fill="#122C1A"/>
<path d="M51 55H50V56H51V55Z" fill="#122C1A"/>
<path d="M52 55H51V56H52V55Z" fill="#122C1A"/>
<path d="M26 56H25V57H26V56Z" fill="#122C1A"/>
<path d="M27 56H26V57H27V56Z" fill="#4B4329"/>
<path d="M28 56H27V57H28V56Z" fill="#4B4329"/>
<path d="M29 56H28V57H29V56Z" fill="#4B4329"/>
<path d="M30 56H29V57H30V56Z" fill="#4B4329"/>
<path d="M31 56H30V57H31V56Z" fill="#4B4329"/>
<path d="M32 56H31V57H32V56Z" fill="#4B4329"/>
<path d="M33 56H32V57H33V56Z" fill="#4B4329"/>
<path d="M34 56H33V57H34V56Z" fill="#4B4329"/>
<path d="M35 56H34V57H35V56Z" fill="#4B4329"/>
<path d="M36 56H35V57H36V56Z" fill="#4B4329"/>
<path d="M37 56H36V57H37V56Z" fill="#4B4329"/>
<path d="M38 56H37V57H38V56Z" fill="#4B4329"/>
<path d="M39 56H38V57H39V56Z" fill="#122C1A"/>
<path d="M26 57H25V58H26V57Z" fill="#122C1A"/>
<path d="M27 57H26V58H27V57Z" fill="#4B4329"/>
<path d="M28 57H27V58H28V57Z" fill="#4B4329"/>
<path d="M29 57H28V58H29V57Z" fill="#4B4329"/>
<path d="M30 57H29V58H30V57Z" fill="#4B4329"/>
<path d="M31 57H30V58H31V57Z" fill="#4B4329"/>
<path d="M32 57H31V58H32V57Z" fill="#4B4329"/>
<path d="M33 57H32V58H33V57Z" fill="#4B4329"/>
<path d="M34 57H33V58H34V57Z" fill="#4B4329"/>
<path d="M35 57H34V58H35V57Z" fill="#4B4329"/>
<path d="M36 57H35V58H36V57Z" fill="#4B4329"/>
<path d="M37 57H36V58H37V57Z" fill="#4B4329"/>
<path d="M38 57H37V58H38V57Z" fill="#4B4329"/>
<path d="M39 57H38V58H39V57Z" fill="#122C1A"/>
<path d="M26 58H25V59H26V58Z" fill="#122C1A"/>
<path d="M27 58H26V59H27V58Z" fill="#614C37"/>
<path d="M28 58H27V59H28V58Z" fill="#4B4329"/>
<path d="M29 58H28V59H29V58Z" fill="#614C37"/>
<path d="M30 58H29V59H30V58Z" fill="#4B4329"/>
<path d="M31 58H30V59H31V58Z" fill="#614C37"/>
<path d="M32 58H31V59H32V58Z" fill="#4B4329"/>
<path d="M33 58H32V59H33V58Z" fill="#614C37"/>
<path d="M34 58H33V59H34V58Z" fill="#4B4329"/>
<path d="M35 58H34V59H35V58Z" fill="#614C37"/>
<path d="M36 58H35V59H36V58Z" fill="#4B4329"/>
<path d="M37 58H36V59H37V58Z" fill="#614C37"/>
<path d="M38 58H37V59H38V58Z" fill="#4B4329"/>
<path d="M39 58H38V59H39V58Z" fill="#122C1A"/>
<path d="M25 59H24V60H25V59Z" fill="#122C1A"/>
<path d="M26 59H25V60H26V59Z" fill="#614C37"/>
<path d="M27 59H26V60H27V59Z" fill="#4B4329"/>
<path d="M28 59H27V60H28V59Z" fill="#614C37"/>
<path d="M29 59H28V60H29V59Z" fill="#4B4329"/>
<path d="M30 59H29V60H30V59Z" fill="#614C37"/>
<path d="M31 59H30V60H31V59Z" fill="#4B4329"/>
<path d="M32 59H31V60H32V59Z" fill="#614C37"/>
<path d="M33 59H32V60H33V59Z" fill="#4B4329"/>
<path d="M34 59H33V60H34V59Z" fill="#614C37"/>
<path d="M35 59H34V60H35V59Z" fill="#4B4329"/>
<path d="M36 59H35V60H36V59Z" fill="#614C37"/>
<path d="M37 59H36V60H37V59Z" fill="#4B4329"/>
<path d="M38 59H37V60H38V59Z" fill="#614C37"/>
<path d="M39 59H38V60H39V59Z" fill="#4B4329"/>
<path d="M40 59H39V60H40V59Z" fill="#122C1A"/>
<path d="M25 60H24V61H25V60Z" fill="#122C1A"/>
<path d="M26 60H25V61H26V60Z" fill="#614C37"/>
<path d="M27 60H26V61H27V60Z" fill="#614C37"/>
<path d="M28 60H27V61H28V60Z" fill="#614C37"/>
<path d="M29 60H28V61H29V60Z" fill="#122C1A"/>
<path d="M30 60H29V61H30V60Z" fill="#614C37"/>
<path d="M31 60H30V61H31V60Z" fill="#614C37"/>
<path d="M32 60H31V61H32V60Z" fill="#122C1A"/>
<path d="M33 60H32V61H33V60Z" fill="#122C1A"/>
<path d="M34 60H33V61H34V60Z" fill="#614C37"/>
<path d="M35 60H34V61H35V60Z" fill="#614C37"/>
<path d="M36 60H35V61H36V60Z" fill="#122C1A"/>
<path d="M37 60H36V61H37V60Z" fill="#614C37"/>
<path d="M38 60H37V61H38V60Z" fill="#614C37"/>
<path d="M39 60H38V61H39V60Z" fill="#614C37"/>
<path d="M40 60H39V61H40V60Z" fill="#122C1A"/>
<path d="M26 61H25V62H26V61Z" fill="#122C1A"/>
<path d="M27 61H26V62H27V61Z" fill="#122C1A"/>
<path d="M28 61H27V62H28V61Z" fill="#122C1A"/>
<path d="M30 61H29V62H30V61Z" fill="#122C1A"/>
<path d="M31 61H30V62H31V61Z" fill="#122C1A"/>
<path d="M34 61H33V62H34V61Z" fill="#122C1A"/>
<path d="M35 61H34V62H35V61Z" fill="#122C1A"/>
<path d="M37 61H36V62H37V61Z" fill="#122C1A"/>
<path d="M38 61H37V62H38V61Z" fill="#122C1A"/>
<path d="M39 61H38V62H39V61Z" fill="#122C1A"/>
</svg>
